<svg width="162" height="18" fill="none" xmlns="http://www.w3.org/2000/svg"><path fill-rule="evenodd" clip-rule="evenodd" d="M12.39 5.187v12.231H6.195V5.187h6.195zM0 .6h6.195v4.587H0V.6z" fill="#D5ECF9"/><path fill-rule="evenodd" clip-rule="evenodd" d="M153.001 18c-2.615 0-5.576-.506-7.822-1.865l2.064-4.537c.497.28.972.525 1.507.74 1.573.635 3.599 1.061 5.305.836.365-.048 1.004-.16 1.004-.627 0-.557-.976-.736-1.4-.846-1.586-.409-3.101-.625-4.685-1.18-2.168-.76-3.461-2.368-3.461-4.636 0-1.093.318-2.103.954-3.005C148.051.635 151.164 0 153.79 0c1.199 0 2.38.126 3.542.378a11.57 11.57 0 013.268 1.214l-1.928 4.511c-1.571-.77-3.144-1.331-4.931-1.331-.713 0-1.24.08-1.581.24-.614.288-.573.878.087 1.127 1.643.621 3.708.74 5.519 1.363 2.184.753 3.513 2.322 3.513 4.613a5.06 5.06 0 01-.955 2.994C158.732 17.345 155.63 18 153.001 18zM18.479.604h18.858v4.58H31.05v12.212h-6.286V5.184H18.48V.604zM114.863 18c-2.615 0-5.575-.506-7.821-1.865l2.063-4.537c.497.28.973.525 1.507.74 1.573.635 3.599 1.061 5.305.836.365-.048 1.005-.16 1.005-.627 0-.557-.976-.736-1.4-.846-1.586-.409-3.101-.625-4.685-1.18-2.168-.76-3.461-2.368-3.461-4.636 0-1.093.317-2.103.953-3.005C109.913.635 113.027 0 115.653 0c1.199 0 2.379.126 3.542.378a11.58 11.58 0 013.268 1.214l-1.929 4.511c-1.571-.77-3.144-1.331-4.93-1.331-.713 0-1.241.08-1.582.24-.614.288-.572.878.088 1.127 1.643.621 3.708.74 5.519 1.363 2.183.753 3.513 2.322 3.513 4.613 0 1.09-.317 2.096-.955 2.994-1.592 2.236-4.694 2.89-7.323 2.89l-.001.001zM138.295.604l-3.717 6.41-3.716-6.41h-6.914l7.488 12.213v4.58h6.285v-4.58L145.209.604h-6.914zm-68.883 9.923h3.481l-1.74-6.201-1.741 6.2zm4.767 4.58h-6.053l-.642 2.289h-6.286L65.912.604h10.482l4.714 16.792h-6.286l-.643-2.29zM97.082.603h6.286v16.792h-8.254l-4.475-7.543v7.543h-6.286V.604h7.084l5.645 9.514V.604zM55.519 12.169l2.379 5.227h-6.286l-2.084-4.58h-3.101v4.58H40.14V.604h12.571c3.457 0 6.286 2.748 6.286 6.106 0 2.38-1.42 4.453-3.48 5.46zM51.14 5.183h-4.714v3.054h4.714c.427 0 .819-.173 1.106-.452a1.5 1.5 0 00.465-1.075 1.5 1.5 0 00-.465-1.075 1.587 1.587 0 00-1.106-.452z" fill="#3C464E"/><path fill-rule="evenodd" clip-rule="evenodd" d="M18.585 5.187v12.231H12.39V5.187h6.195zM6.195.6h6.195v4.587H6.195V.6z" fill="#ACDBF1"/><path fill-rule="evenodd" clip-rule="evenodd" d="M24.78 5.187v12.231h-6.194V5.187h6.195zM12.39.6h6.196v4.587H12.39V.6z" fill="#008DD2"/></svg>