<svg width="662" height="260" fill="none" xmlns="http://www.w3.org/2000/svg"><path d="M359 168h175" stroke="#2C373D" stroke-width="3" stroke-miterlimit="10" stroke-linecap="round" stroke-linejoin="round"/><path d="M596.271 127.38l-35.675 42.046c-1.649 1.919-2.604 4.187-2.951 6.717L556.429 186H171.99a1.375 1.375 0 01-1.389-1.396v-12.823c0-.087 0-.262-.086-.262L154.37 128.95c-1.389-3.751 1.302-7.676 5.294-7.676h13.541c.782 0 1.389-.611 1.389-1.396V86.73c0-.785.608-1.396 1.389-1.396h11.892c.781 0 1.388-.61 1.388-1.396v-6.542c0-.785.608-1.396 1.389-1.396h6.51c.781 0 1.389.61 1.389 1.396v6.542c0 .785.608 1.396 1.389 1.396h44.268c.781 0 1.389.61 1.389 1.396v33.148c0 .785.608 1.396 1.389 1.396h9.721c.695 0 1.302.523 1.302 1.221.608 6.542 6.163 11.689 12.847 11.689H513.55c6.684 0 12.239-5.147 12.847-11.689.086-.698.607-1.221 1.302-1.221h65.621c2.951-.088 4.774 3.489 2.951 6.106z" stroke="#2C373D" stroke-width="3" stroke-miterlimit="10" stroke-linejoin="round"/><path d="M579.5 132a3.5 3.5 0 11-7 0 3.5 3.5 0 017 0z" stroke="#2C373D" stroke-width="3"/><path d="M372.909 114.029h-38.4c-1.041 0-1.821.866-1.821 1.818v13.335c0 1.039.867 1.819 1.821 1.819h38.4c1.04 0 1.82-.866 1.82-1.819v-13.335c.087-.952-.78-1.818-1.82-1.818zM327.314 94.2h-38.4c-1.04 0-1.82.866-1.82 1.818v13.335c0 1.039.867 1.819 1.82 1.819h38.4c1.04 0 1.82-.866 1.82-1.819V96.018c0-1.039-.78-1.818-1.82-1.818zm45.595 0h-38.4c-1.041 0-1.821.866-1.821 1.818v13.335c0 1.039.867 1.819 1.821 1.819h38.4c1.04 0 1.82-.866 1.82-1.819V96.018c.087-1.039-.78-1.818-1.82-1.818zm-45.595 19.829h-38.4c-1.04 0-1.82.866-1.82 1.818v13.335c0 1.039.867 1.819 1.82 1.819h38.4c1.04 0 1.82-.866 1.82-1.819v-13.335c0-.952-.78-1.818-1.82-1.818zM498.857 94.2h-18.636c-1.041 0-1.821.866-1.821 1.818v33.164c0 1.039.867 1.819 1.821 1.819h18.636c1.04 0 1.821-.866 1.821-1.819V96.018c0-1.039-.781-1.818-1.821-1.818zm-26.524 0h-18.637c-1.04 0-1.82.866-1.82 1.818v33.164c0 1.039.867 1.819 1.82 1.819h18.637c1.04 0 1.82-.866 1.82-1.819V96.018c0-1.039-.78-1.818-1.82-1.818zm-26.785 0h-18.637c-1.04 0-1.82.866-1.82 1.818v33.164c0 1.039.867 1.819 1.82 1.819h18.637c1.04 0 1.82-.866 1.82-1.819V96.018c.087-1.039-.78-1.818-1.82-1.818zm-26.785 0h-38.4c-1.04 0-1.82.866-1.82 1.818v13.335c0 1.039.867 1.819 1.82 1.819h38.4c1.04 0 1.821-.866 1.821-1.819V96.018c0-1.039-.867-1.818-1.821-1.818zm0 19.829h-38.4c-1.04 0-1.82.866-1.82 1.818v13.335c0 1.039.867 1.819 1.82 1.819h38.4c1.04 0 1.821-.866 1.821-1.819v-13.335c0-.952-.867-1.818-1.821-1.818z" fill="url(#paint0_linear)"/><path d="M240 92h-7v7h7v-7zm-11 0h-7v7h7v-7zm-11 0h-7v7h7v-7zm-11 0h-7v7h7v-7zm84 135.852l-6.075 9.037h-41.05L239.189 243h-3.385c-1.649 0-3.124-1.033-3.732-2.496-.607-1.291-1.388-2.582-2.43-3.615-2.517-2.754-6.248-4.561-10.327-4.561s-7.724 1.721-10.328 4.561a13.07 13.07 0 00-2.43 3.701c-.607 1.463-1.996 2.41-3.645 2.41h-.087c-1.649 0-3.037-1.033-3.645-2.496-.52-1.291-1.301-2.582-2.256-3.615-2.517-3.012-6.336-4.819-10.588-4.819-4.253 0-8.071 1.893-10.588 4.819-.955 1.119-1.822 2.496-2.343 3.873-.521 1.377-1.823 2.238-3.298 2.238h-2.864l-3.819-6.111H136v-9.037h48.253V222h11.282v5.852h76.98V222h10.848v5.852H291v0z" stroke="#2C373D" stroke-width="3" stroke-miterlimit="10" stroke-linejoin="round"/><path d="M323 224h-12v2h12v-2z" fill="#2C373D"/><path d="M421.191 244c.173 3.464-2.601 6.408-6.155 6.408h-8.148v-5.369c0-8.226-6.761-15.24-14.996-15.066-7.975.173-14.476 6.667-14.476 14.72v5.715h-47.068v-3.031c0-8.226-6.761-15.24-14.996-15.153-7.975.173-14.476 6.667-14.476 14.72v.953a2.421 2.421 0 01-2.427 2.424h-1.82v-16.019c0-3.896 3.207-7.1 7.108-7.1h60.504l.866-51.608c0-1.299 1.127-2.424 2.428-2.424l25.657 2.078c14.39 1.212 24.878 12.729 26.092 27.102l1.907 41.65zm-8.495-36.454c1.127 0 1.907-1.039 1.733-2.078l-1.733-8.4c-.78-3.809-4.161-6.58-7.975-6.58h-7.195v17.058h15.17z" fill="#fff"/><path d="M414.428 205.468c.261 1.039-.606 2.078-1.733 2.078h-15.169v-17.058h7.194c3.901 0 7.195 2.771 7.975 6.581l1.733 8.399z" fill="#fff"/><path d="M415.122 250.408c3.468 0 6.328-2.944 6.155-6.407l-1.907-41.477c-1.3-14.287-11.789-25.89-26.091-27.102l-25.658-2.078a2.421 2.421 0 00-2.427 2.424l-.867 51.608h-60.504c-3.901 0-7.108 3.203-7.108 7.1v16.019h1.82a2.423 2.423 0 002.428-2.425v-.952c0-8.053 6.414-14.547 14.475-14.72 8.235-.173 14.996 6.84 14.996 15.153v3.031h47.068v-5.715c0-8.053 6.415-14.547 14.476-14.721 8.235-.173 14.996 6.841 14.996 15.067v5.282h8.148v-.087z" stroke="#2C373D" stroke-width="3" stroke-miterlimit="10" stroke-linejoin="round"/><path d="M397.526 207.546v-17.058h7.194c3.901 0 7.195 2.771 7.975 6.581l1.734 8.399c.26 1.039-.607 2.078-1.734 2.078h-15.169zM315.5 256c5.247 0 9.5-4.477 9.5-10s-4.253-10-9.5-10-9.5 4.477-9.5 10 4.253 10 9.5 10z" stroke="#2C373D" stroke-width="3" stroke-miterlimit="10" stroke-linejoin="round"/><path d="M315.5 250.469a4.5 4.5 0 100-9 4.5 4.5 0 000 9zm77 5.531c5.247 0 9.5-4.477 9.5-10s-4.253-10-9.5-10-9.5 4.477-9.5 10 4.253 10 9.5 10z" stroke="#2C373D" stroke-width="3" stroke-miterlimit="10" stroke-linejoin="round"/><path d="M392.5 250.469a4.5 4.5 0 100-9 4.5 4.5 0 000 9z" stroke="#2C373D" stroke-width="3" stroke-miterlimit="10" stroke-linejoin="round"/><path d="M356.787 155H138.126a3.122 3.122 0 00-3.126 3.144v62.712a3.122 3.122 0 003.126 3.144h218.748a3.122 3.122 0 003.126-3.144v-62.712c0-1.747-1.476-3.144-3.213-3.144zm-162.215 69h77.113-77.113z" fill="url(#paint1_linear)"/><path d="M145.881 212h-2.762c-.597 0-1.119-.601-1.119-1.288v-48.424c0-.687.522-1.288 1.119-1.288h2.762c.597 0 1.119.601 1.119 1.288v48.424c0 .687-.448 1.288-1.119 1.288zm12.776 0h-3.314c-.716 0-1.343-.601-1.343-1.288v-48.424c0-.687.627-1.288 1.343-1.288h3.314c.716 0 1.343.601 1.343 1.288v48.424c0 .687-.627 1.288-1.343 1.288zm12 0h-3.314c-.716 0-1.343-.601-1.343-1.288v-48.424c0-.687.627-1.288 1.343-1.288h3.314c.716 0 1.343.601 1.343 1.288v48.424c0 .687-.627 1.288-1.343 1.288zm13 0h-3.314c-.716 0-1.343-.601-1.343-1.288v-48.424c0-.687.627-1.288 1.343-1.288h3.314c.716 0 1.343.601 1.343 1.288v48.424c0 .687-.537 1.288-1.343 1.288zm13 1h-3.314c-.716 0-1.343-.613-1.343-1.313v-49.374c0-.7.627-1.313 1.343-1.313h3.314c.716 0 1.343.613 1.343 1.313v49.374c0 .788-.627 1.313-1.343 1.313zm13-1h-3.314c-.716 0-1.343-.601-1.343-1.288v-48.424c0-.687.627-1.288 1.343-1.288h3.314c.716 0 1.343.601 1.343 1.288v48.424c0 .687-.627 1.288-1.343 1.288zm13.224 0h-2.762c-.597 0-1.119-.601-1.119-1.288v-48.424c0-.687.522-1.288 1.119-1.288h2.762c.597 0 1.119.601 1.119 1.288v48.424c0 .687-.522 1.288-1.119 1.288zm13 0h-2.762c-.597 0-1.119-.601-1.119-1.288v-48.424c0-.687.522-1.288 1.119-1.288h2.762c.597 0 1.119.601 1.119 1.288v48.424c0 .687-.522 1.288-1.119 1.288zm13.776 0h-3.314c-.716 0-1.343-.601-1.343-1.288v-48.424c0-.687.627-1.288 1.343-1.288h3.314c.716 0 1.343.601 1.343 1.288v48.424c0 .687-.627 1.288-1.343 1.288zm12 1h-3.314c-.716 0-1.343-.613-1.343-1.313v-49.374c0-.7.627-1.313 1.343-1.313h3.314c.716 0 1.343.613 1.343 1.313v49.374c0 .788-.627 1.313-1.343 1.313zm13-1h-3.314c-.716 0-1.343-.601-1.343-1.288v-48.424c0-.687.627-1.288 1.343-1.288h3.314c.716 0 1.343.601 1.343 1.288v48.424c0 .687-.627 1.288-1.343 1.288zm12 1h-3.314c-.716 0-1.343-.613-1.343-1.313v-49.374c0-.7.627-1.313 1.343-1.313h3.314c.716 0 1.343.613 1.343 1.313v49.374c0 .788-.537 1.313-1.343 1.313zm13-1h-3.314c-.716 0-1.343-.601-1.343-1.288v-48.424c0-.687.627-1.288 1.343-1.288h3.314c.716 0 1.343.601 1.343 1.288v48.424c0 .687-.627 1.288-1.343 1.288zm13 1h-3.314c-.716 0-1.343-.613-1.343-1.313v-49.374c0-.7.627-1.313 1.343-1.313h3.314c.716 0 1.343.613 1.343 1.313v49.374c0 .788-.537 1.313-1.343 1.313zm12.224-1h-2.762c-.597 0-1.119-.601-1.119-1.288v-48.424c0-.687.522-1.288 1.119-1.288h2.762c.597 0 1.119.601 1.119 1.288v48.424c0 .773-.522 1.288-1.119 1.288zm12.776 0h-3.314c-.716 0-1.343-.601-1.343-1.288v-48.424c0-.687.627-1.288 1.343-1.288h3.314c.716 0 1.343.601 1.343 1.288v48.424c0 .687-.627 1.288-1.343 1.288zm13 0h-3.314c-.716 0-1.343-.601-1.343-1.288v-48.424c0-.687.627-1.288 1.343-1.288h3.314c.716 0 1.343.601 1.343 1.288v48.424c0 .773-.627 1.288-1.343 1.288z" fill="#fff"/><path d="M219.5 256c5.247 0 9.5-4.477 9.5-10s-4.253-10-9.5-10-9.5 4.477-9.5 10 4.253 10 9.5 10z" stroke="#2C373D" stroke-width="3" stroke-miterlimit="10" stroke-linejoin="round"/><path d="M219.5 250.469a4.5 4.5 0 100-9 4.5 4.5 0 000 9zm-33 5.531c5.247 0 9.5-4.477 9.5-10s-4.253-10-9.5-10-9.5 4.477-9.5 10 4.253 10 9.5 10z" stroke="#2C373D" stroke-width="3" stroke-miterlimit="10" stroke-linejoin="round"/><path d="M186.5 250.469a4.5 4.5 0 100-9 4.5 4.5 0 000 9z" stroke="#2C373D" stroke-width="3" stroke-miterlimit="10" stroke-linejoin="round"/><path d="M486.397 56.039h-45.286c0 1.568-1.299 2.961-2.857 2.961h-34.895c-1.559 0-2.858-1.306-2.858-2.874v-.087s-17.49.61-28.487-2.177c-6.234-1.655-8.399-2.439-14.807-4.964-23.725-9.493-38.358-12.976-38.358-12.976s9.698-1.48 6.667-8.622C323.958 23.468 314 1 314 1l9.265.697c3.637.261 6.927 2.003 9.698 4.441 28.66 25.081 25.976 26.213 41.562 26.213 19.829 0 65.287.175 87.281.175 9.525 0 27.448-.871 33.336 7.837l4.763 1.83c4.242 1.567 7.36 12.975-13.508 13.846z" fill="#fff" stroke="#2C373D" stroke-width="2" stroke-miterlimit="10" stroke-linejoin="round"/><path d="M496 41h-10.047c-.52 0-.953-.667-.953-1.444v-1.89c0-.333.173-.666.433-.666h6.583" stroke="#2C373D" stroke-width="2" stroke-miterlimit="10" stroke-linejoin="round"/><path d="M419.198 49.433l-5.288-.953v-4.589l5.288-.866" fill="#fff"/><path d="M419.198 49.433l-5.288-.953v-4.589l5.288-.866" stroke="#2C373D" stroke-width="2" stroke-miterlimit="10" stroke-linejoin="round"/><path d="M433.067 51.684h-9.795a5.25 5.25 0 01-5.287-5.282 5.25 5.25 0 015.287-5.282h9.795a3.383 3.383 0 013.381 3.377v3.81c.086 1.819-1.474 3.377-3.381 3.377z" fill="#fff" stroke="#2C373D" stroke-width="2" stroke-miterlimit="10" stroke-linejoin="round"/><path d="M430.814 41.034h-6.155v10.564h6.155V41.034zM383 46.47l35-14" stroke="#2C373D" stroke-width="2" stroke-miterlimit="10" stroke-linejoin="round"/><path d="M353.857 43.098c.689-.18 1.378-.09 1.981.09 4.134 1.715 18.95 9.022 34.971 8.931 1.895 0 3.273 1.985 3.187 3.88 0 0-13.265.18-25.582-3.338-8.442-2.346-15.16-5.503-19.037-7.217-.516-.27-.516-1.083.087-1.263l4.393-1.083z" fill="#fff" stroke="#2C373D" stroke-width="2" stroke-miterlimit="10"/><path d="M401 54l1.049-.818c1.049-.818 2.099-1.182 3.41-1.182H433" stroke="#2C373D" stroke-width="2" stroke-miterlimit="10" stroke-linecap="round" stroke-linejoin="round"/><path d="M394 42h7.119c.347 0 .695-.093 1.042-.186L421 34h-7.814" stroke="#2C373D" stroke-width="2" stroke-miterlimit="10" stroke-linejoin="round"/><path d="M405.952 48c17.127-4.853 33.909-8.295 52.507-10.942 3.892-.53 2.941-5.471-.346-5.03h.086c-20.501 3.265-37.715 7.854-53.199 13.325" fill="#fff"/><path d="M405.952 48c17.127-4.853 33.909-8.295 52.507-10.942 3.892-.53 2.941-5.471-.346-5.03h.086c-20.501 3.265-37.715 7.854-53.199 13.325m-87-9.723l7.47-.85 26.667-.767c7.297-.255 8.165 3.32.434 3.576-3.127.085-15.201.596-25.711.34-5.82-.17-7.731-.766-7.731-.766L318 35.631z" stroke="#2C373D" stroke-width="2" stroke-miterlimit="10" stroke-linejoin="round"/><path d="M374 46.679c6.389-1.162 25.467-2.406 31.068-1.162 2.626.581 2.976 3.07-1.487 3.401-4.551.332-19.692-.332-29.581-2.24z" fill="#fff" stroke="#2C373D" stroke-width="2" stroke-miterlimit="10" stroke-linejoin="round"/><path fill-rule="evenodd" clip-rule="evenodd" d="M310 36.948c3.477-1.568 15.4-2.44 18.794-1.655 1.573.348 1.904 2.178-.828 2.526-2.649.349-11.839.262-17.966-.871z" fill="#fff" stroke="#2C373D" stroke-width="2" stroke-miterlimit="10" stroke-linejoin="round"/><path d="M468.889 43h2.222c.519 0 .889.47.889 1.13v5.74c0 .66-.37 1.13-.889 1.13h-2.222c-.519 0-.889-.47-.889-1.13v-5.74c0-.66.37-1.13.889-1.13zM315 5l10.662 24h10.229c.867 0 1.387-.96.953-1.658L324.622 6.92c-.607-.96-1.56-1.57-2.687-1.57L315 5z" stroke="#2C373D" stroke-width="2" stroke-miterlimit="10" stroke-linejoin="round"/><path d="M334 22h-2m-4-10h-2" stroke="#2C373D" stroke-width="2" stroke-miterlimit="10" stroke-linecap="round" stroke-linejoin="round"/><path d="M597 258H171m-9 0h-47m-8 0H85m84-137h61" stroke="#2C373D" stroke-width="3" stroke-miterlimit="10" stroke-linecap="round" stroke-linejoin="round"/><path d="M585 211l-4.574-2.724a15.416 15.416 0 00-15.446-.17l-.95.511c-4.918 2.723-10.873 2.638-15.705-.341-4.66-2.808-10.442-3.064-15.274-.51l-2.244 1.191c-4.832 2.554-10.614 2.298-15.274-.51l-.173-.085a15.255 15.255 0 00-15.36-.426m-16-.455c-4.687-3.061-10.482-3.154-15.254-.186l-.937.557c-4.858 2.968-10.738 2.875-15.51-.371-4.602-3.061-10.311-3.339-15.083-.557L435 208.223m121-22.385c2.407-.093 4.813-.835 6.962-2.133l.946-.557c4.899-2.968 10.83-2.875 15.643.371 4.642 3.061 10.401 3.339 15.214.557l2.235-1.299" stroke="#008DD2" stroke-width="3" stroke-miterlimit="10" stroke-linecap="round" stroke-linejoin="round"/><path d="M210 52v33" stroke="#2C373D" stroke-width="3" stroke-miterlimit="10" stroke-linecap="round" stroke-linejoin="round"/><path d="M120 172.41c-4.793-2.974-10.719-3.064-15.6-.18l-.958.54c-4.968 2.884-10.981 2.794-15.861-.36-4.707-2.974-10.546-3.244-15.426-.541l-2.266 1.262c-4.88 2.703-10.72 2.433-15.425-.541l-.175-.09a15.096 15.096 0 00-12.985-1.622c-2.44.811-4.967 1.081-7.495 1.081H2m95 19.336l-.954.557c-4.944 2.968-10.928 2.875-15.785-.371-4.683-3.061-10.494-3.339-15.35-.557-1.475.835-3.123 1.299-4.77 1.299H31m629-8.656l-42.094-.173c-2.853 0-5.705-.606-8.471-1.558-3.976-1.384-8.384-1.038-12.188.952L595 184" stroke="#008DD2" stroke-width="3" stroke-miterlimit="10" stroke-linecap="round" stroke-linejoin="round"/><defs><linearGradient id="paint0_linear" x1="287.089" y1="112.633" x2="500.712" y2="112.633" gradientUnits="userSpaceOnUse"><stop stop-color="#008DD2"/><stop offset="1" stop-color="#003C5F"/></linearGradient><linearGradient id="paint1_linear" x1="134.952" y1="189.494" x2="359.97" y2="189.494" gradientUnits="userSpaceOnUse"><stop stop-color="#1B75BC"/><stop offset="1" stop-color="#003C5F"/></linearGradient></defs></svg>