<svg width="458" height="181" fill="none" xmlns="http://www.w3.org/2000/svg"><path d="M387.385 113.994v-21.34c0-1.212.97-2.182 2.182-2.182h8.973c2.91 0 5.698 1.092 7.881 2.789 2.182 1.819 3.758 4.244 4.365 7.153l2.182 10.549c.121.364.121.606.121.849 0 .97-.363 1.94-.97 2.667-.606.728-1.455 1.334-2.425 1.455-.363.121-.606.121-.848.121H389.81c-1.455.122-2.425-.848-2.425-2.061zM13.822 176.558c1.213 0 2.183.97 2.183 2.182 0 1.213-.97 2.183-2.183 2.183H2.182A2.174 2.174 0 010 178.74c0-1.212.97-2.182 2.182-2.182h11.64zm51.045 0c1.213 0 2.183.97 2.183 2.182 0 1.213-.97 2.183-2.183 2.183H23.158a2.173 2.173 0 01-2.182-2.183c0-1.212.97-2.182 2.182-2.182h41.71zm390.78 0c1.212 0 2.182.97 2.182 2.182 0 1.213-.97 2.183-2.182 2.183H74.567a2.174 2.174 0 01-2.182-2.183c0-1.212.97-2.182 2.182-2.182h18.672c-3.88 0-7.517-1.576-10.063-4.123-2.547-2.546-4.123-6.183-4.123-10.063 0-3.88 1.576-7.517 4.123-10.064 2.546-2.546 6.183-4.122 10.063-4.122 3.88 0 7.517 1.576 10.064 4.122 2.546 2.547 4.122 6.184 4.122 10.064s-1.576 7.517-4.122 10.063c-2.547 2.547-6.184 4.123-10.064 4.123h40.982c-3.88 0-7.518-1.576-10.064-4.123-2.546-2.546-4.122-6.183-4.122-10.063 0-3.88 1.576-7.517 4.122-10.064 2.546-2.546 6.184-4.122 10.064-4.122s7.517 1.576 10.063 4.122c2.546 2.547 4.123 6.184 4.123 10.064s-1.577 7.517-4.123 10.063c-2.546 2.547-6.183 4.123-10.063 4.123H286.75c-3.88 0-7.518-1.576-10.064-4.123-2.546-2.546-4.122-6.183-4.122-10.063 0-3.88 1.576-7.517 4.122-10.064 2.546-2.546 6.184-4.122 10.064-4.122s7.517 1.576 10.063 4.122c2.546 2.547 4.123 6.184 4.123 10.064s-1.577 7.517-4.123 10.063c-2.546 2.547-6.183 4.123-10.063 4.123h96.755c-3.88 0-7.517-1.576-10.064-4.123-2.546-2.546-4.122-6.183-4.122-10.063 0-3.88 1.576-7.517 4.122-10.064 2.547-2.546 6.184-4.122 10.064-4.122s7.517 1.576 10.063 4.122c2.547 2.547 4.123 6.184 4.123 10.064s-1.576 7.517-4.123 10.063c-2.546 2.547-6.183 4.123-10.063 4.123h72.142zm-64.625-14.307c0 2.061-.848 4.001-2.303 5.456-1.334 1.333-3.274 2.303-5.457 2.303-2.182 0-4.001-.848-5.456-2.303-1.333-1.334-2.303-3.274-2.303-5.456 0-2.062.848-4.002 2.303-5.457 1.334-1.333 3.274-2.303 5.456-2.303 2.183 0 4.002.848 5.457 2.303l.121.122c1.334 1.455 2.182 3.273 2.182 5.335zm-5.335 2.303c.607-.606.97-1.455.97-2.425 0-.848-.363-1.697-.848-2.303l-.122-.122c-.606-.606-1.455-.97-2.425-.97-.97 0-1.818.364-2.424.97-.607.607-.97 1.455-.97 2.425 0 .97.363 1.819.97 2.425.606.607 1.454.97 2.424.97.97.122 1.819-.363 2.425-.97zm4.729 4.729c1.819-1.819 2.91-4.244 2.91-7.032 0-2.668-1.091-5.214-2.91-7.033-1.819-1.818-4.244-2.91-7.032-2.91a10.009 10.009 0 00-7.033 2.91c-1.818 1.819-2.91 4.244-2.91 7.033 0 2.667 1.092 5.213 2.91 7.032a9.793 9.793 0 007.033 2.91c2.667 0 5.213-1.091 7.032-2.91zm-289.66-7.032c0 2.182-.848 4.001-2.303 5.456s-3.274 2.303-5.456 2.303c-2.062 0-4.001-.848-5.457-2.303-1.455-1.455-2.303-3.274-2.303-5.456 0-2.183.849-4.002 2.303-5.457l.122-.121c1.334-1.334 3.273-2.182 5.335-2.182 2.182 0 4 .848 5.456 2.303l.121.122c1.455 1.455 2.182 3.273 2.182 5.335zm-5.213 2.303c.606-.606.97-1.455.97-2.425 0-.848-.364-1.697-.849-2.303l-.121-.122c-.606-.606-1.455-.97-2.425-.97-.849 0-1.698.364-2.304.849l-.121.121c-.606.607-.97 1.455-.97 2.425 0 .97.364 1.819.97 2.425.606.607 1.455.97 2.425.97.97.122 1.819-.363 2.425-.97zm4.607 4.729c1.819-1.819 2.91-4.244 2.91-7.032 0-2.668-1.091-5.214-2.91-7.033-1.819-1.818-4.243-2.91-7.032-2.91a10.008 10.008 0 00-7.032 2.91 9.79 9.79 0 00-2.91 7.033 10 10 0 002.91 7.032 9.792 9.792 0 007.032 2.91c2.789 0 5.335-1.091 7.032-2.91zm41.588-7.032c0 2.182-.849 4.001-2.304 5.456v.121c-1.333 1.334-3.273 2.182-5.335 2.182-2.182 0-4.001-.848-5.456-2.303l-.121-.122c-1.334-1.333-2.182-3.273-2.182-5.334 0-2.062.848-4.002 2.303-5.457 1.334-1.333 3.274-2.303 5.456-2.303 2.062 0 4.002.848 5.457 2.303 1.333 1.455 2.182 3.274 2.182 5.457zm-5.335 2.303c.606-.606.97-1.455.97-2.425 0-.97-.364-1.818-.97-2.425-.606-.606-1.455-.97-2.425-.97-.97 0-1.819.364-2.425.97-.606.607-.97 1.455-.97 2.425 0 .849.364 1.698.849 2.304l.121.121c.606.607 1.455.97 2.425.97.97.122 1.819-.242 2.425-.97zm4.729 4.729c1.818-1.819 2.91-4.244 2.91-7.032 0-2.668-1.092-5.214-2.91-7.033-1.819-1.818-4.244-2.91-7.033-2.91a10.008 10.008 0 00-7.032 2.91 9.793 9.793 0 00-2.91 7.033c0 2.667 1.091 5.213 2.91 7.032 1.819 1.819 4.244 2.91 7.032 2.91a9.793 9.793 0 007.033-2.91zm153.135-7.032c0 2.061-.849 4.001-2.304 5.456-1.333 1.333-3.273 2.303-5.456 2.303-2.182 0-4.001-.848-5.456-2.303-1.334-1.334-2.304-3.274-2.304-5.456 0-2.062.849-4.002 2.304-5.457 1.334-1.333 3.274-2.303 5.456-2.303 2.183 0 4.001.848 5.456 2.303l.122.122c1.333 1.455 2.182 3.273 2.182 5.335zm-5.335 2.303c.606-.606.97-1.455.97-2.425 0-.848-.364-1.697-.849-2.303l-.121-.122c-.606-.606-1.455-.97-2.425-.97-.97 0-1.819.364-2.425.97-.606.607-.97 1.455-.97 2.425 0 .97.364 1.819.97 2.425.606.607 1.455.97 2.425.97.97.122 1.819-.363 2.425-.97zm4.729 4.729c1.818-1.819 2.91-4.244 2.91-7.032 0-2.668-1.092-5.214-2.91-7.033-1.819-1.818-4.244-2.91-7.033-2.91a10.008 10.008 0 00-7.032 2.91 9.793 9.793 0 00-2.91 7.033c0 2.667 1.091 5.213 2.91 7.032 1.819 1.819 4.244 2.91 7.032 2.91a9.793 9.793 0 007.033-2.91zm98.089-74.567v16.974h16.853c-.727-3.516-1.334-7.032-2.182-10.548-.364-1.94-1.455-3.516-2.789-4.607-1.455-1.092-3.152-1.82-5.092-1.82h-6.79zm19.763 70.93h.243c1.455-.122 2.788-.728 3.758-1.698a5.32 5.32 0 001.576-3.759v-.242l-2.303-52.015a36.67 36.67 0 00-9.821-22.067c-5.335-5.578-12.61-9.215-20.855-9.942l-32.009-2.668a.924.924 0 00-.606.243.923.923 0 00-.243.606l-1.091 64.746c0 1.212-.97 2.182-2.182 2.182h-49.469a2.173 2.173 0 01-2.183-2.182v-6.547c0-1.213.97-2.183 2.183-2.183h25.947V99.687h-3.759v23.764c0 1.213-.97 2.183-2.183 2.183h-65.231l-10.306 15.277c-.485.728-1.212.97-1.94.97l-136.524-.121H50.681l-4 7.032h17.58a2.16 2.16 0 011.94 1.213l4.001 6.547h2.425c.485 0 .849-.121 1.213-.364.363-.242.727-.606.848-1.091.364-.97.849-1.94 1.455-2.91a21.385 21.385 0 011.94-2.667c1.819-2.183 4.123-3.88 6.669-5.093 2.546-1.212 5.335-1.818 8.245-1.818 2.91 0 5.698.606 8.244 1.818 2.547 1.213 4.85 2.91 6.669 5.093.606.727 1.212 1.576 1.819 2.425.485.848.97 1.697 1.333 2.667v.121c.243.485.607.97 1.092 1.213.485.242.97.485 1.455.485h.121c.606 0 1.091-.122 1.455-.485.485-.364.849-.728 1.091-1.334.364-.97.97-1.819 1.455-2.789.606-.848 1.213-1.697 1.94-2.546 1.819-2.061 4.122-3.637 6.547-4.728a19.15 19.15 0 0115.762 0c2.547 1.091 4.729 2.788 6.548 4.728.727.728 1.334 1.576 1.94 2.425.606.849 1.091 1.819 1.455 2.668.242.606.727 1.091 1.212 1.454.485.364.97.485 1.576.485h3.153l5.214-6.911c.484-.606 1.091-.848 1.697-.848h81.357l12.367-17.824c.364-.606 1.091-.97 1.819-.97h23.401c1.212 0 2.182.97 2.182 2.183v6.547c0 1.213-.97 2.183-2.182 2.183h-11.761a6.69 6.69 0 00-4.729 1.94 6.689 6.689 0 00-1.94 4.728v17.945h.121a.92.92 0 00.606-.243h.122a.925.925 0 00.242-.606v-1.212c0-5.578 2.304-10.67 5.941-14.429 3.638-3.759 8.73-6.062 14.307-6.183h.364c5.699 0 10.791 2.424 14.55 6.183 3.759 3.759 6.062 8.972 6.183 14.55v1.94h54.562v-4.729c0-5.577 2.303-10.67 5.941-14.428 3.637-3.759 8.73-6.063 14.307-6.184h.364c5.698 0 10.791 2.425 14.549 6.184 3.759 3.758 6.063 8.972 6.184 14.549v4.85l7.881.122zm.485 4.243h-10.67a2.173 2.173 0 01-2.182-2.182v-7.033c-.121-4.486-1.94-8.608-4.971-11.639a15.852 15.852 0 00-11.398-4.85h-.363c-4.486.121-8.488 1.94-11.276 4.85-2.91 2.91-4.608 6.911-4.608 11.397v7.153c0 1.213-.97 2.183-2.182 2.183h-58.926a2.174 2.174 0 01-2.183-2.183v-4.122c-.121-4.486-1.94-8.609-4.971-11.64a15.854 15.854 0 00-11.397-4.85h-.243c-4.486.122-8.487 1.94-11.276 4.85-2.909 2.91-4.607 6.911-4.607 11.398v1.212c0 1.334-.485 2.667-1.455 3.516l-.121.121a5.32 5.32 0 01-3.759 1.577h-2.304a2.173 2.173 0 01-2.182-2.183v-20.127a11.09 11.09 0 013.274-7.881c2.061-2.061 4.728-3.274 7.881-3.274h9.578V134H261.53l-12.367 18.066a2.296 2.296 0 01-1.94 1.091h-81.236l-5.092 6.79c-.364.606-1.091.97-1.819.97h-4.243c-1.455 0-2.789-.485-4.001-1.213-1.213-.727-2.062-1.94-2.668-3.273-.364-.728-.727-1.455-1.212-2.061-.485-.728-.97-1.334-1.455-1.94a15.1 15.1 0 00-5.093-3.638c-1.94-.849-4.001-1.334-6.183-1.334-2.183 0-4.244.485-6.184 1.334a15.586 15.586 0 00-5.092 3.638c-.607.606-1.092 1.212-1.455 1.94-.485.727-.849 1.333-1.213 2.182-.606 1.334-1.455 2.425-2.667 3.152-1.091.728-2.425 1.213-3.88 1.213h-.121c-1.455 0-2.789-.485-4.002-1.213-1.091-.727-1.939-1.818-2.546-3.031l-.121-.121c-.242-.727-.606-1.455-1.091-2.061-.485-.728-.849-1.334-1.455-1.94-1.455-1.698-3.153-3.031-5.214-4.001a16.024 16.024 0 00-6.426-1.334c-2.304 0-4.486.485-6.426 1.334-2.061.97-3.759 2.303-5.214 4.001-.485.606-1.09 1.334-1.455 2.061-.485.728-.848 1.455-1.09 2.304-.486 1.212-1.335 2.303-2.426 3.031-1.091.727-2.303 1.212-3.758 1.212h-3.638c-.727 0-1.455-.363-1.819-1.091l-4.122-6.668H42.922c-.364 0-.728-.122-1.092-.243-1.09-.606-1.455-1.94-.848-2.91l6.426-11.276a2.16 2.16 0 011.94-1.212h55.046l135.433.121 10.306-15.156c.364-.606 1.091-1.091 1.819-1.091h64.14V97.505c0-1.213.969-2.183 2.182-2.183h8.124c1.212 0 2.182.97 2.182 2.183v34.798c0 1.212-.97 2.182-2.182 2.182h-25.947v2.182h45.104l.97-62.563c0-1.455.606-2.668 1.576-3.638.97-.97 2.182-1.454 3.637-1.454h.121l32.131 2.667c9.457.727 17.581 4.971 23.643 11.276 6.184 6.426 10.185 15.035 11.034 24.613v.243l2.303 52.015v.485c0 2.667-1.091 4.971-2.788 6.789-1.213 1.577-3.517 2.668-6.184 2.789z" fill="#374148"/><path d="M275 101.344V53.136c0-1.078-.92-1.848-1.839-1.848h-5.517c-.92 0-1.533-.616-1.839-1.386a9.064 9.064 0 00-8.736-6.623h-13.486c-1.073 0-1.839-.924-1.839-1.848V22.64c0-2.773-2.299-5.083-5.057-5.083h-43.831c-1.226 0-2.145.924-2.145 2.156v21.563c0 1.232-.92 2.156-2.146 2.156h-6.283c-1.226 0-2.146.924-2.146 2.156v17.25c0 1.232-.919 2.157-2.146 2.157h-7.202c-1.533 0-2.606-1.54-1.839-3.08l24.98-53.907c.306-.77 1.226-1.386 2.145-1.386h52.413c1.226 0 2.299-1.078 2.299-2.31V2.31c0-1.232-1.073-2.31-2.299-2.31h-59.156a7.403 7.403 0 00-5.517 2.464l-13.026 15.094c-.767.924-1.993 1.54-3.372 1.54L41.135 18.79c-1.38 0-2.759.616-3.525 1.694L23.97 38.196c-1.992 2.465-.766 6.315 2.3 7.085l51.186 13.862 19.77 5.39 15.785 4.313c.306.154.613.154.766.462.92.924 1.686 1.848 2.606 2.772.919 1.079.153 2.927-1.38 2.927h-5.823c-.46 0-.767-.154-1.073-.462a35.518 35.518 0 00-25.594-8.625c-17.777 1.078-32.336 15.71-33.409 33.576-1.226 20.946 15.172 38.196 35.708 38.196 18.85 0 34.482-14.94 35.708-33.73.154-1.386 1.226-2.464 2.606-2.464h1.072c.92 0 1.686.77 1.686 1.694v5.391a2.917 2.917 0 002.912 2.926h43.218c2.605 0 4.75-2.156 4.75-4.775v-8.933c0-5.698 1.226-9.703 3.372-14.631 1.686-3.85 3.985-7.24 6.743-10.32 7.356-8.162 18.084-13.245 30.191-13.245 22.222 0 40.306 17.866 40.306 39.736v1.695c0 1.232.919 2.156 2.145 2.156h13.18c1.379.308 2.299-.616 2.299-1.848zM218.603 35.27V24.18c0-1.385 1.072-2.463 2.452-2.463h13.946c1.379 0 2.452 1.078 2.452 2.464v11.09c0 1.385-1.073 2.463-2.452 2.463h-13.946c-1.38 0-2.452-1.078-2.452-2.464zM33.166 43.125l16.551-21.1 3.832.154-16.705 22.178-3.678-1.232zm8.582 2.156l17.93-22.948h4.445L45.886 46.359l-4.138-1.078zm19.77 4.929l21.149-27.261h5.057L66.115 51.442l-4.597-1.232zM50.79 47.9l19.463-24.951h4.904L55.081 48.978 50.79 47.9zm18.084 51.134c1.073-6.623 6.283-11.86 12.873-12.938 10.728-1.848 19.923 7.393 18.237 18.328-1.072 6.623-6.283 11.859-12.873 12.938-.92.154-1.839.154-2.605.154-9.655 0-17.165-8.471-15.632-18.483zm112.335 3.08c0 19.868 16.091 35.886 35.708 35.886 19.77 0 35.708-16.172 35.708-35.886 0-19.868-16.092-35.886-35.708-35.886-19.617 0-35.708 16.018-35.708 35.886zm19.616-.308c0-8.78 7.05-15.864 15.785-15.864 8.736 0 15.786 7.085 15.786 15.864s-7.05 15.864-15.786 15.864c-8.735 0-15.785-7.085-15.785-15.864z" fill="url(#paint0_linear)"/><defs><linearGradient id="paint0_linear" x1="22.994" y1="69.124" x2="275.041" y2="69.124" gradientUnits="userSpaceOnUse"><stop stop-color="#008DD2"/><stop offset="1" stop-color="#003C5F"/></linearGradient></defs></svg>