<svg width="415" height="133" fill="none" xmlns="http://www.w3.org/2000/svg"><path d="M153.348 92.27h26.432a6.69 6.69 0 014.729 1.94 6.696 6.696 0 011.94 4.728v17.944h-.121a.93.93 0 01-.607-.242.927.927 0 01-.242-.606v-1.213c0-5.577-2.304-10.67-5.941-14.428-3.638-3.759-8.73-6.063-14.307-6.184h-.364c-5.699 0-10.791 2.425-14.55 6.184-3.758 3.758-6.062 8.972-6.183 14.549v1.94H89.573v-4.971c0-5.577-2.304-10.67-5.942-14.428-3.637-3.759-8.73-6.063-14.307-6.184h-.364c-5.698 0-10.79 2.425-14.55 6.184-3.758 3.758-6.062 8.972-6.183 14.549v4.85h-8.245c-1.455-.121-2.788-.727-3.758-1.697a5.32 5.32 0 01-1.576-3.759v-.242l2.303-52.015a36.667 36.667 0 019.821-22.067c5.335-5.578 12.61-9.215 20.855-9.943l32.009-2.667c.243 0 .364.121.606.242a.928.928 0 01.243.607l1.091 64.746c0 1.212.97 2.182 2.182 2.182h49.59zm247.83 35.525c-1.213 0-2.183.97-2.183 2.182s.97 2.182 2.183 2.182h11.64c1.212 0 2.182-.97 2.182-2.182s-.97-2.182-2.182-2.182h-11.64zm-46.68 0c-1.213 0-2.183.97-2.183 2.182s.97 2.182 2.183 2.182h37.465c1.212 0 2.183-.97 2.183-2.182a2.174 2.174 0 00-2.183-2.182h-37.465zm-351.86 0c-1.212 0-2.182.97-2.182 2.182s.97 2.182 2.182 2.182h342.16c1.212 0 2.182-.97 2.182-2.182s-.97-2.182-2.182-2.182h-18.43a14.206 14.206 0 009.579-4.123c2.546-2.546 4.122-6.183 4.122-10.063 0-3.88-1.576-7.518-4.122-10.064-2.546-2.546-6.184-4.122-10.064-4.122s-7.517 1.576-10.063 4.122c-2.546 2.546-4.123 6.184-4.123 10.064s1.577 7.517 4.123 10.063a14.206 14.206 0 009.578 4.123h-40.011a14.206 14.206 0 009.578-4.123c2.546-2.546 4.123-6.183 4.123-10.063 0-3.88-1.577-7.518-4.123-10.064-2.546-2.546-6.183-4.122-10.063-4.122-3.88 0-7.518 1.576-10.064 4.122-2.546 2.546-4.122 6.184-4.122 10.064s1.576 7.517 4.122 10.063a14.206 14.206 0 009.579 4.123H165.109c3.88 0 7.518-1.577 10.064-4.123 2.546-2.546 4.122-6.183 4.122-10.063 0-3.88-1.576-7.518-4.122-10.064-2.546-2.546-6.184-4.122-10.064-4.122-3.879 0-7.517 1.576-10.063 4.122-2.546 2.546-4.122 6.184-4.122 10.064s1.576 7.517 4.122 10.063c2.546 2.546 6.184 4.123 10.063 4.123H68.354c3.88 0 7.517-1.577 10.064-4.123 2.546-2.546 4.122-6.183 4.122-10.063 0-3.88-1.576-7.518-4.122-10.064-2.547-2.546-6.184-4.122-10.064-4.122s-7.517 1.576-10.063 4.122c-2.546 2.546-4.123 6.184-4.123 10.064s1.577 7.517 4.123 10.063c2.546 2.546 6.183 4.123 10.063 4.123H2.638zm309.787-42.073v3.031h-92.148v-3.031h-4.365v5.213c0 1.213.97 2.183 2.183 2.183h96.512c1.213 0 2.183-.97 2.183-2.183v-5.213h-4.365zm-110.093 0v3.031h-7.274c-1.213 0-2.183.97-2.183 2.182 0 .485.121.85.364 1.213l7.638 11.397c.364.606 1.092.97 1.819.97h50.318l5.213 6.911c.485.606 1.092.849 1.698.849h4.243c1.455 0 2.789-.485 4.002-1.213 1.212-.727 2.061-1.939 2.667-3.273.364-.728.728-1.455 1.213-2.061.485-.728.97-1.334 1.455-1.94a15.085 15.085 0 015.092-3.638c1.94-.849 4.001-1.334 6.183-1.334 2.183 0 4.244.486 6.184 1.334a15.586 15.586 0 015.092 3.638l.122.121 1.455 1.819c.485.727.848 1.455 1.212 2.182.606 1.334 1.455 2.425 2.668 3.152 1.091.728 2.425 1.213 3.88 1.213h.121c1.455 0 2.788-.485 4.001-1.213 1.091-.727 2.061-1.939 2.667-3.273.364-.728.728-1.455 1.092-2.061.363-.607.848-1.334 1.455-1.94 1.455-1.698 3.152-3.032 5.213-4.001a16.03 16.03 0 016.426-1.334c2.304 0 4.486.485 6.426 1.334 2.062.969 3.759 2.303 5.214 4.001.485.606 1.091 1.333 1.455 2.061a9.158 9.158 0 011.091 2.182c.485 1.213 1.334 2.304 2.425 3.031 1.091.728 2.304 1.213 3.759 1.213h3.637a2.16 2.16 0 001.94-1.213l4.001-6.547h16.854c1.212 0 2.182-.97 2.182-2.182V90.935c0-1.212-.97-2.182-2.182-2.182h-41.952v-3.031h-4.365v5.213c0 1.213.97 2.183 2.183 2.183h41.951v7.032h-15.883c-.728 0-1.455.364-1.819 1.091l-4.122 6.669h-2.425c-.485 0-.849-.121-1.213-.364-.363-.242-.727-.606-.848-1.091-.364-1.091-.849-1.94-1.455-2.91a21.508 21.508 0 00-1.94-2.667c-1.819-2.183-4.123-3.88-6.669-5.093-2.546-1.212-5.335-1.818-8.245-1.818-2.91 0-5.698.606-8.245 1.818-2.546 1.213-4.849 2.91-6.668 5.093-.606.727-1.213 1.576-1.819 2.425-.485.848-.97 1.818-1.455 2.667-.242.606-.606.97-1.091 1.334-.485.242-.97.485-1.455.485h-.121c-.606 0-1.091-.121-1.455-.485-.485-.364-.849-.728-1.091-1.334-.364-.97-.97-1.94-1.455-2.789-.485-.848-1.092-1.576-1.819-2.425l-.121-.121c-1.819-2.061-4.123-3.637-6.548-4.729a19.159 19.159 0 00-7.881-1.697c-2.788 0-5.456.606-7.881 1.697-2.546 1.092-4.729 2.79-6.547 4.729-.728.849-1.334 1.576-1.94 2.425-.606.849-1.091 1.698-1.455 2.668-.243.606-.606 1.091-1.213 1.333-.485.364-.97.485-1.576.485h-3.152l-5.093-6.668c-.363-.607-1.091-.97-1.818-.97h-50.197l-4.728-7.033h5.335c1.212 0 2.182-.97 2.182-2.182v-5.214l-4.729.243zm115.913 27.887c0 2.061.848 4.001 2.303 5.456s3.274 2.303 5.457 2.303c2.061 0 4.001-.848 5.456-2.303 1.333-1.334 2.303-3.274 2.303-5.456 0-2.183-.848-4.002-2.303-5.456l-.122-.122c-1.333-1.333-3.273-2.182-5.334-2.182-2.183 0-4.002.849-5.457 2.304-1.455 1.333-2.303 3.273-2.303 5.456zm5.335 2.303c-.607-.606-.97-1.455-.97-2.425 0-.97.363-1.818.97-2.425.606-.606 1.455-.97 2.425-.97.848 0 1.697.364 2.303.849l.121.121c.607.607.97 1.455.97 2.425 0 .97-.363 1.819-.97 2.425-.606.607-1.454.97-2.424.97s-1.819-.363-2.425-.97zm-4.729 4.729c-1.819-1.819-2.91-4.244-2.91-7.032a9.793 9.793 0 012.91-7.033c1.819-1.818 4.244-2.91 7.032-2.91 2.789 0 5.214 1.092 7.033 2.91 1.818 1.819 2.91 4.244 2.91 7.033 0 2.667-1.092 5.213-2.91 7.032a9.793 9.793 0 01-7.033 2.91c-2.788 0-5.213-1.091-7.032-2.91zm-41.588-7.032c0 2.061.849 4.001 2.304 5.456 1.334 1.333 3.274 2.303 5.456 2.303 2.061 0 4.001-.848 5.456-2.303 1.334-1.334 2.304-3.274 2.304-5.456 0-2.183-.849-4.002-2.304-5.456-1.334-1.334-3.274-2.304-5.456-2.304-2.182 0-4.001.849-5.456 2.304l-.121.121c-1.334 1.333-2.183 3.273-2.183 5.335zm5.335 2.303c-.606-.606-.97-1.455-.97-2.425 0-.848.364-1.697.849-2.303l.121-.122c.606-.606 1.455-.97 2.425-.97.97 0 1.819.364 2.425.97.606.607.97 1.455.97 2.425 0 .97-.364 1.819-.97 2.425-.606.607-1.455.97-2.425.97-.97 0-1.819-.363-2.425-.97zm-4.729 4.729c-1.818-1.819-2.91-4.244-2.91-7.032 0-2.789 1.092-5.214 2.91-7.033 1.819-1.818 4.244-2.91 7.033-2.91 2.667 0 5.213 1.092 7.032 2.91a9.793 9.793 0 012.91 7.033c0 2.667-1.091 5.213-2.91 7.032-1.819 1.819-4.244 2.91-7.032 2.91a9.793 9.793 0 01-7.033-2.91zm-109.85-32.737v-2.182h-14.671v2.182h-47.286l-.97-62.563c0-1.455-.606-2.668-1.576-3.638-.97-.97-2.183-1.455-3.638-1.455h-.12l-32.131 2.668c-9.458.727-17.581 4.97-23.643 11.276C37.8 40.618 33.798 49.226 32.95 58.805v.242l-2.304 52.015v.485c0 2.668 1.091 4.972 2.789 6.79 1.697 1.819 4.001 2.91 6.669 3.031h10.669c1.213 0 2.183-.97 2.183-2.182v-7.032c.121-4.486 1.94-8.609 4.97-11.64a15.854 15.854 0 0111.398-4.85h.243c4.486.121 8.487 1.94 11.276 4.85 2.91 2.91 4.607 6.911 4.607 11.397v7.154c0 1.212.97 2.182 2.182 2.182h58.927c1.212 0 2.182-.97 2.182-2.182v-4.123c.121-4.486 1.94-8.608 4.971-11.639a15.852 15.852 0 0111.397-4.85h.243c4.486.121 8.487 1.94 11.276 4.85 2.91 2.91 4.607 6.911 4.607 11.397v1.212a5.32 5.32 0 001.577 3.759 5.318 5.318 0 003.758 1.576h2.304c1.212 0 2.182-.97 2.182-2.182V98.938c0-3.032-1.212-5.82-3.273-7.881s-4.729-3.274-7.881-3.274h-11.883v.121zM60.837 113.487c0 2.062.849 4.002 2.304 5.457 1.333 1.333 3.273 2.303 5.456 2.303 2.06 0 4-.849 5.456-2.303 1.455-1.455 2.303-3.274 2.303-5.457 0-2.061-.848-4.001-2.303-5.456-1.455-1.333-3.274-2.303-5.456-2.303-2.061 0-4.001.848-5.456 2.303s-2.304 3.395-2.304 5.456zm5.335 2.425c-.606-.606-.97-1.455-.97-2.425 0-.97.364-1.818.97-2.425.606-.606 1.455-.97 2.425-.97.97 0 1.818.364 2.425.97.606.607.97 1.455.97 2.425 0 .97-.364 1.819-.97 2.425-.607.607-1.455.97-2.425.97-.97 0-1.819-.363-2.425-.97zm-4.729 4.729c-1.819-1.819-2.91-4.244-2.91-7.032 0-2.668 1.091-5.214 2.91-7.033 1.819-1.818 4.244-2.91 7.032-2.91 2.668 0 5.214 1.092 7.033 2.91 1.818 1.819 2.91 4.244 2.91 7.033 0 2.667-1.092 5.213-2.91 7.032a9.792 9.792 0 01-7.033 2.91c-2.788 0-5.213-1.213-7.032-2.91zm96.028-7.154c0 2.062.849 4.002 2.304 5.457 1.333 1.333 3.273 2.303 5.456 2.303 2.182 0 4.001-.849 5.456-2.303l.121-.122c1.334-1.333 2.183-3.273 2.183-5.335 0-2.061-.849-4.001-2.304-5.456-1.334-1.333-3.274-2.303-5.456-2.303-2.062 0-4.001.848-5.456 2.303-1.334 1.455-2.304 3.395-2.304 5.456zm5.335 2.425c-.606-.606-.97-1.455-.97-2.425 0-.97.364-1.818.97-2.425.606-.606 1.455-.97 2.425-.97.97 0 1.818.364 2.425.97.606.607.97 1.455.97 2.425 0 .849-.364 1.698-.849 2.304l-.121.121c-.607.607-1.455.97-2.425.97-.97 0-1.819-.363-2.425-.97zm-4.608 4.729c-1.818-1.819-2.91-4.244-2.91-7.032 0-2.668 1.092-5.214 2.91-7.033 1.819-1.818 4.244-2.91 7.033-2.91 2.667 0 5.213 1.092 7.032 2.91a9.793 9.793 0 012.91 7.033c0 2.667-1.091 5.213-2.91 7.032-1.819 1.819-4.244 2.91-7.032 2.91-2.789 0-5.335-1.213-7.033-2.91zm-93.724-55.41v-21.34c0-1.212-.97-2.182-2.182-2.182h-8.973c-2.91 0-5.698 1.091-7.88 2.789-2.183 1.818-3.76 4.243-4.365 7.153L38.89 62.2c-.121.364-.121.606-.121.848 0 .97.364 1.94.97 2.668.606.728 1.455 1.334 2.425 1.455.364.121.606.121.849.121h19.035c1.455.121 2.425-.849 2.425-2.061zM60.11 46.074v16.974H43.256c.727-3.516 1.334-7.032 2.182-10.548.364-1.94 1.455-3.516 2.79-4.607 1.454-1.092 3.152-1.819 5.091-1.819h6.79z" fill="#374148"/><path d="M107.76 82.327V3.395c0-1.94 1.576-3.395 3.516-3.395s3.516 1.576 3.516 3.395v62.2a3.389 3.389 0 003.395 3.395h253.528a3.389 3.389 0 013.395 3.395v9.82c0 1.94-1.576 3.517-3.395 3.517H111.033c-1.818 0-3.273-1.576-3.273-3.395zm262.257-8.972c0-.85-.606-1.455-1.455-1.455H115.398c-.848 0-1.455.606-1.455 1.455 0 .848.607 1.454 1.455 1.454h253.164c.849 0 1.455-.606 1.455-1.454zM155.289 1.819a5.433 5.433 0 015.456 5.456v54.319a5.433 5.433 0 01-5.456 5.456h-31.403a5.434 5.434 0 01-5.457-5.456V7.274a5.434 5.434 0 015.457-5.455h31.403zm2.182 20.612v-4.244h-35.647v4.244h35.647zm0 26.553V44.74h-35.647v4.244h35.647zm171.08-46.802c2.182 0 4.001 1.82 4.001 4.002v56.743c0 2.183-1.819 4.002-4.001 4.002h-56.744c-2.182 0-4.001-1.82-4.001-4.002V6.184c0-2.183 1.819-4.002 4.001-4.002h56.744zm-.97 56.987V10.306c0-2.182-1.819-4.001-4.001-4.001h-46.195c-2.183 0-3.88 1.697-3.88 3.88v48.984c0 1.697 1.455 3.152 3.152 3.152h47.772c1.697 0 3.152-1.334 3.152-3.152zm-8.609-45.832c.849 0 1.577.728 1.577 1.576v30.07c0 1.333-1.577 2.06-2.547 1.212l-33.343-30.07c-1.091-.97-.363-2.667 1.092-2.667l33.221-.12zm-136.767 4.244c2.789 0 5.335 2.061 5.578 4.85.242 3.152-2.183 5.82-5.335 5.82h-8.972c-2.789 0-5.335-2.062-5.578-4.85-.242-3.153 2.183-5.82 5.335-5.82h8.972zm50.318 0c2.789 0 5.335 2.061 5.578 4.85.242 3.152-2.183 5.82-5.335 5.82h-36.132c-2.789 0-5.335-2.062-5.577-4.85-.243-3.153 2.182-5.82 5.334-5.82h36.132zm22.795 0c2.788 0 5.334 2.061 5.577 4.85.242 3.152-2.183 5.82-5.335 5.82h-8.972c-2.789 0-5.335-2.062-5.578-4.85-.242-3.153 2.183-5.82 5.335-5.82h8.973zm27.401 6.79l32.737 29.463c.97.848.364 2.546-.97 2.546H281.75c-.849 0-1.455-.606-1.455-1.455V25.462c0-.849.727-1.455 1.455-1.455.363-.121.727 0 .969.364zm-74.809 7.032c2.789 0 5.335 2.061 5.577 4.85.243 3.152-2.182 5.82-5.335 5.82h-34.798c-2.788 0-5.334-2.061-5.577-4.85-.242-3.152 2.183-5.82 5.335-5.82h34.798zm47.286 0c2.789 0 5.335 2.061 5.578 4.85.242 3.152-2.183 5.82-5.335 5.82h-34.798c-2.789 0-5.335-2.061-5.577-4.85-.243-3.152 2.182-5.82 5.334-5.82h34.798zm0 14.065c2.789 0 5.335 2.06 5.578 4.85.242 3.152-2.183 5.82-5.335 5.82h-82.448c-2.789 0-5.335-2.062-5.578-4.85-.242-3.153 2.183-5.82 5.335-5.82h82.448zm7.033 13.822v7.154h-95.664V59.41h95.664v-.121z" fill="url(#paint0_linear)"/><defs><linearGradient id="paint0_linear" x1="375.116" y1="42.938" x2="107.716" y2="42.938" gradientUnits="userSpaceOnUse"><stop stop-color="#008DD2"/><stop offset="1" stop-color="#003C5F"/></linearGradient></defs></svg>