<svg width="676" height="193" fill="none" xmlns="http://www.w3.org/2000/svg"><path d="M581.865 187.862c1.577 0 3.032-1.334 3.153-2.91v-.485c.121-1.818-1.213-3.273-2.91-3.516l-155.803-12.488c3.395-.728 6.669-1.455 9.942-2.304 17.703-4.365 33.465-11.034 44.862-15.762 6.184-2.546 11.155-4.608 14.065-5.335.848-.243 1.455-.728 1.818-1.334.364-.485.485-1.091.485-1.697 0-.607-.121-1.092-.363-1.698-.364-.606-.97-1.212-1.819-1.455l-5.214-1.576c25.22-9.336 45.71-16.005 60.503-20.491h.97c2.303-.121 4.486-.121 6.426-.242 4.971 0 11.033-.121 17.217-.364 9.821-.485 20.248-1.334 28.857-2.789 1.212-.242 1.94-1.333 1.818-2.546-.121-.727-.606-1.455-1.333-1.697-5.578-2.304-17.339-4.244-29.221-5.214-1.091-.121-2.304-.121-3.395-.242-7.275-2.304-18.793-8.245-13.095-21.582 1.94-4.608 7.882-18.309 14.429-32.98l15.156-33.949c.121-.242.242-.485.242-.849 3.031-6.79 4.971-11.276 4.971-11.276.485-1.09 0-2.425-1.091-2.91-.364-.12-.727-.242-1.091-.12l-28.008 2.06c-5.456.364-10.67 1.82-15.52 4.002-5.456 2.425-10.427 5.82-14.913 9.82-17.702 15.399-31.282 27.645-42.194 37.466-42.922 38.678-45.225 40.739-82.085 40.86-27.28 0-70.808.121-116.276.243-54.319.121-111.547.242-147.8.242h-7.639c-30.069-.242-77.234-.485-94.451 24.007l-13.701 5.093c-4.123 1.576-7.76 5.456-9.7 10.427-1.212 3.274-1.697 7.153-.849 11.033.849 3.88 3.031 7.76 6.911 11.276 7.396 6.79 21.219 12.125 44.862 13.095h135.191c.363 2.183 1.454 4.244 3.031 5.699 1.94 2.061 4.728 3.273 7.759 3.273h9.943c.363 2.304 1.334 4.244 2.91 5.82 1.818 1.819 4.365 3.031 7.153 3.031 2.789 0 5.335-1.091 7.154-3.031 1.576-1.576 2.546-3.516 2.91-5.82h2.667c.364 2.304 1.334 4.244 2.91 5.82 1.819 1.819 4.365 3.031 7.154 3.031 2.788 0 5.335-1.091 7.153-3.031 1.577-1.576 2.547-3.516 2.91-5.82h2.668c.363 2.304 1.333 4.244 2.91 5.82 1.818 1.819 4.365 3.031 7.153 3.031 2.789 0 5.335-1.091 7.154-3.031 1.576-1.576 2.546-3.516 2.91-5.82h2.667c.364 2.304 1.334 4.244 2.91 5.82 1.819 1.819 4.365 3.031 7.154 3.031 2.788 0 5.335-1.091 7.153-3.031 1.576-1.576 2.546-3.516 2.91-5.82h7.518c3.031 0 5.698-1.212 7.759-3.152 1.577-1.576 2.668-3.516 3.032-5.82 3.516.121 11.154.243 20.975 0a18.545 18.545 0 00-.363 3.637v2.183h2.182c.121 0 18.793-.121 42.073-2.91l184.417 14.792c-.364.485-.243.485-.243.485zm79.417.243c-1.212 0-2.182.97-2.182 2.182 0 1.213.97 2.183 2.182 2.183h11.64c1.213 0 2.182-.97 2.182-2.183a2.173 2.173 0 00-2.182-2.182h-11.64zm-46.801 0c-1.213 0-2.183.97-2.183 2.182 0 1.213.97 2.183 2.183 2.183h37.465c1.213 0 2.183-.97 2.183-2.183 0-1.212-.97-2.182-2.183-2.182h-37.465zm-612.299 0c-1.212 0-2.182.97-2.182 2.182 0 1.213.97 2.183 2.182 2.183h602.72c1.213 0 2.183-.97 2.183-2.183 0-1.212-.97-2.182-2.183-2.182H121.975c2.061-.122 3.879-1.092 5.334-2.425 1.577-1.576 2.425-3.638 2.425-5.941 0-2.304-.97-4.487-2.425-5.941-1.576-1.577-3.637-2.425-5.941-2.425-2.303 0-4.486.97-5.941 2.425l-.121.121c-1.455 1.576-2.304 3.516-2.304 5.82 0 2.303.97 4.365 2.425 5.941 1.334 1.333 3.274 2.303 5.335 2.425H2.182zM549.13 38.001h4.243c1.213 0 2.183-.97 2.183-2.183 0-1.212-.97-2.182-2.183-2.182h-1.697l7.396-12.246c.727-1.091 1.576-2.062 2.667-2.668 1.092-.606 2.304-.97 3.638-1.09l17.338-.85c-3.759 8.366-8.487 19.157-13.095 29.585l-16.853 37.829h-29.584c-.243 0-.364 0-.607-.121-.121-.122-.363-.243-.363-.364-.122-.121-.121-.364-.121-.606 0-.122-.001-.364.121-.607l8.366-13.822h4.85c1.212 0 2.182-.97 2.182-2.182 0-1.213-.97-2.183-2.182-2.183h-2.183l15.884-26.31zm35.646-25.584l-19.521.85c-2.061.12-4.001.727-5.577 1.697a11.208 11.208 0 00-4.122 4.122l-36.859 61.109a5.633 5.633 0 00-.728 2.788c0 .97.243 1.94.728 2.668.485.849 1.091 1.576 1.94 2.061.848.485 1.697.727 2.788.727h29.463c-.363 6.912 3.395 11.64 8.003 14.793h-.485l-4.123-.485h-.242l-80.266-2.425c-8.73-.364-14.671 1.212-17.581 3.273-1.455 1.092-2.303 2.425-2.425 3.88-.121 1.455.485 2.91 1.94 4.123 2.425 2.182 7.881 3.88 16.611 4.122 1.091 0 2.546.121 4.486.121 10.912.364 33.707 1.213 56.744 1.092-14.065 4.486-31.524 10.427-51.773 18.065l-13.822-4.365h-.364c-.97 0-1.818.122-2.788.364-.97.243-1.819.606-2.668.97-4.486 2.304-16.247 8.124-33.343 13.459-17.096 5.335-39.526 10.306-65.352 10.912-3.395.121-6.426 2.425-8.73 5.577-.727 1.091-1.455 2.304-1.94 3.638-12.973.242-22.673 0-24.128 0h-.242c-1.213 0-2.183.97-2.183 2.182v.243c0 1.818-.727 3.516-1.94 4.607-1.212 1.213-2.788 1.94-4.607 1.94H216.062c-1.818 0-3.394-.727-4.607-1.94-1.212-1.212-1.94-2.91-1.94-4.85v.121c0-1.212-.97-2.182-2.182-2.182H70.323c-22.43-.849-35.404-5.82-42.072-12.004-3.153-2.91-4.85-5.941-5.578-9.093-.727-3.031-.364-5.941.606-8.609 1.455-3.758 4.123-6.789 7.154-7.881l9.578-3.637h30.07c1.455 0 2.788-.728 3.637-1.819.849-.97 1.334-2.304 1.334-3.759v-4.486c0-.97-.364-1.818-.849-2.425-.606-.727-1.455-1.212-2.546-1.212h-13.7c20.732-12.125 55.409-11.882 79.052-11.761h8.366l-.121.121c-.727 1.213-1.212 2.425-1.455 3.759-.242 1.334-.121 2.789.243 4.122.97 3.395 4.001 6.305 9.214 7.033 23.159 3.273 45.468 6.911 67.171 11.033-1.455 1.819-2.425 4.122-2.425 6.547v15.641c0 2.91 1.213 5.456 3.032 7.275 1.818 1.819 4.486 3.031 7.274 3.031h85.237c1.698 0 3.274.243 4.729.728a15.684 15.684 0 014.244 2.182l3.152 2.304c.97.727 2.304.485 3.031-.485.728-.97.485-2.304-.485-3.031l-3.152-2.304c-1.698-1.212-3.516-2.182-5.456-2.789-1.94-.606-3.88-.97-6.063-.97h-39.648c.97-.97 1.698-1.94 2.425-3.152l12.61-2.182c1.091-.122 1.819-1.092 1.819-2.183v-5.092c7.032 1.818 13.943 3.637 20.976 5.577 1.94 1.334 4.971 2.304 9.214 2.546 7.639.607 25.22.122 44.498-1.455 15.156-1.212 31.282-3.152 44.498-5.698 1.212-.243 1.94-1.334 1.697-2.546-.121-.97-.97-1.577-1.818-1.698-7.76-1.455-21.582-3.031-36.496-4.001l-89.965-34.798h8.972c45.468-.121 88.874-.243 116.276-.243 38.435 0 40.86-2.303 84.873-41.951 11.034-9.942 24.735-22.31 42.073-37.465 4.244-3.76 8.972-6.912 13.943-9.215 4.365-2.061 9.094-3.274 14.065-3.638l24.492-1.818-3.274 8.244zm-178.112 91.178h-6.79c-1.333 0-2.546.607-3.516 1.455a4.93 4.93 0 00-1.455 3.516v13.701c0 1.334.606 2.547 1.455 3.517l.121.121c.849.849 2.062 1.334 3.274 1.334h6.79c1.334 0 2.546-.607 3.516-1.455.849-.849 1.455-2.062 1.455-3.395v-13.701c0-1.334-.606-2.546-1.455-3.516-.849-.97-2.061-1.577-3.395-1.577zm-6.79 4.365h6.79c.121 0 .243 0 .364.122.121.121.121.242.121.363v13.701c0 .121 0 .243-.121.364s-.243.121-.364.121h-6.79c-.121 0-.242 0-.363-.121-.122-.121-.122-.243-.122-.364v-13.701c0-.121.122-.242.122-.363 0 0 .121-.122.363-.122zm-277.05 20.612h-8.002a5.32 5.32 0 00-3.759 1.577 5.316 5.316 0 00-1.576 3.758v15.883a5.32 5.32 0 001.576 3.759 5.32 5.32 0 003.759 1.576h8.002a5.32 5.32 0 003.759-1.576l.121-.121c.849-.97 1.455-2.183 1.455-3.638v-15.883a5.316 5.316 0 00-1.576-3.758 5.32 5.32 0 00-3.759-1.577zm-8.002 4.365h8.002c.243 0 .485.121.728.243.242.121.242.485.242.727v15.883a.93.93 0 01-.242.607l-.121.121c-.243.243-.485.243-.728.243H114.7c-.243 0-.485-.122-.728-.243-.242-.121-.242-.485-.242-.728v-15.883c0-.242.121-.485.242-.727.364-.122.607-.243.849-.243zm424.729-26.189c-.121.242-.364.363-.485.606a4.214 4.214 0 00-.727 2.91c.121.849.363 1.819.97 2.546-24.25.243-48.984-.606-60.503-1.091-1.818-.121-3.273-.121-4.486-.121-7.639-.243-12.125-1.577-13.943-3.153l-.485-.485c0-.121.242-.364.606-.727 2.182-1.576 7.153-2.789 14.792-2.425l64.261 1.94zm35.404 1.697c6.184.485 12.367 1.213 17.581 2.183-5.698.606-11.64.97-17.338 1.212-12.246.606-23.28.364-28.008-.121-2.425-.243-3.759-.849-4.365-1.576-.121-.122-.121-.243-.121-.243 0-.121 0-.121.121-.242.364-.485.97-.849 2.061-1.092 5.214-1.212 17.702-1.212 30.069-.121zm-266.38 32.979c-24.371-6.668-48.62-12.488-73.476-17.459-26.31-5.335-53.106-9.821-81.357-13.822-3.273-.485-5.092-2.062-5.698-4.001-.243-.728-.243-1.455-.121-2.183.121-.727.363-1.455.727-2.061.97-1.576 2.789-2.546 5.335-2.183 30.918 4.729 59.411 10.67 85.964 17.218 24.977 6.304 48.257 13.215 70.202 20.733-.242.364-.606.727-.727.97a8.197 8.197 0 00-.849 2.788zm6.547-6.668c-23.158-8.002-47.65-15.399-73.96-22.067a1018.147 1018.147 0 00-61.958-13.337c27.402 0 59.775-.122 92.269-.243l6.79 2.668h-12.124c-.849 0-1.698.485-2.062 1.333-.485 1.092.122 2.425 1.213 2.789l56.744 21.946c.606.242 1.212.485 1.94.485.606.121 1.333.121 1.94.121h21.46l11.64 4.486c-1.091 0-2.304-.121-3.395-.121-16.611-.606-32.13-.364-39.648 1.455-.242.242-.485.364-.849.485zm40.376 2.546c13.822.485 28.493 1.698 39.769 3.031-9.7 1.455-20.248 2.546-30.312 3.274-19.036 1.576-36.374 1.94-43.891 1.455-4.123-.243-6.548-1.213-7.639-2.304-.364-.364-.485-.606-.485-.849 0-.242 0-.606.243-.848.606-.97 1.939-1.819 3.879-2.304 7.154-1.819 22.189-2.061 38.436-1.455zm-129.371-10.67c2.789.485 5.456 1.092 8.245 1.698l.97.242v25.341h-6.79c-1.698 0-3.153-.728-4.244-1.698-1.091-1.091-1.697-2.546-1.697-4.243v-15.641c0-1.698.727-3.152 1.697-4.244.485-.727 1.091-1.212 1.819-1.455zm13.58 2.668c4.728.97 9.457 1.94 14.186 3.031v21.461h-14.186V129.3zm18.429 4.001c5.214 1.212 10.549 2.425 15.762 3.637v6.184c0 2.91-1.212 5.577-3.031 7.396-1.94 1.94-4.486 3.031-7.396 3.031h-5.213l-.122-20.248zm20.127 4.729c2.668.606 5.335 1.333 8.124 2.061v4.486l-8.366 1.455c.121-.849.242-1.819.242-2.668v-5.334zm11.276-31.888l46.802 18.065h-10.306c-.364 0-.849 0-1.213-.121-.363-.121-.727-.121-1.091-.364l-45.953-17.702 11.761.122zm8.851 72.99h11.276c-.242 1.092-.848 1.94-1.576 2.668a5.773 5.773 0 01-4.122 1.697 5.777 5.777 0 01-4.123-1.697c-.606-.728-1.212-1.576-1.455-2.668zm-68.141 0h11.276c-.242 1.092-.848 1.94-1.576 2.668a5.773 5.773 0 01-4.122 1.697 5.777 5.777 0 01-4.123-1.697c-.606-.728-1.212-1.576-1.455-2.668zm22.795 0h11.155c-.243 1.092-.849 1.94-1.577 2.668a5.773 5.773 0 01-4.122 1.697 5.773 5.773 0 01-4.122-1.697c-.607-.728-1.092-1.576-1.334-2.668zm22.673 0h11.276c-.242 1.092-.849 1.94-1.576 2.668a5.774 5.774 0 01-4.123 1.697 5.773 5.773 0 01-4.122-1.697 5.248 5.248 0 01-1.455-2.668zm193.389-43.891l21.461 6.79c-3.031 1.091-6.668 2.667-11.033 4.486-11.276 4.729-26.917 11.155-44.256 15.52-31.645 7.881-68.383 9.336-77.962 9.578.364-2.304 1.455-4.729 2.789-6.79 1.455-2.182 3.274-3.637 5.214-3.758 26.189-.607 49.105-5.578 66.565-11.034 17.459-5.456 29.463-11.397 34.07-13.822.606-.243 1.091-.485 1.697-.606.485-.243.97-.364 1.455-.364zm-192.419 14.913c0-.121.121-.121.121-.242-.121 0-.121.121-.121.242zM51.651 115.478h18.915v3.758c0 .364-.121.728-.364.97-.121.121-.242.243-.364.243H46.801c1.455-1.819 3.032-3.516 4.85-4.971zm66.807 67.049c-.727-.727-1.212-1.697-1.212-2.91 0-1.091.364-2.061 1.091-2.788l.121-.122c.728-.727 1.698-1.212 2.91-1.212 1.092 0 2.183.485 2.91 1.212.728.728 1.213 1.698 1.213 2.91 0 1.092-.485 2.183-1.213 2.91-.727.728-1.697 1.213-2.91 1.213-1.212 0-2.182-.485-2.91-1.213z" fill="#374148"/><path d="M484.261 137.787l29.221 2.062c1.091.121 1.94 1.091 1.819 2.182l-2.304 32.373c-.121 1.091-1.091 1.94-2.182 1.819l-32.373-2.304c-1.092-.121-1.94-1.091-1.819-2.182l1.576-22.431a106.776 106.776 0 005.092-2.183l-1.576 22.431h.121l22.916 1.698 1.455.121h.121c1.092 0 1.94-.849 2.062-1.94l1.576-21.946.121-1.455c.121-1.091-.727-2.061-1.819-2.182l-1.455-.122-12.246-.848h.122c.97-.243.97-1.577 0-1.94l-10.428-3.153zm6.305 8.366l15.156 1.092c.485 0 .728.363.728.848l-1.213 16.369c0 .727-.97 1.091-1.455.485l-14.064-17.46c-.243-.485.121-1.334.848-1.334zm-2.303 5.578l11.639 14.428c.607.728 0 1.698-.848 1.698l-12.61-.849c-.606 0-.97-.485-.97-1.091l.97-13.58c0-.606.485-.97 1.091-.97.121 0 .485.121.728.364zm40.981 2.303l13.701 1.092c2.546.242 4.486 2.425 4.244 4.971l-1.092 13.701c-.242 2.546-2.424 4.486-4.971 4.243l-13.701-1.091c-2.546-.242-4.486-2.425-4.243-4.971l1.091-13.701c.242-2.425 2.182-4.244 4.607-4.244.122-.121.243-.121.364 0zm-24.128 14.308h-.121.121z" fill="url(#paint0_linear)"/><defs><linearGradient id="paint0_linear" x1="547.211" y1="157.961" x2="476.6" y2="157.961" gradientUnits="userSpaceOnUse"><stop stop-color="#008DD2"/><stop offset="1" stop-color="#003C5F"/></linearGradient></defs></svg>