<svg width="443" height="132" fill="none" xmlns="http://www.w3.org/2000/svg"><path d="M197.959 91.864l7.639 11.397c.364.606 1.091.97 1.819.97h50.317l5.093 6.911c.485.606 1.091.849 1.697.849h4.365c1.455 0 2.789-.485 4.001-1.213 1.213-.727 2.061-1.94 2.668-3.273.363-.728.727-1.455 1.212-2.062.485-.727.97-1.333 1.455-1.939a15.094 15.094 0 015.092-3.638c1.94-.849 4.002-1.334 6.184-1.334 2.182 0 4.244.485 6.184 1.334a15.595 15.595 0 015.092 3.638c.606.606 1.091 1.212 1.455 1.939.485.728.849 1.455 1.212 2.183.607 1.334 1.455 2.425 2.668 3.152 1.091.728 2.425 1.213 3.88 1.213h.121c1.455 0 2.789-.485 4.001-1.213 1.091-.727 2.061-1.94 2.668-3.273.363-.728.727-1.455 1.091-2.062.364-.606.849-1.333 1.455-1.939 1.455-1.698 3.152-3.032 5.213-4.002a16.031 16.031 0 016.427-1.333c2.303 0 4.486.485 6.426 1.333 2.061.97 3.758 2.304 5.213 4.002.485.606 1.092 1.333 1.455 2.061a9.158 9.158 0 011.091 2.182c.485 1.213 1.334 2.304 2.425 3.031 1.092.728 2.304 1.213 3.759 1.213h3.638c.848 0 1.576-.485 1.939-1.213l4.002-6.547h32.979c1.212 0 2.182-.97 2.182-2.182V90.651c0-1.212-.97-2.182-2.182-2.182h-58.32v-5.214c0-1.212-.97-2.182-2.182-2.182h-14.186c-1.213 0-2.183.97-2.183 2.182v5.214h-92.148v-5.214c0-1.212-.97-2.182-2.182-2.182h-13.58c-1.212 0-2.182.97-2.182 2.182v5.214h-7.275c-1.213 0-2.183.97-2.183 2.182.122.485.243.849.485 1.213zm231.219 35.768c-1.213 0-2.183.97-2.183 2.182 0 1.213.97 2.183 2.183 2.183h11.64c1.212 0 2.182-.97 2.182-2.183 0-1.212-.97-2.182-2.182-2.182h-11.64zm-51.045 0c-1.213 0-2.183.97-2.183 2.182 0 1.213.97 2.183 2.183 2.183h41.83c1.213 0 2.182-.97 2.182-2.183a2.173 2.173 0 00-2.182-2.182h-41.83zm-375.745 0c-1.213 0-2.183.97-2.183 2.182 0 1.213.97 2.183 2.183 2.183h366.166c1.213 0 2.183-.97 2.183-2.183 0-1.212-.97-2.182-2.183-2.182H171.406c3.88 0 7.518-1.576 10.064-4.123 2.546-2.546 4.122-6.183 4.122-10.063 0-3.88-1.576-7.518-4.122-10.064-2.546-2.546-6.184-4.122-10.064-4.122s-7.517 1.576-10.063 4.122c-2.546 2.546-4.123 6.184-4.123 10.064s1.577 7.517 4.123 10.063c2.546 2.547 6.183 4.123 10.063 4.123H74.651c3.88 0 7.517-1.576 10.064-4.123 2.546-2.546 4.122-6.183 4.122-10.063 0-3.88-1.576-7.518-4.123-10.064-2.546-2.546-6.183-4.122-10.063-4.122-3.88 0-7.517 1.576-10.064 4.122-2.546 2.546-4.122 6.184-4.122 10.064s1.576 7.517 4.122 10.063c2.547 2.547 6.184 4.123 10.064 4.123H2.388zm320.577-14.307c0 2.061.849 4.001 2.304 5.456 1.455 1.455 3.274 2.303 5.456 2.303 2.183 0 4.001-.848 5.456-2.303l.121-.122c1.334-1.333 2.183-3.273 2.183-5.334 0-2.183-.849-4.002-2.304-5.457l-.121-.121c-1.334-1.334-3.274-2.182-5.335-2.182-2.182 0-4.001.848-5.456 2.303-1.455 1.334-2.304 3.274-2.304 5.457zm5.335 2.303c-.606-.606-.97-1.455-.97-2.425 0-.97.364-1.818.97-2.425.606-.606 1.455-.97 2.425-.97.849 0 1.698.364 2.304.849l.121.121c.606.607.97 1.455.97 2.425 0 .849-.364 1.698-.849 2.304l-.121.121c-.606.606-1.455.97-2.425.97-.97 0-1.819-.364-2.425-.97zm-11.882-2.182c0 3.88 1.576 7.517 4.122 10.063 2.547 2.547 6.184 4.123 10.064 4.123s7.517-1.576 10.063-4.123c2.547-2.546 4.123-6.183 4.123-10.063 0-3.88-1.576-7.518-4.123-10.064-2.546-2.546-6.183-4.122-10.063-4.122-3.88 0-7.517 1.576-10.064 4.122-2.546 2.546-4.122 6.063-4.122 10.064zm7.153 6.911c-1.818-1.819-2.909-4.244-2.909-7.032 0-2.668 1.091-5.214 2.909-7.033a9.793 9.793 0 017.033-2.91c2.667 0 5.213 1.091 7.032 2.91a9.793 9.793 0 012.91 7.033c0 2.667-1.091 5.213-2.91 7.032-1.819 1.819-4.243 2.91-7.032 2.91a9.793 9.793 0 01-7.033-2.91zm-41.587-7.032c0 2.061.848 4.001 2.303 5.456 1.334 1.333 3.274 2.303 5.457 2.303 2.061 0 4.001-.848 5.456-2.303 1.333-1.334 2.303-3.274 2.303-5.456 0-2.183-.848-4.002-2.303-5.457-1.334-1.333-3.274-2.303-5.456-2.303-2.062 0-4.002.848-5.457 2.303-1.455 1.334-2.303 3.274-2.303 5.457zm5.335 2.303c-.607-.606-.97-1.455-.97-2.425 0-.97.363-1.818.97-2.425.606-.606 1.455-.97 2.425-.97.969 0 1.818.364 2.424.97.607.607.97 1.455.97 2.425 0 .97-.363 1.819-.97 2.425-.606.606-1.455.97-2.424.97-.97 0-1.819-.364-2.425-.97zm-11.883-2.182c0 3.88 1.577 7.517 4.123 10.063 2.546 2.547 6.183 4.123 10.063 4.123 3.88 0 7.518-1.576 10.064-4.123 2.546-2.546 4.122-6.183 4.122-10.063 0-3.88-1.576-7.518-4.122-10.064-2.546-2.546-6.184-4.122-10.064-4.122s-7.517 1.576-10.063 4.122c-2.546 2.546-4.123 6.063-4.123 10.064zm7.154 6.911c-1.819-1.819-2.91-4.244-2.91-7.032 0-2.668 1.091-5.214 2.91-7.033 1.819-1.819 4.244-2.91 7.032-2.91 2.668 0 5.214 1.091 7.033 2.91 1.818 1.819 2.91 4.244 2.91 7.033 0 2.667-1.092 5.213-2.91 7.032a9.793 9.793 0 01-7.033 2.91 10.004 10.004 0 01-7.032-2.91zm-215.578-7.032c0 2.061.85 4.001 2.304 5.456 1.334 1.333 3.274 2.303 5.456 2.303 2.183 0 4.001-.848 5.456-2.303 1.334-1.334 2.304-3.274 2.304-5.456 0-2.183-.849-4.002-2.304-5.457l-.12-.121c-1.335-1.334-3.275-2.182-5.336-2.182-2.061 0-4.001.848-5.456 2.303s-2.304 3.395-2.304 5.457zm5.335 2.424c-.606-.606-.97-1.455-.97-2.424 0-.97.364-1.819.97-2.425.607-.607 1.455-.97 2.425-.97.849 0 1.698.363 2.304.848l.121.122c.606.606.97 1.455.97 2.425 0 .969-.364 1.818-.97 2.424-.606.607-1.455.97-2.425.97-.97 0-1.819-.363-2.425-.97zm-4.728 4.729a9.789 9.789 0 01-2.91-7.032 9.79 9.79 0 012.91-7.033 9.795 9.795 0 017.032-2.909c2.667 0 5.214 1.091 7.032 2.909a9.793 9.793 0 012.91 7.033c0 2.788-1.091 5.213-2.91 7.032a9.792 9.792 0 01-7.032 2.91c-2.789 0-5.214-1.212-7.032-2.91zm96.149-7.153c0 2.061.848 4.001 2.303 5.456 1.334 1.333 3.274 2.303 5.456 2.303 2.183 0 4.002-.848 5.457-2.303 1.333-1.334 2.303-3.274 2.303-5.456 0-2.183-.848-4.002-2.303-5.457l-.122-.121c-1.333-1.334-3.273-2.182-5.335-2.182-2.061 0-4.001.848-5.456 2.303s-2.303 3.395-2.303 5.457zm5.335 2.424c-.607-.606-.97-1.455-.97-2.424 0-.97.363-1.819.97-2.425.606-.607 1.454-.97 2.424-.97.849 0 1.698.363 2.304.848l.121.122c.607.606.97 1.455.97 2.425 0 .969-.363 1.818-.97 2.424-.606.607-1.455.97-2.425.97-1.091 0-1.818-.363-2.424-.97zm-4.729 4.729c-1.819-1.819-2.91-4.244-2.91-7.032a9.793 9.793 0 012.91-7.033c1.819-1.818 4.244-2.909 7.032-2.909 2.668 0 5.214 1.091 7.033 2.909a9.797 9.797 0 012.909 7.033c0 2.788-1.091 5.213-2.909 7.032a9.793 9.793 0 01-7.033 2.91c-2.788 0-5.213-1.212-7.032-2.91zm9.821-32.737v-5.213h-14.671v5.213h-47.286l-.97-62.563c0-1.455-.607-2.668-1.577-3.638-.97-.97-2.182-1.455-3.637-1.455h-.121l-32.252 2.547c-9.457.727-17.58 4.97-23.643 11.276-6.184 6.426-10.185 15.034-11.034 24.613v.242l-2.303 52.015v.485c0 2.668 1.09 4.971 2.788 6.79 1.698 1.819 4.001 2.91 6.669 3.031h10.548c1.213 0 2.183-.97 2.183-2.182v-7.032c.121-4.487 1.94-8.609 4.97-11.64a15.854 15.854 0 0111.398-4.85h.243c4.486.121 8.487 1.94 11.276 4.85 2.91 2.91 4.607 6.911 4.607 11.397v7.154c0 1.212.97 2.182 2.183 2.182h58.926c1.212 0 2.182-.97 2.182-2.182v-4.123c.121-4.486 1.94-8.608 4.971-11.639a15.853 15.853 0 0111.397-4.85h.243c4.486.12 8.487 1.94 11.276 4.85 2.91 2.909 4.607 6.911 4.607 11.397v1.212a5.32 5.32 0 001.577 3.759 5.318 5.318 0 003.758 1.576h2.425c1.213 0 2.183-.97 2.183-2.182V98.654c0-3.031-1.213-5.82-3.274-7.881-2.061-2.062-4.729-3.274-7.881-3.274l-11.761.242zM70.65 65.068v-21.34c0-1.212-.97-2.182-2.183-2.182h-8.972c-2.91 0-5.699 1.091-7.881 2.789-2.182 1.819-3.759 4.243-4.365 7.153l-2.182 10.549a2.368 2.368 0 00-.122.849c0 .97.364 1.94.97 2.667.607.728 1.455 1.334 2.425 1.455.364.121.606.121.849.121h19.036c1.455.122 2.425-.848 2.425-2.06zm-4.365-19.157v16.975H49.432c.727-3.517 1.333-7.033 2.182-10.549.364-1.819 1.455-3.516 2.789-4.607 1.455-1.091 3.152-1.819 5.092-1.819h6.79zM49.432 62.886c0 .121 0 .121 0 0zM46.4 116.719h-.242c-1.455-.121-2.789-.727-3.759-1.697a5.32 5.32 0 01-1.576-3.759v-.242l2.304-52.015a36.665 36.665 0 019.82-22.067c5.336-5.578 12.61-9.215 20.855-9.942l32.009-2.668a.93.93 0 01.607.242.927.927 0 01.242.607l1.091 64.746c0 1.212.97 2.182 2.183 2.182h75.901c1.818 0 3.516.728 4.728 1.94a6.691 6.691 0 011.94 4.729v17.944h-.121a.925.925 0 01-.606-.242.923.923 0 01-.243-.606v-1.213c0-5.577-2.303-10.67-5.941-14.428-3.637-3.759-8.73-6.063-14.307-6.184h-.364c-5.698 0-10.791 2.425-14.549 6.184-3.759 3.758-6.063 8.972-6.184 14.549v1.94H95.627v-4.971c0-5.577-2.304-10.669-5.941-14.428-3.638-3.759-8.73-6.063-14.308-6.184h-.363c-5.699 0-10.791 2.425-14.55 6.184-3.759 3.759-6.062 8.972-6.184 14.55v4.849h-7.88zm162.108-16.853l-4.729-7.032h5.335c1.213 0 2.183-.97 2.183-2.183v-5.213h9.336v5.213c0 1.213.97 2.183 2.182 2.183h96.513c1.212 0 2.182-.97 2.182-2.183v-5.213h9.821v5.213c0 1.213.97 2.183 2.183 2.183h58.198v7.032h-32.251c-.728 0-1.455.364-1.819 1.091l-4.122 6.669h-2.425c-.485 0-.849-.121-1.213-.364-.364-.242-.727-.606-.849-1.091-.363-1.091-.848-1.94-1.455-2.91a21.304 21.304 0 00-1.94-2.667c-1.818-2.183-4.122-3.88-6.668-5.093-2.546-1.212-5.335-1.819-8.245-1.819-2.91 0-5.699.607-8.245 1.82-2.546 1.212-4.85 2.91-6.668 5.092-.607.727-1.213 1.576-1.819 2.425-.485.848-.97 1.818-1.455 2.667-.242.606-.606.97-1.091 1.334-.485.242-.97.485-1.455.485h-.121c-.607 0-1.092-.122-1.455-.485-.485-.364-.849-.728-1.092-1.334-.363-.97-.97-1.94-1.455-2.789-.606-.848-1.212-1.697-1.94-2.546-1.818-2.061-4.122-3.637-6.547-4.728a19.157 19.157 0 00-7.881-1.698c-2.789 0-5.456.606-7.881 1.698-2.546 1.09-4.729 2.788-6.547 4.728-.728.849-1.334 1.576-1.94 2.425-.607.849-1.092 1.697-1.455 2.667-.243.607-.607 1.092-1.213 1.334-.485.364-.97.485-1.576.485h-3.152l-5.093-6.668c-.364-.607-1.091-.97-1.819-.97l-50.317.242z" fill="#374148"/><path d="M326.482.2c16.853 3.638 39.526 4.366 58.683 1.456 5.456-.849 10.306 3.395 10.306 8.972v65.959a8.952 8.952 0 01-8.972 8.972H122.907a8.952 8.952 0 01-8.972-8.972c0-15.035.121-45.347 0-65.838 0-5.456 4.85-9.7 10.185-8.972 17.217 2.425 43.043 1.94 58.805-1.576a9.797 9.797 0 013.758 0c16.126 3.395 47.287 3.516 65.716 0 1.334-.243 2.668-.121 4.002.121 20.248 5.092 45.467 4.001 66.201-.121.606-.121 1.212-.121 1.818-.121.728-.122 1.455-.122 2.062.12zm-2.062 64.626c1.092 0 1.94-.85 1.94-1.94V11.113c0-1.091-.848-1.94-1.94-1.94-1.091 0-1.94.849-1.94 1.94v51.773c0 1.09.97 1.94 1.94 1.94zm-201.149 10.67c0 1.576 1.213 2.788 2.789 2.788s2.789-1.212 2.789-2.789c0-1.576-1.213-2.788-2.789-2.788s-2.789 1.333-2.789 2.788zm14.429 0c0 1.576 1.212 2.788 2.788 2.788 1.576 0 2.789-1.212 2.789-2.789 0-1.576-1.213-2.788-2.789-2.788s-2.788 1.212-2.788 2.788zm14.792 0c0 1.576 1.212 2.788 2.788 2.788 1.577 0 2.789-1.212 2.789-2.789 0-1.576-1.212-2.788-2.789-2.788-1.455 0-2.788 1.212-2.788 2.788zm14.064 0c0 1.576 1.213 2.788 2.789 2.788s2.789-1.212 2.789-2.789c0-1.576-1.213-2.788-2.789-2.788s-2.789 1.212-2.789 2.788zm14.914 0c0 1.576 1.212 2.788 2.788 2.788 1.577 0 2.789-1.212 2.789-2.789 0-1.576-1.212-2.788-2.789-2.788-1.576 0-2.788 1.212-2.788 2.788zm14.913 0c0 1.576 1.213 2.788 2.789 2.788s2.789-1.212 2.789-2.789c0-1.576-1.213-2.788-2.789-2.788-1.576.12-2.789 1.333-2.789 2.788zm14.792 0c0 1.576 1.213 2.788 2.789 2.788s2.789-1.212 2.789-2.789c0-1.576-1.213-2.788-2.789-2.788-1.455 0-2.789 1.212-2.789 2.788zm14.308 0c0 1.576 1.212 2.788 2.788 2.788 1.576 0 2.789-1.212 2.789-2.789 0-1.576-1.213-2.788-2.789-2.788s-2.788 1.333-2.788 2.788zm15.883 0c0 1.576 1.212 2.788 2.789 2.788 1.576 0 2.788-1.212 2.788-2.789 0-1.576-1.212-2.788-2.788-2.788-1.577.12-2.789 1.333-2.789 2.788zm15.277 0c0 1.576 1.213 2.788 2.789 2.788s2.788-1.212 2.788-2.789c0-1.576-1.212-2.788-2.788-2.788-1.576.12-2.789 1.333-2.789 2.788zm16.126.12c0 1.577 1.212 2.79 2.789 2.79 1.576 0 2.788-1.213 2.788-2.79 0-1.576-1.212-2.788-2.788-2.788-1.577.121-2.789 1.334-2.789 2.789zm16.126 0c0 1.577 1.212 2.79 2.789 2.79 1.576 0 2.788-1.213 2.788-2.79 0-1.576-1.212-2.788-2.788-2.788-1.455.121-2.789 1.334-2.789 2.789zm16.368.122c0 1.576 1.213 2.789 2.789 2.789s2.789-1.213 2.789-2.79c0-1.575-1.213-2.788-2.789-2.788-1.576.121-2.789 1.334-2.789 2.789zm16.126 0c0 1.576 1.213 2.789 2.789 2.789s2.789-1.213 2.789-2.79c0-1.575-1.213-2.788-2.789-2.788-1.576.121-2.789 1.334-2.789 2.789zm15.52-.243c0 1.577 1.212 2.79 2.788 2.79 1.577 0 2.789-1.213 2.789-2.79 0-1.576-1.212-2.788-2.789-2.788-1.576 0-2.788 1.333-2.788 2.788zm14.913.122c0 1.576 1.213 2.788 2.789 2.788s2.789-1.212 2.789-2.788c0-1.577-1.213-2.789-2.789-2.789-1.576.121-2.789 1.334-2.789 2.789zm14.671-.122c0 1.577 1.213 2.79 2.789 2.79s2.788-1.213 2.788-2.79c0-1.576-1.212-2.788-2.788-2.788-1.576.12-2.789 1.333-2.789 2.788zm13.944 0c0 1.577 1.212 2.79 2.788 2.79 1.576 0 2.789-1.213 2.789-2.79 0-1.576-1.213-2.788-2.789-2.788-1.576.12-2.788 1.333-2.788 2.788zM185.35 64.825c1.091 0 1.94-.848 1.94-1.94V11.114c0-1.091-.849-1.94-1.94-1.94s-1.94.849-1.94 1.94v51.773c0 1.09.849 1.94 1.94 1.94zm69.111 0c1.091 0 1.94-.848 1.94-1.94V11.114c0-1.091-.849-1.94-1.94-1.94-1.092 0-1.94.849-1.94 1.94v51.773c0 1.09.848 1.94 1.94 1.94zm66.443 20.734h-96.513 96.513z" fill="url(#paint0_linear)"/><defs><linearGradient id="paint0_linear" x1="395.478" y1="42.857" x2="113.889" y2="42.857" gradientUnits="userSpaceOnUse"><stop stop-color="#008DD2"/><stop offset="1" stop-color="#003C5F"/></linearGradient></defs></svg>