<svg width="443" height="133" fill="none" xmlns="http://www.w3.org/2000/svg"><path d="M245.003 91.905l-7.638 11.398c-.364.606-1.092.97-1.819.97h-50.318l-5.213 6.911c-.485.606-1.092.848-1.698.848h-4.243c-1.455 0-2.789-.484-4.002-1.212-1.212-.727-2.061-1.94-2.667-3.274-.364-.727-.727-1.455-1.091-2.061-.485-.727-.97-1.334-1.455-1.94a15.113 15.113 0 00-5.093-3.637c-1.94-.849-4.001-1.334-6.183-1.334-2.183 0-4.244.485-6.184 1.334a15.597 15.597 0 00-5.092 3.637l-.121.121-1.455 1.819c-.485.728-.849 1.455-1.213 2.183-.606 1.333-1.455 2.425-2.667 3.152-1.092.728-2.425 1.212-3.88 1.212h-.121c-1.455 0-2.789-.484-4.002-1.212l-.121-.121c-1.091-.728-1.94-1.94-2.546-3.153-.364-.727-.728-1.455-1.091-2.061-.364-.606-.849-1.334-1.455-1.94-1.455-1.697-3.153-3.031-5.214-4.001a16.028 16.028 0 00-6.426-1.334c-2.304 0-4.486.485-6.426 1.334-2.061.97-3.759 2.304-5.214 4.001-.485.606-1.09 1.334-1.455 2.061-.485.728-.848 1.455-1.09 2.304-.486 1.213-1.335 2.304-2.426 3.031-1.091.728-2.303 1.213-3.758 1.213h-3.638a2.16 2.16 0 01-1.94-1.213l-4.001-6.547H49.189a2.174 2.174 0 01-2.182-2.183V90.814c0-1.212.97-2.182 2.182-2.182h58.32v-5.214c0-1.212.97-2.182 2.182-2.182h14.186c1.213 0 2.183.97 2.183 2.182v5.214h92.148v-5.214c0-1.212.97-2.182 2.182-2.182h13.58c1.212 0 2.182.97 2.182 2.182v5.214h7.275c1.212 0 2.182.97 2.182 2.182-.242.364-.363.728-.606 1.091zm-230.976 35.89c1.213 0 2.183.97 2.183 2.182 0 1.213-.97 2.183-2.183 2.183H2.387a2.174 2.174 0 01-2.182-2.183c0-1.212.97-2.182 2.183-2.182h11.64zm51.045 0c1.213 0 2.183.97 2.183 2.182 0 1.213-.97 2.183-2.183 2.183h-41.83a2.174 2.174 0 01-2.182-2.183c0-1.212.97-2.182 2.182-2.182h41.83zm375.745 0c1.213 0 2.183.97 2.183 2.182 0 1.213-.97 2.183-2.183 2.183H74.651a2.174 2.174 0 01-2.183-2.183c0-1.212.97-2.182 2.183-2.182h198.482c-3.638-.122-6.912-1.698-9.458-4.123-2.546-2.546-4.122-6.183-4.122-10.063 0-3.88 1.576-7.518 4.122-10.064 2.546-2.546 6.184-4.122 10.064-4.122s7.517 1.576 10.063 4.122c2.547 2.546 4.123 6.184 4.123 10.064s-1.576 7.517-4.123 10.063c-2.425 2.425-5.698 4.001-9.457 4.123h95.422c-3.638-.122-6.912-1.698-9.458-4.123-2.546-2.546-4.122-6.183-4.122-10.063 0-3.88 1.576-7.518 4.122-10.064 2.546-2.546 6.184-4.122 10.064-4.122s7.517 1.576 10.063 4.122c2.547 2.546 4.123 6.184 4.123 10.064s-1.576 7.517-4.123 10.063c-2.425 2.425-5.698 4.001-9.457 4.123h69.838zm-320.82-14.429c0 2.061-.848 4.001-2.303 5.456-1.334 1.334-3.274 2.304-5.456 2.304-2.062 0-4.002-.849-5.457-2.304-1.333-1.333-2.303-3.273-2.303-5.456 0-2.061.848-4.001 2.303-5.456s3.274-2.304 5.457-2.304c2.061 0 4.001.849 5.456 2.304 1.455 1.334 2.303 3.274 2.303 5.456zm-5.213 2.304c.606-.606.97-1.455.97-2.425 0-.97-.364-1.819-.97-2.425-.607-.606-1.455-.97-2.425-.97-.97 0-1.819.364-2.425.97-.606.606-.97 1.455-.97 2.425 0 .97.364 1.819.97 2.425.606.606 1.455.97 2.425.97.97 0 1.818-.364 2.425-.97zm11.882-2.304c0 3.88-1.576 7.518-4.122 10.064-2.547 2.546-6.184 4.122-10.064 4.122s-7.517-1.576-10.064-4.122c-2.546-2.546-4.122-6.184-4.122-10.064s1.576-7.517 4.122-10.063c2.547-2.547 6.184-4.123 10.064-4.123s7.517 1.576 10.064 4.123c2.546 2.667 4.122 6.183 4.122 10.063zm-7.275 7.033a9.793 9.793 0 002.91-7.033c0-2.667-1.091-5.213-2.91-7.032-1.819-1.819-4.244-2.91-7.032-2.91a10.005 10.005 0 00-7.033 2.91c-1.818 1.819-2.91 4.244-2.91 7.032 0 2.668 1.092 5.214 2.91 7.033a9.797 9.797 0 007.033 2.909c2.788 0 5.335-1.091 7.032-2.909zm41.588-7.033c0 2.183-.849 4.001-2.304 5.456l-.121.122c-1.334 1.333-3.274 2.182-5.335 2.182s-4.001-.849-5.456-2.304c-1.455-1.455-2.304-3.273-2.304-5.456 0-2.061.849-4.001 2.304-5.456 1.455-1.334 3.274-2.304 5.456-2.304 2.061 0 4.001.849 5.456 2.304 1.455 1.334 2.304 3.274 2.304 5.456zm-5.335 2.304c.606-.606.97-1.455.97-2.425 0-.97-.364-1.819-.97-2.425-.606-.606-1.455-.97-2.425-.97-.97 0-1.819.364-2.425.97-.606.606-.97 1.455-.97 2.425 0 .97.364 1.819.97 2.425.606.606 1.455.97 2.425.97.97 0 1.819-.243 2.425-.97zm12.003-2.304c0 3.88-1.576 7.518-4.122 10.064-2.546 2.546-6.184 4.122-10.063 4.122-3.88 0-7.518-1.576-10.064-4.122-2.546-2.546-4.122-6.184-4.122-10.064s1.576-7.517 4.122-10.063c2.546-2.547 6.184-4.123 10.064-4.123 3.879 0 7.517 1.576 10.063 4.123 2.546 2.667 4.122 6.183 4.122 10.063zm-7.274 7.033c1.818-1.819 2.91-4.244 2.91-7.033 0-2.667-1.092-5.213-2.91-7.032a9.793 9.793 0 00-7.033-2.91c-2.788 0-5.213 1.091-7.032 2.91-1.819 1.819-2.91 4.244-2.91 7.032 0 2.668 1.091 5.214 2.91 7.033 1.819 1.818 4.244 2.909 7.032 2.909a9.797 9.797 0 007.033-2.909zm217.76-6.912c0 2.062-.849 4.002-2.304 5.457-1.334 1.333-3.274 2.303-5.456 2.303-2.061 0-4.001-.848-5.456-2.303s-2.304-3.274-2.304-5.457c0-2.182.849-4.001 2.304-5.456l.121-.121c1.334-1.334 3.274-2.182 5.335-2.182 2.182 0 4.001.848 5.456 2.303s2.304 3.395 2.304 5.456zm-5.335 2.425c.606-.606.97-1.455.97-2.425 0-.97-.364-1.818-.97-2.424-.606-.607-1.455-.97-2.425-.97-.849 0-1.698.363-2.304.848l-.121.122c-.606.606-.97 1.454-.97 2.424s.364 1.819.97 2.425c.606.607 1.455.97 2.425.97.97 0 1.819-.363 2.425-.97zm4.728 4.729c1.819-1.819 2.91-4.244 2.91-7.032 0-2.668-1.091-5.214-2.91-7.033-1.818-1.818-4.243-2.91-7.032-2.91a10.006 10.006 0 00-7.032 2.91 9.793 9.793 0 00-2.91 7.033c0 2.667 1.091 5.213 2.91 7.032a9.79 9.79 0 007.032 2.91c2.789 0 5.214-1.212 7.032-2.91zm-96.027-7.154c0 2.062-.849 4.002-2.304 5.457-1.334 1.333-3.274 2.303-5.456 2.303-2.183 0-4.001-.848-5.456-2.303l-.122-.122c-1.333-1.333-2.182-3.273-2.182-5.335 0-2.061.849-4.001 2.304-5.456 1.333-1.333 3.273-2.303 5.456-2.303 2.182 0 4.001.848 5.456 2.303s2.304 3.395 2.304 5.456zm-5.335 2.425c.606-.606.97-1.455.97-2.425 0-.97-.364-1.818-.97-2.424-.606-.607-1.455-.97-2.425-.97-.97 0-1.819.363-2.425.97-.606.606-.97 1.454-.97 2.424 0 .849.364 1.698.849 2.304l.121.121c.606.607 1.455.97 2.425.97.97 0 1.819-.363 2.425-.97zm4.728 4.729c1.819-1.819 2.91-4.244 2.91-7.032 0-2.668-1.091-5.214-2.91-7.033-1.818-1.818-4.243-2.91-7.032-2.91a10.006 10.006 0 00-7.032 2.91 9.793 9.793 0 00-2.91 7.033c0 2.667 1.091 5.213 2.91 7.032a9.79 9.79 0 007.032 2.91c2.667 0 5.214-1.212 7.032-2.91zm93.603-55.41v-21.34c0-1.212.97-2.182 2.183-2.182h8.972c2.91 0 5.699 1.091 7.881 2.789 2.183 1.697 3.759 4.244 4.365 7.153l2.182 10.549c.122.364.122.606.122.849 0 .97-.364 1.94-.97 2.667-.607.728-1.455 1.334-2.425 1.455-.364.121-.607.121-.849.121H376.92c-1.455.121-2.425-.849-2.425-2.06zm4.365-19.157v16.975h16.854c-.728-3.517-1.334-7.033-2.183-10.549-.364-1.819-1.455-3.516-2.789-4.607-1.455-1.092-3.152-1.819-5.092-1.819h-6.79zm19.885 70.808h.242c1.455-.121 2.789-.727 3.759-1.697a5.32 5.32 0 001.576-3.759v-.242l-2.304-52.015a36.664 36.664 0 00-9.821-22.067c-5.335-5.578-12.609-9.215-20.854-9.943l-32.009-2.667a.929.929 0 00-.607.242.927.927 0 00-.242.607l-1.091 64.746c0 1.212-.97 2.182-2.183 2.182h-76.022a6.691 6.691 0 00-4.728 1.94 6.692 6.692 0 00-1.94 4.729v17.944h.121a.927.927 0 00.606-.242.928.928 0 00.243-.606v-1.213c0-5.577 2.303-10.67 5.941-14.428 3.637-3.759 8.729-6.063 14.307-6.184h.364c5.698 0 10.791 2.425 14.549 6.184 3.759 3.758 6.063 8.972 6.184 14.549v1.94h54.561v-4.971c0-5.577 2.304-10.67 5.941-14.428 3.638-3.759 8.73-6.063 14.307-6.184h.364c5.699 0 10.791 2.425 14.55 6.184 3.758 3.758 6.062 8.972 6.183 14.549v4.85h8.003zm.485 4.365h-10.67a2.173 2.173 0 01-2.183-2.182v-7.033c-.121-4.486-1.939-8.608-4.971-11.639a15.853 15.853 0 00-11.397-4.85h-.242c-4.487.121-8.488 1.94-11.276 4.85-2.91 2.91-4.608 6.911-4.608 11.397v7.154c0 1.212-.97 2.182-2.182 2.182h-58.926a2.173 2.173 0 01-2.183-2.182v-4.123c-.121-4.486-1.94-8.608-4.971-11.64a15.649 15.649 0 00-11.397-4.85h-.364c-4.486.122-8.487 1.941-11.276 4.85-2.91 2.91-4.607 6.912-4.607 11.398v1.212a5.32 5.32 0 01-1.577 3.759 5.318 5.318 0 01-3.758 1.576h-2.304a2.173 2.173 0 01-2.182-2.182V98.817c0-3.032 1.212-5.82 3.273-7.881 2.062-2.062 4.729-3.274 7.881-3.274h9.579v-2.183h14.55v2.183h49.468l.97-62.564c0-1.455.607-2.667 1.577-3.637.97-.97 2.182-1.455 3.637-1.455h.121l32.131 2.667c9.457.728 17.581 4.971 23.643 11.276 6.184 6.426 10.185 15.035 11.034 24.614v.242l2.303 52.015v.485c0 2.667-1.091 4.971-2.788 6.79-1.334 1.819-3.759 3.031-6.305 3.152zm-164.775-21.34l4.728-7.032h-5.335a2.173 2.173 0 01-2.182-2.182v-5.214h-9.336v5.214c0 1.212-.97 2.182-2.182 2.182h-96.513a2.174 2.174 0 01-2.183-2.182v-5.214h-9.821v5.214c0 1.212-.97 2.182-2.182 2.182H51.371v7.033h32.252c.728 0 1.455.364 1.819 1.091l4.122 6.669h2.425c.485 0 .849-.122 1.213-.364.363-.243.727-.606.848-1.091.364-.97.85-1.94 1.455-2.91a21.47 21.47 0 011.94-2.668c1.82-2.182 4.123-3.88 6.669-5.092 2.546-1.213 5.335-1.819 8.245-1.819 2.91 0 5.698.606 8.245 1.819 2.546 1.212 4.849 2.91 6.668 5.092.606.728 1.213 1.576 1.819 2.425.485.849.97 1.819 1.455 2.668.242.485.606.97.97 1.333.485.243.97.485 1.455.485h.121c.606 0 1.091-.121 1.455-.485.485-.363.849-.727 1.091-1.333.364-.97.97-1.94 1.455-2.789.485-.849 1.091-1.576 1.819-2.425l.121-.121c1.819-2.061 4.123-3.638 6.547-4.729a19.164 19.164 0 017.882-1.697c2.788 0 5.456.606 7.881 1.697 2.546 1.091 4.728 2.789 6.547 4.729.727.848 1.334 1.576 1.94 2.425.606.848 1.091 1.818 1.455 2.667.242.606.606 1.091 1.212 1.334.485.364.97.485 1.577.485h3.152l5.092-6.79c.364-.606 1.092-.97 1.819-.97l50.318.364z" fill="#374148"/><path d="M51.493 85.722h273.655c2.182 0 3.879-1.819 3.879-3.88V3.88c0-2.183-1.818-3.88-3.879-3.88H51.493c-2.183 0-3.88 1.697-3.88 3.88v77.962c-.122 2.182 1.697 3.88 3.88 3.88zm10.063-14.307h-4.001c-.849 0-1.576-.728-1.576-1.577V8.608c0-.848.727-1.576 1.576-1.576h4.001c.849 0 1.576.728 1.576 1.577v61.23c0 .848-.727 1.576-1.576 1.576zm256.559.12h-4.001c-.849 0-1.576-.727-1.576-1.575V8.73c0-.849.727-1.576 1.576-1.576h4.001c.849 0 1.576.727 1.576 1.576v61.23c.122.848-.606 1.576-1.576 1.576zm-16.126-.242h-4.001c-.849 0-1.576-.727-1.576-1.576V8.487c0-.848.727-1.576 1.576-1.576h4.001c.849 0 1.577.728 1.577 1.576v61.109c.121.97-.607 1.697-1.577 1.697zm-16.126.243h-4.001c-.848 0-1.576-.728-1.576-1.576V8.73c0-.849.728-1.576 1.576-1.576h4.001c.849 0 1.577.727 1.577 1.576v61.23c0 .848-.728 1.576-1.577 1.576zm-15.883.121h-4.001c-.849 0-1.576-.727-1.576-1.576V8.85c0-.849.727-1.576 1.576-1.576h4.001c.849 0 1.576.727 1.576 1.576v61.23c0 .849-.727 1.576-1.576 1.576zm-16.126-.242h-4.001c-.849 0-1.576-.728-1.576-1.577V8.608c0-.848.727-1.576 1.576-1.576h4.001c.849 0 1.576.728 1.576 1.577v61.23c0 .848-.727 1.576-1.576 1.576zm-16.126.242h-4.001c-.849 0-1.576-.727-1.576-1.576V8.85c0-.849.727-1.576 1.576-1.576h4.001c.849 0 1.577.727 1.577 1.576v61.23c0 .849-.728 1.576-1.577 1.576zm-15.519-.242h-4.001c-.849 0-1.577-.728-1.577-1.577V8.608c0-.848.728-1.576 1.577-1.576h4.001c.848 0 1.576.728 1.576 1.577v61.23c0 .848-.728 1.576-1.576 1.576zm-15.399.242h-4.001c-.849 0-1.576-.727-1.576-1.576V8.85c0-.849.727-1.576 1.576-1.576h4.001c.849 0 1.576.727 1.576 1.576v61.23c0 .849-.727 1.576-1.576 1.576zm-15.641-.242h-4.001c-.849 0-1.576-.728-1.576-1.577V8.608c0-.848.727-1.576 1.576-1.576h4.001c.849 0 1.577.728 1.577 1.577v61.23c.121.848-.607 1.576-1.577 1.576zm-16.853 0h-4.001c-.849 0-1.576-.728-1.576-1.577V8.608c0-.848.727-1.576 1.576-1.576h4.001c.849 0 1.576.728 1.576 1.577v61.23c0 .848-.727 1.576-1.576 1.576zm-16.368 0h-4.002c-.848 0-1.576-.728-1.576-1.577V8.608c0-.848.728-1.576 1.576-1.576h4.002c.848 0 1.576.728 1.576 1.577v61.23c.121.848-.606 1.576-1.576 1.576zm-16.975 0h-4.001c-.849 0-1.576-.728-1.576-1.577V8.608c0-.848.727-1.576 1.576-1.576h4.001c.849 0 1.576.728 1.576 1.577v61.23c.121.848-.606 1.576-1.576 1.576zm-16.247.242h-4.001c-.849 0-1.576-.727-1.576-1.576V8.85c0-.849.727-1.576 1.576-1.576h4.001c.849 0 1.576.727 1.576 1.576v61.23c.121.849-.727 1.576-1.576 1.576zm-16.247-.242h-4.001c-.849 0-1.577-.728-1.577-1.577V8.608c0-.848.728-1.576 1.577-1.576h4.001c.848 0 1.576.728 1.576 1.577v61.23c0 .848-.728 1.576-1.576 1.576zm-15.762 0h-4.001c-.85 0-1.577-.728-1.577-1.577V8.608c0-.848.728-1.576 1.577-1.576h4c.85 0 1.577.728 1.577 1.577v61.23c0 .848-.728 1.576-1.576 1.576zm-15.399 0h-4c-.85 0-1.577-.728-1.577-1.577V8.608c0-.848.727-1.576 1.576-1.576h4.001c.849 0 1.576.728 1.576 1.577v61.23c.122.848-.606 1.576-1.576 1.576z" fill="url(#paint0_linear)"/><defs><linearGradient id="paint0_linear" x1="47.6" y1="42.938" x2="329.074" y2="42.938" gradientUnits="userSpaceOnUse"><stop stop-color="#008DD2"/><stop offset="1" stop-color="#003C5F"/></linearGradient></defs></svg>