<svg width="1442" height="1230" fill="none" xmlns="http://www.w3.org/2000/svg"><path d="M103 3h1236c55.23 0 100 44.772 100 100v98c0 55.228-44.77 100-100 100H103C47.772 301 3 345.772 3 401v97c0 55.228 44.772 100 100 100h1236c55.23 0 100 44.772 100 100v98c0 55.229-44.77 100-100 100H123.5M240 1227.5H103c-55.228 0-100-44.77-100-100V996c0-55.228 44.772-100 100-100" stroke="url(#paint0_linear)" stroke-opacity=".5" stroke-width="4.2" stroke-miterlimit="2.613" stroke-linecap="round" stroke-dasharray="4 16"/><defs><linearGradient id="paint0_linear" x1="-42.5" y1="1868.5" x2="1713" y2="273.999" gradientUnits="userSpaceOnUse"><stop stop-color="#008DD2"/><stop offset=".505" stop-color="#003C5F"/><stop offset="1" stop-color="#374148"/></linearGradient></defs></svg>