<svg width="443" height="133" fill="none" xmlns="http://www.w3.org/2000/svg"><path d="M244.397 91.3l-7.639 11.396c-.363.607-1.091.97-1.818.97h-50.318l-5.214 6.911c-.485.607-1.091.849-1.697.849h-4.244c-1.455 0-2.788-.485-4.001-1.212-1.212-.728-2.061-1.94-2.667-3.274-.364-.727-.728-1.455-1.091-2.061-.485-.728-.97-1.334-1.455-1.94a15.105 15.105 0 00-5.093-3.637c-1.94-.85-4.001-1.334-6.183-1.334-2.183 0-4.244.485-6.184 1.334a15.577 15.577 0 00-5.092 3.637l-.122.121-1.455 1.819c-.485.727-.848 1.455-1.212 2.182-.606 1.334-1.455 2.425-2.668 3.153-1.091.727-2.424 1.212-3.879 1.212h-.122c-1.455 0-2.788-.485-4.001-1.212l-.121-.122c-1.091-.727-1.94-1.939-2.546-3.152-.364-.727-.728-1.455-1.092-2.061-.363-.606-.848-1.334-1.454-1.94-1.455-1.698-3.153-3.031-5.214-4.001a16.032 16.032 0 00-6.426-1.334c-2.304 0-4.486.485-6.426 1.334-2.062.97-3.759 2.303-5.214 4.001-.485.606-1.091 1.334-1.455 2.061-.485.728-.849 1.455-1.091 2.304-.485 1.212-1.334 2.303-2.425 3.031-1.091.727-2.304 1.212-3.759 1.212h-3.637a2.16 2.16 0 01-1.94-1.212l-4.001-6.547H48.46a2.174 2.174 0 01-2.182-2.183V90.208c0-1.212.97-2.183 2.182-2.183h58.32v-4.122c0-1.212.97-2.182 2.183-2.182h14.186c1.212 0 2.182.97 2.182 2.182v4.122h92.148v-4.122c0-1.212.97-2.182 2.183-2.182h13.579c1.213 0 2.183.97 2.183 2.182v4.122h7.275c1.212 0 2.182.97 2.182 2.183-.121.364-.243.727-.485 1.091zm-230.37 36.495c1.213 0 2.183.97 2.183 2.182s-.97 2.182-2.183 2.182H2.387a2.173 2.173 0 01-2.182-2.182c0-1.212.97-2.182 2.183-2.182h11.64zm51.045 0c1.213 0 2.183.97 2.183 2.182s-.97 2.182-2.183 2.182h-41.83a2.173 2.173 0 01-2.182-2.182c0-1.212.97-2.182 2.182-2.182h41.83zm375.745 0c1.213 0 2.183.97 2.183 2.182s-.97 2.182-2.183 2.182H74.651a2.173 2.173 0 01-2.183-2.182c0-1.212.97-2.182 2.183-2.182h199.33c-3.88 0-7.517-1.577-10.063-4.123-2.546-2.546-4.123-6.183-4.123-10.063 0-3.88 1.577-7.518 4.123-10.064 2.546-2.546 6.183-4.122 10.063-4.122 3.88 0 7.518 1.576 10.064 4.122 2.546 2.546 4.122 6.184 4.122 10.064s-1.576 7.517-4.122 10.063c-2.546 2.546-6.184 4.123-10.064 4.123h96.756c-3.88 0-7.518-1.577-10.064-4.123-2.546-2.546-4.122-6.183-4.122-10.063 0-3.88 1.576-7.518 4.122-10.064 2.546-2.546 6.184-4.122 10.064-4.122s7.517 1.576 10.063 4.122c2.546 2.546 4.123 6.184 4.123 10.064s-1.577 7.517-4.123 10.063c-2.546 2.546-6.183 4.123-10.063 4.123h70.08zM119.391 112.76c0 2.061-.849 4.001-2.304 5.456-1.333 1.334-3.273 2.304-5.456 2.304-2.182 0-4.001-.849-5.456-2.304-1.334-1.334-2.304-3.274-2.304-5.456 0-2.183.849-4.001 2.304-5.456 1.334-1.334 3.274-2.304 5.456-2.304 2.061 0 4.001.849 5.456 2.304 1.455 1.334 2.304 3.273 2.304 5.456zm-5.335 2.304c.606-.607.97-1.455.97-2.425 0-.97-.364-1.819-.97-2.425-.606-.607-1.455-.97-2.425-.97-.97 0-1.818.363-2.425.97-.606.606-.97 1.455-.97 2.425 0 .97.364 1.818.97 2.425.607.606 1.455.97 2.425.97.97 0 1.819-.364 2.425-.97zm12.004-2.304c0 3.88-1.577 7.517-4.123 10.063-2.546 2.547-6.183 4.123-10.063 4.123-3.88 0-7.518-1.576-10.064-4.123-2.546-2.546-4.122-6.183-4.122-10.063 0-3.88 1.576-7.517 4.122-10.064 2.546-2.546 6.184-4.122 10.064-4.122s7.517 1.576 10.063 4.122c2.425 2.668 4.123 6.184 4.123 10.064zm-7.275 7.032a9.79 9.79 0 002.91-7.032 10 10 0 00-2.91-7.032c-1.819-1.819-4.244-2.91-7.032-2.91a10.005 10.005 0 00-7.033 2.91 9.79 9.79 0 00-2.91 7.032c0 2.667 1.091 5.214 2.91 7.032a9.793 9.793 0 007.033 2.91c2.788 0 5.213-1.091 7.032-2.91zm41.588-7.032c0 2.061-.849 4.001-2.304 5.456-1.334 1.334-3.274 2.304-5.456 2.304-2.061 0-4.001-.849-5.456-2.304-1.455-1.455-2.304-3.274-2.304-5.456 0-2.183.849-4.001 2.304-5.456 1.333-1.334 3.273-2.304 5.456-2.304 2.182 0 4.001.849 5.456 2.304l.121.121c1.334 1.334 2.183 3.274 2.183 5.335zm-5.335 2.304c.606-.607.97-1.455.97-2.425 0-.849-.364-1.698-.849-2.304l-.121-.121c-.606-.607-1.455-.97-2.425-.97-.97 0-1.819.363-2.425.97-.606.606-.97 1.455-.97 2.425 0 .97.364 1.818.97 2.425.606.606 1.455.97 2.425.97.97 0 1.819-.364 2.425-.97zm11.882-2.304c0 3.88-1.576 7.517-4.122 10.063-2.547 2.547-6.184 4.123-10.064 4.123s-7.517-1.576-10.063-4.123c-2.547-2.546-4.123-6.183-4.123-10.063 0-3.88 1.576-7.517 4.123-10.064 2.546-2.546 6.183-4.122 10.063-4.122 3.88 0 7.517 1.576 10.064 4.122 2.546 2.668 4.122 6.184 4.122 10.064zm-7.154 7.032a9.79 9.79 0 002.91-7.032 10 10 0 00-2.91-7.032 9.79 9.79 0 00-7.032-2.91 10.002 10.002 0 00-7.032 2.91 9.79 9.79 0 00-2.91 7.032c0 2.667 1.091 5.214 2.91 7.032a9.79 9.79 0 007.032 2.91 9.79 9.79 0 007.032-2.91zm109.123-31.888v-2.182h14.671v2.182h49.59l.97-62.563c0-1.455.606-2.668 1.576-3.638.97-.97 2.183-1.455 3.638-1.455h.121l32.13 2.668c9.458.727 17.581 4.97 23.644 11.276 6.183 6.426 10.184 15.034 11.033 24.613v.242l2.304 52.015v.485a9.622 9.622 0 01-2.789 6.79c-1.697 1.819-4.001 2.91-6.669 3.031h-10.669a2.173 2.173 0 01-2.183-2.182v-7.032c-.121-4.486-1.94-8.609-4.971-11.64a15.649 15.649 0 00-11.397-4.85h-.364c-4.486.121-8.487 1.94-11.276 4.85-2.91 2.91-4.607 6.911-4.607 11.397v7.154c0 1.212-.97 2.182-2.183 2.182h-58.926a2.173 2.173 0 01-2.182-2.182v-4.123c-.122-4.486-1.94-8.608-4.971-11.639-2.91-3.032-6.912-4.85-11.398-4.85h-.363c-4.487.121-8.488 1.94-11.276 4.85-2.91 2.91-4.608 6.911-4.608 11.397v1.212a5.32 5.32 0 01-1.576 3.759 5.32 5.32 0 01-3.759 1.576h-2.303a2.173 2.173 0 01-2.183-2.182V98.938c0-3.032 1.213-5.82 3.274-7.881s4.728-3.274 7.881-3.274l9.821.121zm109.486 25.583c0 2.183-.849 4.002-2.304 5.457l-.121.121c-1.334 1.333-3.273 2.182-5.335 2.182-2.061 0-4.001-.849-5.456-2.303-1.333-1.334-2.303-3.274-2.303-5.457 0-2.182.848-4.001 2.303-5.456 1.334-1.333 3.274-2.303 5.456-2.303 2.062 0 4.002.848 5.456 2.303 1.334 1.455 2.304 3.395 2.304 5.456zm-5.335 2.425c.607-.606.97-1.455.97-2.425 0-.97-.363-1.818-.97-2.425-.606-.606-1.455-.97-2.425-.97-.97 0-1.818.364-2.425.97-.606.607-.97 1.455-.97 2.425 0 .97.364 1.819.97 2.425.607.607 1.455.97 2.425.97.849 0 1.698-.363 2.425-.97zm4.608 4.729c1.818-1.819 2.91-4.244 2.91-7.032 0-2.668-1.092-5.214-2.91-7.033-1.819-1.818-4.244-2.91-7.033-2.91a10.008 10.008 0 00-7.032 2.91 9.793 9.793 0 00-2.91 7.033c0 2.667 1.091 5.213 2.91 7.032 1.819 1.819 4.244 2.91 7.032 2.91 2.789-.121 5.335-1.213 7.033-2.91zm-96.028-7.154c0 2.062-.849 4.002-2.304 5.457-1.334 1.333-3.273 2.303-5.456 2.303-2.061 0-4.001-.849-5.456-2.303-1.334-1.334-2.304-3.274-2.304-5.457 0-2.182.849-4.001 2.304-5.456l.121-.121c1.334-1.334 3.274-2.182 5.335-2.182 2.183 0 4.001.848 5.456 2.303l.121.122c1.334 1.454 2.183 3.273 2.183 5.334zm-5.335 2.425c.606-.606.97-1.455.97-2.425 0-.848-.364-1.697-.849-2.303l-.121-.122c-.606-.606-1.455-.97-2.425-.97-.849 0-1.697.364-2.304.849l-.121.121c-.606.607-.97 1.455-.97 2.425 0 .97.364 1.819.97 2.425.606.607 1.455.97 2.425.97.97 0 1.819-.363 2.425-.97zm4.729 4.729c1.818-1.819 2.91-4.244 2.91-7.032 0-2.668-1.092-5.214-2.91-7.033-1.819-1.818-4.244-2.91-7.033-2.91a10.008 10.008 0 00-7.032 2.91 9.793 9.793 0 00-2.91 7.033c0 2.667 1.091 5.213 2.91 7.032 1.819 1.819 4.244 2.91 7.032 2.91 2.789-.121 5.214-1.213 7.033-2.91zm93.724-55.41v-21.34c0-1.212.97-2.182 2.182-2.182h8.972c2.91 0 5.699 1.091 7.882 2.789 2.182 1.818 3.758 4.243 4.364 7.153l2.183 10.549c.121.364.121.606.121.849 0 .97-.364 1.94-.97 2.667-.606.728-1.455 1.334-2.425 1.455a2.364 2.364 0 01-.848.121h-19.036c-1.455.121-2.425-.849-2.425-2.061zm4.365-19.157v16.975h16.853c-.727-3.517-1.334-7.033-2.182-10.549-.364-1.94-1.455-3.516-2.789-4.607-1.455-1.092-3.153-1.82-5.093-1.82h-6.789zm19.763 70.808h.242c1.455-.121 2.789-.727 3.759-1.697a5.32 5.32 0 001.576-3.759v-.242l-2.303-52.015a36.67 36.67 0 00-9.821-22.067c-5.335-5.578-12.61-9.215-20.855-9.943l-32.252-2.667c-.242 0-.363.121-.606.242a.927.927 0 00-.242.607l-1.092 64.746c0 1.212-.97 2.182-2.182 2.182h-75.901a6.69 6.69 0 00-4.728 1.94 6.691 6.691 0 00-1.94 4.729v17.944h.121a.927.927 0 00.606-.242.928.928 0 00.243-.606v-1.213c0-5.577 2.303-10.67 5.941-14.428 3.637-3.759 8.729-6.063 14.307-6.184h.364c5.698 0 10.791 2.425 14.549 6.184 3.759 3.758 6.063 8.972 6.184 14.549v1.94h54.561v-4.971c0-5.577 2.304-10.67 5.941-14.428 3.638-3.759 8.73-6.063 14.307-6.184h.364c5.699 0 10.791 2.425 14.55 6.184 3.758 3.758 6.062 8.972 6.183 14.549v4.85h8.124zm-165.018-17.58l4.729-7.033h-5.335a2.173 2.173 0 01-2.182-2.182v-4.123h-9.336v4.123c0 1.212-.97 2.182-2.183 2.182h-96.512a2.173 2.173 0 01-2.183-2.182v-4.123h-9.821v4.123c0 1.212-.97 2.182-2.182 2.182h-58.2v7.032h32.253c.727 0 1.455.364 1.818 1.092l4.123 6.668h2.425c.485 0 .849-.121 1.212-.363.364-.243.728-.607.849-1.092.364-.97.849-1.94 1.455-2.91a21.45 21.45 0 011.94-2.667c1.819-2.182 4.122-3.88 6.668-5.092 2.547-1.213 5.335-1.82 8.245-1.82 2.91 0 5.699.607 8.245 1.82 2.546 1.212 4.85 2.91 6.669 5.092.606.727 1.212 1.576 1.818 2.425.485.849.97 1.819 1.455 2.667.243.485.607.97.97 1.334.485.243.97.485 1.455.485h.122c.606 0 1.091-.121 1.455-.485.484-.364.848-.727 1.091-1.334.363-.97.97-1.94 1.455-2.788.485-.849 1.091-1.577 1.818-2.425l.122-.121c1.818-2.062 4.122-3.638 6.547-4.73a19.159 19.159 0 017.881-1.697c2.789 0 5.456.607 7.881 1.698 2.546 1.091 4.729 2.788 6.548 4.728.727.849 1.333 1.577 1.939 2.425.607.849 1.092 1.819 1.455 2.668.243.606.607 1.091 1.213 1.334.485.363.97.485 1.576.485h3.153l5.092-6.79c.364-.606 1.091-.97 1.819-.97l50.438.364z" fill="#3C464E"/><path d="M346.487 14.913v-4.486c0-4.365-3.516-8.002-8.002-8.002h-8.003c-.727 0-1.212-.606-1.212-1.213 0-.727-.606-1.212-1.213-1.212H48.947c-.728 0-1.213.606-1.213 1.212V84.51c0 .728.606 1.213 1.212 1.213h278.99c.728 0 1.213-.606 1.213-1.213V17.46c0-.727.606-1.212 1.212-1.212h14.671c.849-.121 1.455-.606 1.455-1.334zM188.866 10.67c0-1.213.97-2.183 2.182-2.183 1.213 0 2.183.97 2.183 2.183v25.583l9.821-9.821V14.065c0-1.213.97-2.183 2.182-2.183s2.182.97 2.182 2.183v10.548l.122.121h10.548c1.213 0 2.183.97 2.183 2.183 0 1.212-.97 2.182-2.183 2.182h-11.64l-10.184 10.185h25.583c1.212 0 2.182.97 2.182 2.183 0 1.212-.97 2.182-2.182 2.182h-25.341l9.7 9.7h11.64c1.212 0 2.182.97 2.182 2.182 0 1.213-.97 2.183-2.182 2.183h-10.306c-.122.12-.243.242-.364.242v10.306c0 1.213-.97 2.183-2.182 2.183a2.173 2.173 0 01-2.183-2.183V56.138l-9.7-9.7v25.825c0 1.213-.97 2.183-2.182 2.183a2.174 2.174 0 01-2.183-2.183V46.801l-9.821 9.822v12.124c0 1.213-.97 2.183-2.182 2.183a2.174 2.174 0 01-2.183-2.183v-10.67h-10.669a2.174 2.174 0 01-2.183-2.182c0-1.213.97-2.183 2.183-2.183h11.761l9.942-9.942H160.13a2.173 2.173 0 01-2.182-2.182c0-1.213.97-2.183 2.182-2.183h25.704l-10.063-10.063h-12.004a2.173 2.173 0 01-2.182-2.183c0-1.212.97-2.182 2.182-2.182h10.67v-10.67c0-1.212.97-2.182 2.183-2.182 1.212 0 2.182.97 2.182 2.182v12.004l9.821 9.82.243-25.461z" fill="url(#paint0_linear)"/><defs><linearGradient id="paint0_linear" x1="47.727" y1="42.938" x2="346.536" y2="42.938" gradientUnits="userSpaceOnUse"><stop stop-color="#008DD2"/><stop offset="1" stop-color="#003C5F"/></linearGradient></defs></svg>