<svg width="415" height="139" fill="none" xmlns="http://www.w3.org/2000/svg"><path d="M71.9 85.843h273.776c2.182 0 3.88-1.819 3.88-3.88V3.88c0-2.183-1.819-3.88-3.88-3.88H71.9c-2.183 0-3.88 1.697-3.88 3.88v77.962c0 2.304 1.818 4.001 3.88 4.001zm10.184-14.307h-4.001c-.849 0-1.576-.728-1.576-1.576V8.609c0-.85.727-1.577 1.576-1.577h4.001c.849 0 1.576.728 1.576 1.577v61.23c0 .97-.727 1.697-1.576 1.697zm256.559.121h-4.001c-.849 0-1.576-.727-1.576-1.576V8.73c0-.849.727-1.576 1.576-1.576h4.001c.849 0 1.577.727 1.577 1.576v61.23c0 .97-.728 1.697-1.577 1.697zm-16.126-.242h-4.001c-.848 0-1.576-.728-1.576-1.577V8.488c0-.85.728-1.577 1.576-1.577h4.001c.849 0 1.577.728 1.577 1.576v61.23c.121.97-.607 1.698-1.577 1.698zm-16.125.242h-4.002c-.848 0-1.576-.727-1.576-1.576V8.73c0-.849.728-1.576 1.576-1.576h4.002c.848 0 1.576.727 1.576 1.576v61.23c0 .97-.728 1.697-1.576 1.697zm-15.884.121h-4.001c-.849 0-1.576-.727-1.576-1.576V8.852c0-.85.727-1.577 1.576-1.577h4.001c.849 0 1.576.727 1.576 1.576v61.23c0 .97-.727 1.697-1.576 1.697zm-16.126-.242h-4.001c-.849 0-1.576-.728-1.576-1.576V8.609c0-.85.727-1.577 1.576-1.577h4.001c.849 0 1.577.728 1.577 1.577v61.23c0 .97-.728 1.697-1.577 1.697zm-16.247.242h-4.001c-.849 0-1.576-.727-1.576-1.576V8.852c0-.85.727-1.577 1.576-1.577h4.001c.849 0 1.576.727 1.576 1.576v61.23c.122.97-.606 1.697-1.576 1.697zm-15.398-.242h-4.001c-.849 0-1.577-.728-1.577-1.576V8.609c0-.85.728-1.577 1.577-1.577h4.001c.848 0 1.576.728 1.576 1.577v61.23c0 .97-.728 1.697-1.576 1.697zm-15.52.242h-4.001c-.849 0-1.576-.727-1.576-1.576V8.852c0-.85.727-1.577 1.576-1.577h4.001c.849 0 1.576.727 1.576 1.576v61.23c.122.97-.606 1.697-1.576 1.697zm-15.52-.242h-4.001c-.848 0-1.576-.728-1.576-1.576V8.609c0-.85.728-1.577 1.576-1.577h4.001c.849 0 1.577.728 1.577 1.577v61.23c0 .97-.728 1.697-1.577 1.697zm-16.974 0h-4.001c-.849 0-1.576-.728-1.576-1.576V8.609c0-.85.727-1.577 1.576-1.577h4.001c.849 0 1.576.728 1.576 1.577v61.23c.121.97-.606 1.697-1.576 1.697zm-16.247 0h-4.001c-.849 0-1.577-.728-1.577-1.576V8.609c0-.85.728-1.577 1.577-1.577h4.001c.848 0 1.576.728 1.576 1.577v61.23c0 .97-.728 1.697-1.576 1.697zm-16.975 0H157.5c-.849 0-1.576-.728-1.576-1.576V8.609c0-.85.727-1.577 1.576-1.577h4.001c.849 0 1.576.728 1.576 1.577v61.23c.122.97-.727 1.697-1.576 1.697zm-16.247.242h-4.001c-.849 0-1.576-.727-1.576-1.576V8.852c0-.85.727-1.577 1.576-1.577h4.001c.849 0 1.576.727 1.576 1.576v61.23c0 .97-.727 1.697-1.576 1.697zm-16.247-.242h-4.001c-.849 0-1.576-.728-1.576-1.576V8.609c0-.85.727-1.577 1.576-1.577h4.001c.849 0 1.576.728 1.576 1.577v61.23c0 .97-.727 1.697-1.576 1.697zm-15.883 0h-4.002c-.848 0-1.576-.728-1.576-1.576V8.609c0-.85.728-1.577 1.576-1.577h4.002c.848 0 1.576.728 1.576 1.577v61.23c.121.97-.607 1.697-1.576 1.697zm-15.278 0h-4c-.85 0-1.577-.728-1.577-1.576V8.609c0-.85.727-1.577 1.576-1.577h4.001c.849 0 1.577.728 1.577 1.577v61.23c0 .97-.728 1.697-1.577 1.697z" fill="url(#paint0_linear)"/><path d="M168.291 119.428c0 4.123-1.697 7.76-4.365 10.428-2.667 2.667-6.426 4.364-10.427 4.364h155.924c-2.91 0-5.699-.848-8.002-2.303-1.94-1.334-3.638-3.031-4.85-5.093h-17.217c-1.213 2.062-2.789 3.759-4.85 5.093a15.053 15.053 0 01-8.003 2.303c-4.122 0-7.759-1.697-10.427-4.364-2.667-2.668-4.365-6.427-4.365-10.428 0-4.122 1.698-7.76 4.365-10.427l.121-.121c2.668-2.546 6.305-4.244 10.306-4.244 1.577 0 3.274.243 4.729.728a17.005 17.005 0 013.637 1.818h5.699c-.364-.242-.727-.485-.849-.848-.121-.243-.363-.485-.485-.728-.242-.242-.485-.485-.606-.727a15.095 15.095 0 00-5.092-3.638c-1.94-.848-4.001-1.334-6.184-1.334-2.182 0-4.244.486-6.183 1.334a15.6 15.6 0 00-5.093 3.638c-1.212 1.333-16.368 17.459-16.489 17.58-.485.485-.97.728-1.577.728h-56.38a2.122 2.122 0 01-1.697-.849c-1.334-1.455-15.156-16.247-16.369-17.459a15.085 15.085 0 00-5.092-3.638c-1.94-.848-4.001-1.334-6.183-1.334-2.183 0-4.244.486-6.184 1.334a15.586 15.586 0 00-5.092 3.638c-.243.242-.364.485-.607.727-.242.243-.363.606-.606.849-.121.242-.364.364-.485.485h6.305c1.091-.728 2.182-1.213 3.516-1.698a13.913 13.913 0 014.486-.727c4.123 0 7.76 1.697 10.428 4.365 2.546 2.788 4.243 6.547 4.243 10.548zM13.822 134.22c1.213 0 2.183.97 2.183 2.183 0 1.212-.97 2.182-2.183 2.182H2.182A2.173 2.173 0 010 136.403c0-1.213.97-2.183 2.182-2.183h11.64zm46.68 0c1.213 0 2.183.97 2.183 2.183 0 1.212-.97 2.182-2.183 2.182H23.037a2.173 2.173 0 01-2.182-2.182c0-1.213.97-2.183 2.182-2.183h37.465zm92.997 0c-3.031 0-5.699-.848-8.124-2.424-1.94-1.334-3.637-3.032-4.849-5.214H123.43c-1.213 2.061-2.789 3.88-4.85 5.214-2.304 1.576-5.093 2.424-8.124 2.424-4.122 0-7.76-1.697-10.427-4.364-2.667-2.668-4.365-6.305-4.365-10.428 0-4.122 1.698-7.76 4.365-10.427 2.667-2.667 6.305-4.365 10.427-4.365 1.576 0 3.031.243 4.486.728 1.213.363 2.425.97 3.517 1.697h5.698a1.463 1.463 0 01-.606-.606c-.243-.243-.364-.606-.485-.728-.243-.242-.364-.485-.606-.727-1.455-1.698-3.153-3.031-5.214-4.001a16.023 16.023 0 00-6.426-1.334c-2.304 0-4.486.485-6.426 1.334-2.061.97-3.759 2.303-5.214 4.001-.485.606-1.091 1.334-1.455 2.061a9.184 9.184 0 00-1.091 2.183v.121c-.485 1.212-1.334 2.182-2.425 2.91-1.091.727-2.304 1.212-3.759 1.212h-3.637a2.16 2.16 0 01-1.94-1.212l-4.001-6.548H36.01a2.173 2.173 0 01-2.182-2.182V92.026c0-1.212.97-2.182 2.182-2.182h344.95c1.212 0 2.182.97 2.182 2.182v.122l.243 11.276c0 1.212-.97 2.182-2.061 2.182h-42.922l-4.122 6.669c-.364.727-1.092 1.091-1.819 1.091h-3.638c-1.333 0-2.667-.485-3.758-1.213-1.091-.727-1.94-1.818-2.425-3.031-.243-.727-.728-1.455-1.091-2.182-.485-.728-.97-1.455-1.455-2.061-1.455-1.698-3.153-3.032-5.214-4.002a16.04 16.04 0 00-6.426-1.333 16.04 16.04 0 00-6.426 1.333c-2.061.97-3.759 2.304-5.214 4.002-.242.242-.364.485-.606.727-.121.243-.364.485-.606.849-.243.364-.485.606-.849.727h6.305a17.028 17.028 0 013.637-1.818c1.455-.485 3.031-.728 4.729-.728 4.122 0 7.76 1.698 10.427 4.365 2.668 2.667 4.365 6.426 4.365 10.427 0 4.123-1.697 7.76-4.365 10.428-2.667 2.667-6.426 4.364-10.427 4.364h102.939c1.212 0 2.182.97 2.182 2.183 0 1.212-.97 2.182-2.182 2.182H70.202a2.173 2.173 0 01-2.182-2.182c0-1.213.97-2.183 2.182-2.183H153.5zm159.561-15.519l-3.395 4.365c.97 0 1.819-.485 2.425-1.091.607-.607 1.092-1.577 1.092-2.547 0-.242 0-.485-.122-.727zm-49.469-6.548c.122-.363.243-.727.485-1.091v-.121l.122-.121c.121-.121.121-.243.242-.243l.121-.121.122-.121c-2.304.242-4.365 1.333-5.941 2.91l-.122.121c-1.94 1.94-3.031 4.486-3.031 7.396s1.213 5.456 3.031 7.396c1.94 1.94 4.486 3.031 7.396 3.031 2.062 0 4.002-.606 5.578-1.697.606-.364 1.212-.849 1.819-1.455l-1.092.727c-1.091.485-2.303.849-3.516.849a7.784 7.784 0 01-5.577-2.304 7.784 7.784 0 01-2.304-5.577c0-1.819.606-3.637 1.697-4.971-1.333-3.274-.242-4.123.97-4.608zm46.923 2.668v-.121h-38.435c-.121 0-.243.121-.243.121-.121.121-.363.242-.485.364-.363.363-.727.97-.727 1.455v.242l2.91 3.759 1.818 2.425.122.121.121.121h28.614c.243 0 .485 0 .728-.121h.121s.121 0 .121-.121l4.365-5.699.485-.727.121-.122v-.121l.364-1.576zm-168.534 7.517h4.729c.121-.121.243-.121.364-.242.121 0 .121-.121.121-.121l-5.214.363zm6.427-.727l4.971-6.426.121-.122c0-.121.121-.121.121-.242s0-.243.122-.364v-.849H114.7v.364l.121.121.121.122 4.85 6.183.121.243.122.121h21.945l6.427.849zm-1.698 5.092h-.849c.607.606 1.213 1.091 1.819 1.576 1.576 1.092 3.638 1.698 5.699 1.698 2.91 0 5.456-1.213 7.396-3.031 1.94-1.94 3.031-4.487 3.031-7.396 0-2.91-1.212-5.457-3.031-7.397-1.091-1.091-2.546-1.939-4.001-2.546v.485c0 .122 0 .122.121.243.121.242.121.485.121.727v.243c.728.606 1.455 1.333 1.94 2.182.728 1.213 1.213 2.668 1.213 4.123a7.784 7.784 0 01-2.304 5.577 7.784 7.784 0 01-5.577 2.304c-.97 0-2.062-.243-2.91-.607a5.63 5.63 0 01-1.213-.606l-1.455 2.425zm-28.493 0h-.121c-.364.243-.728.485-1.213.728-.97.485-2.182.727-3.273.727a7.785 7.785 0 01-5.578-2.304 7.783 7.783 0 01-2.303-5.577c0-1.697.606-3.274 1.455-4.607.727-.97 1.576-1.698 2.546-2.304-1.94.485-3.638 1.455-4.971 2.789-1.94 1.94-3.032 4.486-3.032 7.396s1.213 5.456 3.032 7.396c1.94 1.94 4.486 3.031 7.396 3.031 2.061 0 4.122-.606 5.698-1.697-.848-4.487-.242-4.972.364-5.578zm-10.306-8.851l-.121-.121c-.364.606-.606 1.334-.606 2.061 0 .97.363 1.94 1.091 2.546.606.606 1.576 1.091 2.546 1.091.485 0 .849-.121 1.212-.242l-4.122-5.335zm209.636 1.576a7.784 7.784 0 01-2.303 5.578 7.784 7.784 0 01-5.578 2.303c-.848 0-1.818-.121-2.667-.485-.364-.121-.727-.242-1.091-.485h-.122c-.242.122-.606.122-.97.243h-1.454c.485.485 1.091.97 1.697 1.334 1.576 1.091 3.516 1.697 5.577 1.697 2.91 0 5.457-1.212 7.396-3.031 1.94-1.94 3.032-4.486 3.032-7.396s-1.213-5.456-3.032-7.396c-.848-.849-1.94-1.698-3.152-2.183v.364c.606.606 1.213 1.334 1.576 2.061.728 4.729 1.091 6.063 1.091 7.396zm-50.802 3.516c.606 0 1.091-.121 1.576-.363l-3.637-4.608-.122-.121-.242-.242v-.243l-.121.121c-.485.607-.728 1.334-.728 2.304 0 .97.364 1.94 1.091 2.546.243.243 1.213.606 2.183.606zm70.566-21.582h41.951l-.121-7.032H38.435v7.032h43.892c.727 0 1.455.364 1.819 1.092l4.122 6.668h2.425c.485 0 .849-.121 1.212-.363.364-.243.607-.607.85-1.092.363-.97.848-1.94 1.454-2.91a21.45 21.45 0 011.94-2.667c1.819-2.183 4.122-3.88 6.669-5.092 2.546-1.213 5.335-1.82 8.244-1.82 2.91 0 5.699.607 8.245 1.82 2.546 1.212 4.85 2.91 6.669 5.092.242.364.485.606.849.97l.121.121h10.063l.122-.121c.242-.364.485-.606.848-.97 1.819-2.061 4.123-3.638 6.548-4.729a19.159 19.159 0 017.881-1.697c2.788 0 5.456.606 7.881 1.697 2.546 1.091 4.728 2.789 6.547 4.729 1.091 1.212 12.852 13.701 15.762 16.853h54.44c2.91-3.031 14.671-15.641 15.762-16.853 1.819-2.061 4.123-3.638 6.548-4.729a19.159 19.159 0 017.881-1.697c2.789 0 5.456.606 7.881 1.697 2.546 1.091 4.729 2.789 6.547 4.729.243.364.607.606.849.97l.121.121h10.064v-.121c.242-.364.485-.606.727-.97 1.819-2.183 4.123-3.88 6.669-5.092 2.546-1.213 5.335-1.82 8.245-1.82 2.91 0 5.698.607 8.245 1.82 2.546 1.212 4.849 2.91 6.668 5.092a21.378 21.378 0 011.94 2.667c.606.849.97 1.819 1.455 2.91.243.485.485.849.849 1.092.363.242.727.363 1.212.363h2.425l4.001-6.547c.607-.728 1.334-1.213 2.183-1.213zm-181.386 20.613c.606-.607 1.091-1.577 1.091-2.547 0-.485-.121-.97-.242-1.455l-3.88 4.971h.485c.97 0 1.94-.363 2.546-.969z" fill="#374148"/><defs><linearGradient id="paint0_linear" x1="68.013" y1="42.999" x2="349.602" y2="42.999" gradientUnits="userSpaceOnUse"><stop stop-color="#008DD2"/><stop offset="1" stop-color="#003C5F"/></linearGradient></defs></svg>