<svg width="14" height="14" fill="none" xmlns="http://www.w3.org/2000/svg"><path fill-rule="evenodd" clip-rule="evenodd" d="M9.667.333H4.333a4 4 0 00-4 4v5.334a4 4 0 004 4h5.334a4 4 0 004-4V4.334a4 4 0 00-4-4zm-8 4a2.667 2.667 0 012.666-2.666h5.334a2.667 2.667 0 012.666 2.667v5.333a2.667 2.667 0 01-2.666 2.667H4.333a2.667 2.667 0 01-2.666-2.667V4.334zm5.333 6a3.333 3.333 0 110-6.666 3.333 3.333 0 010 6.667zM7 9a2 2 0 100-4 2 2 0 000 4zm4-5.333a.667.667 0 11-1.333 0 .667.667 0 011.333 0z" fill="#70787C"/></svg>