<svg width="15" height="13" fill="none" xmlns="http://www.w3.org/2000/svg"><path fill-rule="evenodd" clip-rule="evenodd" d="M13.08 2.006l.943.11-.424.85-.621 1.243a.982.982 0 01-.132.264 7.675 7.675 0 01-.122.182 1.381 1.381 0 00-.054.087v1.593c0 4.074-3.944 6.663-7.668 6.663-.762 0-1.34-.036-2.004-.18-1.09-.239-1.903-.712-2.274-1.54l-.383-.85.93-.086c.84-.078 1.57-.238 2.13-.452-1.537-.248-2.399-.923-2.399-2.19v-.667h.667c.146 0 .279-.012.397-.034C.912 6.31.334 5.203.334 3.668v-.136C.329 2.76.37 2.345.583 1.818c.135-.338.331-.651.596-.938l.503-.547.489.56c1.612 1.842 3.205 2.96 4.832 3.094.007-1.7 1.291-2.986 3-2.986.796 0 1.519.303 2.087.848.31.064.64.116.99.157zm-1.474 1.102l-.205-.046-.14-.155c-.342-.374-.77-.572-1.258-.572-.976 0-1.667.694-1.667 1.666 0 .159-.004.259-.024.39-.079.523-.372.944-.976.944-1.999 0-3.802-1.071-5.56-2.9-.09.276-.112.559-.11 1.09l.001.143c0 1.365.554 2.112 1.863 2.528l.465.148v.488c0 .591-.56 1.148-1.38 1.397.376.285 1.144.439 2.388.439h.666v.667c0 .955-1.097 1.702-2.755 2.093.54.166 1.26.237 2.088.237 3.077 0 6.334-2.139 6.334-5.33V4.668c0-.196.057-.366.151-.543.037-.069.078-.135.128-.21l.072-.106.053-.106.257-.514a11.2 11.2 0 01-.391-.08z" fill="#70787C"/></svg>