<svg width="215" height="24" fill="none" xmlns="http://www.w3.org/2000/svg"><path fill-rule="evenodd" clip-rule="evenodd" d="M16.517 6.914V23.22H8.26V6.914h8.258zM0 .8h8.259v6.114H0V.8z" fill="#003C5F"/><path fill-rule="evenodd" clip-rule="evenodd" d="M203.965 23.995c-3.487 0-7.433-.675-10.428-2.486l2.751-6.048c.663.374 1.297.7 2.009.987 2.097.846 4.798 1.414 7.073 1.114.486-.063 1.339-.214 1.339-.836 0-.742-1.301-.981-1.867-1.127-2.114-.545-4.134-.833-6.245-1.574-2.891-1.014-4.615-3.157-4.615-6.18 0-1.457.424-2.803 1.272-4.006C197.365.846 201.516 0 205.017 0c1.597 0 3.171.168 4.721.504 1.596.346 2.937.837 4.357 1.618l-2.57 6.014c-2.095-1.027-4.192-1.775-6.574-1.775-.951 0-1.653.107-2.108.32-.818.384-.764 1.17.116 1.502 2.191.829 4.944.987 7.358 1.818 2.911 1.003 4.683 3.095 4.683 6.15a6.741 6.741 0 01-1.273 3.99c-2.123 2.982-6.258 3.855-9.762 3.855zM24.635.805h25.14V6.91h-8.38v16.28h-8.38V6.91h-8.38V.805zm128.489 23.19c-3.487 0-7.433-.675-10.427-2.486l2.75-6.048c.663.374 1.298.7 2.01.987 2.097.846 4.798 1.414 7.072 1.114.486-.063 1.34-.214 1.34-.836 0-.742-1.302-.981-1.867-1.127-2.115-.545-4.134-.833-6.246-1.574-2.89-1.014-4.614-3.157-4.614-6.18 0-1.457.423-2.803 1.271-4.006C146.525.846 150.675 0 154.177 0c1.598 0 3.171.168 4.721.504 1.596.346 2.936.837 4.357 1.618l-2.571 6.014c-2.094-1.027-4.192-1.775-6.573-1.775-.951 0-1.654.107-2.109.32-.818.384-.763 1.17.117 1.502 2.191.829 4.944.987 7.358 1.818 2.91 1.003 4.683 3.095 4.683 6.15a6.748 6.748 0 01-1.273 3.99c-2.123 2.982-6.258 3.854-9.763 3.854zM184.36.805l-4.954 8.544-4.955-8.544h-9.217l9.982 16.28v6.105h8.379v-6.105l9.982-16.28h-9.217zM92.533 14.033h4.641l-2.32-8.266-2.32 8.266zm6.355 6.105H90.82l-.857 3.052h-8.379L87.868.805h13.972l6.285 22.385h-8.38l-.857-3.052zM129.42.805h8.379V23.19h-11.003l-5.966-10.055V23.19h-8.379V.805h9.444l7.524 12.683.001-12.683zM74.012 16.223l3.172 6.967h-8.38l-2.778-6.105h-4.134v6.105h-8.38V.805h16.76c4.607 0 8.378 3.663 8.378 8.14 0 3.173-1.894 5.936-4.638 7.278zM68.176 6.91h-6.284v4.07h6.284c.57 0 1.092-.23 1.474-.602a2 2 0 00.62-1.433 2 2 0 00-.62-1.433 2.116 2.116 0 00-1.474-.602z" fill="#fff"/><path fill-rule="evenodd" clip-rule="evenodd" d="M24.776 6.914V23.22h-8.259V6.914h8.259zM8.259.8h8.258v6.114H8.26V.8z" fill="#0A6397"/><path fill-rule="evenodd" clip-rule="evenodd" d="M33.034 6.914V23.22h-8.259V6.914h8.259zM16.517.8h8.259v6.114h-8.26V.8z" fill="#008DD2"/></svg>