<svg width="30" height="30" fill="none" xmlns="http://www.w3.org/2000/svg"><path d="M25.091 4.405A14.378 14.378 0 0014.856.163C6.88.163.39 6.651.386 14.627a14.436 14.436 0 001.932 7.231L.265 29.353l7.67-2.01a14.464 14.464 0 006.915 1.76h.006c7.974 0 14.466-6.49 14.469-14.465a14.375 14.375 0 00-4.234-10.233zM14.856 26.66h-.005a12.01 12.01 0 01-6.121-1.676l-.44-.26-4.55 1.193 1.214-4.436-.286-.455a11.992 11.992 0 01-1.839-6.398C2.832 7.999 8.227 2.606 14.861 2.606a11.947 11.947 0 018.502 3.526 11.948 11.948 0 013.519 8.505c-.003 6.63-5.398 12.023-12.026 12.023zm6.597-9.004c-.362-.181-2.14-1.056-2.47-1.176-.332-.12-.573-.181-.814.18-.241.363-.934 1.177-1.145 1.418-.211.241-.422.271-.783.09-.362-.18-1.527-.562-2.908-1.794-1.075-.958-1.8-2.141-2.011-2.503-.21-.362-.022-.558.159-.738.162-.162.361-.422.542-.633.18-.211.24-.362.361-.603.12-.241.06-.452-.03-.633s-.813-1.96-1.114-2.684c-.294-.705-.592-.61-.814-.62-.21-.01-.452-.013-.693-.013-.24 0-.633.09-.964.452-.331.362-1.265 1.237-1.265 3.015 0 1.78 1.295 3.498 1.476 3.74.18.24 2.55 3.891 6.176 5.456a20.77 20.77 0 002.061.762c.866.275 1.654.236 2.277.143.695-.104 2.14-.874 2.44-1.718.302-.845.302-1.568.211-1.72-.09-.15-.331-.24-.692-.421z" fill="#454B52"/></svg>