<svg width="30" height="30" fill="none" xmlns="http://www.w3.org/2000/svg"><path d="M9.967 15.082a4.85 4.85 0 119.7-.001 4.85 4.85 0 01-9.7 0zm-2.622 0a7.472 7.472 0 1014.945 0 7.472 7.472 0 00-14.945 0zm13.494-7.768a1.745 1.745 0 101.747-1.746h-.001a1.747 1.747 0 00-1.746 1.746zm-11.9 19.612c-1.42-.065-2.19-.301-2.703-.5a4.523 4.523 0 01-1.674-1.089 4.489 4.489 0 01-1.088-1.673c-.2-.512-.436-1.283-.501-2.702-.07-1.534-.085-1.994-.085-5.88s.016-4.345.085-5.88c.065-1.42.303-2.189.5-2.703a4.514 4.514 0 011.09-1.673c.508-.51.992-.825 1.673-1.089.512-.2 1.283-.436 2.702-.5 1.534-.07 1.995-.085 5.879-.085 3.884 0 4.345.015 5.88.085 1.42.064 2.19.302 2.703.5.68.264 1.164.58 1.674 1.089s.824.994 1.088 1.673c.2.513.436 1.284.5 2.703.071 1.535.085 1.994.085 5.88s-.014 4.345-.084 5.88c-.065 1.419-.302 2.19-.5 2.702a4.51 4.51 0 01-1.09 1.673 4.523 4.523 0 01-1.673 1.088c-.512.2-1.284.436-2.702.501-1.534.07-1.995.085-5.881.085s-4.345-.014-5.879-.085zM8.817.619c-1.55.07-2.608.316-3.532.676a7.137 7.137 0 00-2.578 1.678 7.11 7.11 0 00-1.679 2.578C.67 6.476.424 7.534.354 9.083.282 10.634.265 11.13.265 15.082c0 3.951.017 4.447.089 5.999.07 1.549.316 2.607.675 3.532.372.957.87 1.77 1.679 2.577a7.154 7.154 0 002.578 1.679c.926.36 1.983.605 3.532.676 1.552.07 2.047.088 5.999.088 3.952 0 4.448-.017 6-.088 1.549-.07 2.606-.317 3.531-.676a7.156 7.156 0 002.578-1.679 7.128 7.128 0 001.679-2.577c.36-.925.606-1.983.675-3.532.071-1.553.087-2.048.087-6 0-3.95-.016-4.447-.087-5.998-.07-1.55-.316-2.608-.675-3.532a7.157 7.157 0 00-1.679-2.578 7.12 7.12 0 00-2.576-1.678c-.927-.36-1.985-.607-3.533-.676C19.267.549 18.77.53 14.819.53c-3.952 0-4.448.016-6 .088z" fill="#454B52"/></svg>