<svg width="31" height="33" fill="none" xmlns="http://www.w3.org/2000/svg"><path d="M27.5 3.209C26.69 2.454 23.407.056 16.095.024c0 0-8.622-.524-12.825 3.357C.929 5.736.106 9.182.019 13.455c-.087 4.273-.199 12.28 7.47 14.451h.008l-.005 3.314s-.05 1.34.828 1.614c1.062.332 1.685-.687 2.698-1.786a86.626 86.626 0 001.903-2.167c5.245.444 9.28-.571 9.737-.721 1.06-.346 7.052-1.119 8.027-9.125 1.006-8.253-.487-13.473-3.184-15.826zm.89 15.234c-.823 6.685-5.684 7.105-6.58 7.394-.38.124-3.924 1.011-8.38.718 0 0-3.319 4.031-4.356 5.08-.162.163-.352.23-.48.197-.178-.044-.227-.257-.225-.568l.029-5.506s-.004 0 0 0c-6.488-1.812-6.11-8.627-6.036-12.196.073-3.57.74-6.493 2.718-8.459 3.556-3.24 10.88-2.757 10.88-2.757 6.184.028 9.148 1.902 9.835 2.53 2.282 1.966 3.445 6.671 2.595 13.565v.002z" fill="#454B52"/><path fill-rule="evenodd" clip-rule="evenodd" d="M16.45 10.563c.01-.257.198-.453.416-.44.819.05 1.5.34 1.984.927.483.584.72 1.4.762 2.381.01.256-.158.474-.377.487-.218.013-.405-.185-.415-.44-.036-.84-.233-1.412-.54-1.783-.305-.37-.77-.603-1.455-.645-.219-.013-.387-.232-.375-.488z" fill="#454B52"/><path fill-rule="evenodd" clip-rule="evenodd" d="M15.817 8.609c.016-.228.203-.4.417-.383 1.634.127 2.95.722 3.909 1.836.948 1.103 1.398 2.475 1.366 4.084-.005.228-.183.41-.398.405a.402.402 0 01-.38-.423c.028-1.42-.364-2.578-1.163-3.507-.796-.925-1.909-1.453-3.39-1.569-.215-.016-.376-.215-.36-.443z" fill="#454B52"/><path fill-rule="evenodd" clip-rule="evenodd" d="M15.184 6.113a.415.415 0 01.412-.42c2.375.018 4.383.832 5.995 2.451 1.626 1.633 2.43 3.855 2.45 6.615a.416.416 0 01-.406.425.415.415 0 01-.413-.419c-.019-2.586-.766-4.574-2.202-6.017-1.45-1.456-3.25-2.195-5.43-2.21a.416.416 0 01-.406-.425z" fill="#454B52"/><path d="M16.853 18.902s.581.05.894-.336l.61-.768c.295-.38 1.006-.624 1.701-.236.522.297 1.028.62 1.517.968.462.34 1.407 1.129 1.41 1.129.45.38.555.939.248 1.527l-.003.013a6.37 6.37 0 01-1.27 1.564c-.006.003-.006.006-.011.009-.438.365-.868.573-1.29.623a.855.855 0 01-.189.012 1.717 1.717 0 01-.548-.084l-.014-.02c-.65-.184-1.737-.643-3.546-1.641a21.13 21.13 0 01-2.98-1.968c-.468-.37-.916-.767-1.34-1.188l-.045-.046-.045-.045-.045-.045-.045-.045a15.741 15.741 0 01-1.189-1.34 21.148 21.148 0 01-1.968-2.979c-.998-1.81-1.457-2.895-1.64-3.546l-.02-.014a1.718 1.718 0 01-.085-.548.828.828 0 01.012-.189c.052-.421.26-.852.624-1.29.003-.006.006-.006.01-.012.45-.504.978-.932 1.564-1.27l.012-.003c.589-.306 1.147-.202 1.527.246.003.003.79.948 1.128 1.41.348.49.672.996.969 1.518.388.695.145 1.407-.236 1.7l-.768.61c-.388.314-.337.895-.337.895s1.138 4.305 5.388 5.39z" fill="#454B52"/></svg>