<svg width="90" height="124" fill="none" xmlns="http://www.w3.org/2000/svg"><path d="M18.825 114.18l-1.06-1.063-2.572 2.563h3.632v-1.5zm43.86-43.69l-1.055-1.066-.004.003 1.059 1.063zM2.844 18.47l-1.133-.984-.973 1.12 1.109.985.996-1.121zm6.12 5.44l-.997 1.121 1.131 1.006.996-1.14-1.13-.987zm47.43 41.99l1.057 1.064.003-.003-1.06-1.061zm-50.32 49.98l-1.058-1.064-.443.44v.624h1.5zm0 6.12h-1.5v1.5h1.5V122zm81.77 0v1.5h1.5V122h-1.5zm0-7.82h1.5v-1.5h-1.5v1.5zm-67.962 1.063l43.86-43.69-2.117-2.126-43.86 43.69 2.117 2.126zM63.74 71.556c7.884-7.798 12.855-14.307 15.846-20.378 3.008-6.104 3.98-11.692 3.98-17.578h-3c0 5.504-.899 10.626-3.671 16.252-2.788 5.659-7.508 11.9-15.264 19.572l2.11 2.132zM83.564 33.6c0-10.11-3.92-18.41-10.941-24.154C65.634 3.73 55.703.65 43.814.65v3c11.401 0 20.596 2.955 26.91 8.119 6.28 5.136 9.84 12.562 9.84 21.831h3zM43.814.65C25.63.65 11.068 6.72 1.713 17.486l2.265 1.968C12.642 9.48 26.299 3.65 43.815 3.65v-3zM1.849 19.591l6.12 5.44L9.96 22.79l-6.12-5.44-1.993 2.242zm8.247 5.305c7.814-8.954 18.411-13.256 33.04-13.256v-3c-15.292 0-26.795 4.538-35.3 14.284l2.26 1.972zm33.04-13.256c9.644 0 16.78 2.288 21.48 6.198 4.662 3.878 7.11 9.503 7.11 16.612h3c0-7.85-2.738-14.381-8.191-18.918-5.415-4.505-13.324-6.892-23.4-6.892v3zm28.59 22.81c0 4.322-.647 8.422-2.97 13.15-2.343 4.768-6.426 10.245-13.421 17.24l2.121 2.12c7.115-7.115 11.447-12.858 13.992-18.036 2.564-5.216 3.278-9.786 3.278-14.474h-3zM55.337 64.836l-50.32 49.98 2.115 2.128 50.32-49.98-2.115-2.128zM4.574 115.88V122h3v-6.12h-3zm1.5 7.62h81.77v-3H6.075v3zm83.27-1.5v-7.82h-3V122h3zm-1.5-9.32h-69.02v3h69.02v-3z" fill="#fff"/></svg>