<svg width="88" height="124" fill="none" xmlns="http://www.w3.org/2000/svg"><path d="M46.163 53.85l-1.183-.923-1.831 2.346 2.975.076.038-1.499zm29.92 9.69l-1.004 1.115.01.009.01.008.983-1.132zm5.61 41.82l1.273.792.004-.006.004-.006-1.282-.78zm-14.28 12.07l-.632-1.361-.01.005.641 1.356zm-46.92.17l-.543 1.398.009.004.01.003.523-1.405zm-17.68-11.73l-1.249-.832-.631.947.743.863 1.137-.978zm4.42-6.63l1.117-1-1.291-1.444-1.075 1.612 1.249.832zm15.64 10.54l-.574 1.386.008.003.566-1.389zm46.24-2.89l.95 1.16.007-.006.007-.005-.965-1.149zm-33.66-45.73h-1.5v1.5h1.5v-1.5zm0-6.29l-1.183-.923-.318.407v.516h1.5zm35.19-45.05l1.182.923 1.893-2.423h-3.076v1.5zm-63.41 0h-1.5v1.5h1.5v-1.5zm0-7.82V.5h-1.5V2h1.5zm74.63 0h1.5V.5h-1.5V2zm0 6.12l1.182.923.317-.407V8.12h-1.5zm-35.74 47.23c12.944.334 22.517 3.51 28.956 9.305l2.007-2.23c-7.16-6.445-17.534-9.73-30.885-10.075l-.077 3zM75.1 64.671c6.554 5.695 9.853 13.255 9.853 22.838h3c0-10.364-3.613-18.783-10.886-25.102L75.1 64.672zm9.853 22.838c0 6.439-1.524 12.114-4.54 17.07l2.562 1.56c3.33-5.471 4.978-11.695 4.978-18.63h-3zm-4.533 17.058c-2.995 4.813-7.511 8.657-13.638 11.501l1.263 2.722c6.567-3.049 11.57-7.252 14.922-12.639l-2.547-1.584zm-13.647 11.506c-5.985 2.829-13.29 4.276-21.97 4.276v3c9.002 0 16.77-1.5 23.252-4.564l-1.282-2.712zm-21.97 4.276c-8.445 0-16.37-1.388-23.785-4.155l-1.049 2.81c7.771 2.9 16.054 4.345 24.835 4.345v-3zm-23.767-4.148c-7.423-2.881-13.09-6.667-17.085-11.31l-2.274 1.956c4.39 5.104 10.51 9.138 18.274 12.15l1.085-2.796zm-16.974-9.5l4.42-6.63-2.497-1.664-4.42 6.63 2.497 1.664zm2.054-6.462c4.034 4.509 9.45 8.139 16.184 10.926l1.147-2.772c-6.412-2.653-11.423-6.05-15.096-10.154l-2.235 2zm16.192 10.929c6.884 2.8 14.388 4.191 22.496 4.191v-3c-7.76 0-14.875-1.329-21.365-3.969l-1.13 2.778zm22.496 4.191c10.738 0 19.23-2.365 25.26-7.31l-1.902-2.32c-5.302 4.348-13.017 6.63-23.358 6.63v3zm25.274-7.321c6.044-5.077 9.035-11.977 9.035-20.529h-3c0 7.768-2.674 13.788-7.964 18.231l1.93 2.298zm9.035-20.529c0-8.668-3.051-15.582-9.23-20.55l-1.88 2.34c5.383 4.326 8.11 10.332 8.11 18.21h3zm-9.23-20.55c-6.159-4.95-15.228-7.3-26.95-7.3v3c11.399 0 19.67 2.297 25.07 6.64l1.88-2.34zm-26.95-7.3h-7.48v3h7.48v-3zm-5.98 1.5v-6.29h-3v6.29h3zm-.317-5.367l35.19-45.05-2.365-1.846-35.19 45.05 2.365 1.846zM70.643 8.32H7.233v3h63.41v-3zm-61.91 1.5V2h-3v7.82h3zm-1.5-6.32h74.63v-3H7.233v3zM80.363 2v6.12h3V2h-3zm.317 5.197l-35.7 45.73 2.365 1.846 35.7-45.73-2.365-1.846z" fill="#fff"/></svg>