<svg width="105" height="123" fill="none" xmlns="http://www.w3.org/2000/svg"><path d="M103.015 80.37h1.5v-1.5h-1.5v1.5zm-24.99 0h-1.5v1.5h1.5v-1.5zm0-29.07h1.5v-1.5h-1.5v1.5zm-8.33 0v-1.5h-1.5v1.5h1.5zm0 29.07v1.5h1.5v-1.5h-1.5zm-57.12 0l-1.166-.944-1.977 2.444h3.143v-1.5zM75.985 2l1.166.943L79.128.5h-3.143V2zm-9.69 0V.5h-.715l-.45.556L66.294 2zm-64.6 79.73l-1.166-.944-.334.413v.531h1.5zm0 6.29h-1.5v1.5h1.5v-1.5zm67.83 0h1.5v-1.5h-1.5v1.5zm0 32.98h-1.5v1.5h1.5V121zm8.5 0v1.5h1.5V121h-1.5zm0-32.98v-1.5h-1.5v1.5h1.5zm24.99 0v1.5h1.5v-1.5h-1.5zm0-9.15h-24.99v3h24.99v-3zm-23.49 1.5V51.3h-3v29.07h3zm-1.5-30.57h-8.33v3h8.33v-3zm-9.83 1.5v29.07h3V51.3h-3zm1.5 27.57h-57.12v3h57.12v-3zM13.74 81.314l63.41-78.37-2.332-1.888-63.41 78.37 2.332 1.888zM75.985.5h-9.69v3h9.69v-3zm-10.856.556L.53 80.786l2.331 1.888 64.6-79.73-2.33-1.888zM.195 81.73v6.29h3v-6.29h-3zm1.5 7.79h67.83v-3H1.695v3zm66.33-1.5V121h3V88.02h-3zm1.5 34.48h8.5v-3h-8.5v3zm10-1.5V88.02h-3V121h3zm-1.5-31.48h24.99v-3h-24.99v3zm26.49-1.5v-7.65h-3v7.65h3z" fill="#fff"/></svg>