<svg width="87" height="124" fill="none" xmlns="http://www.w3.org/2000/svg"><path d="M19.023 51.81l-1.492-.163-.181 1.663h1.672v-1.5zm4.59-41.99v-1.5h-1.345l-.147 1.337 1.492.163zm55.76 0v1.5h1.5v-1.5h-1.5zm0-7.82h1.5V.5h-1.5V2zm-63.07 0V.5h-1.346l-.146 1.337L16.302 2zm-6.29 57.63l-1.492-.163-.181 1.663h1.672v-1.5zm-3.57 39.61l1.138-.976-1.288-1.504-1.099 1.648 1.249.832zm-4.42 6.63l-1.249-.832-.637.955.757.865 1.129-.988zm34-55.56h-17v3h17v-3zm-15.51 1.663l4.59-41.99-2.982-.326-4.59 41.99 2.983.326zm3.1-40.653h55.76v-3h-55.76v3zm57.26-1.5V2h-3v7.82h3zM79.373.5h-63.07v3h63.07v-3zM14.81 1.837l-6.29 57.63 2.983.326 6.29-57.63-2.983-.326zM10.012 61.13h24.14v-3h-24.14v3zm24.14 0c16.05 0 26.332 2.588 32.578 7.032 6.128 4.36 8.593 10.675 8.593 18.838h3c0-8.837-2.72-16.207-9.853-21.282-7.014-4.991-18.067-7.588-34.317-7.588v3zM75.323 87c0 7.529-2.657 13.803-7.825 18.218-5.195 4.439-13.096 7.142-23.825 7.142v3c11.202 0 19.877-2.822 25.774-7.861 5.924-5.062 8.877-12.218 8.877-20.499h-3zm-31.65 25.36c-15.644 0-29.296-6.169-36.09-14.096l-2.278 1.952c7.485 8.733 22.053 15.144 38.369 15.144v-3zM5.194 98.408l-4.42 6.63 2.497 1.664 4.42-6.63-2.497-1.664zm-4.3 8.45c8.691 9.933 25.308 16.492 42.949 16.492v-3c-17.04 0-32.723-6.361-40.692-15.468l-2.257 1.976zm42.949 16.492c14.208 0 25.017-3.902 32.29-10.527 7.284-6.637 10.86-15.86 10.86-26.163h-3c0 9.587-3.31 17.959-9.88 23.945-6.583 5.997-16.599 9.745-30.27 9.745v3zm43.15-36.69c0-10.877-3.44-20.085-11.738-26.516-8.221-6.372-20.982-9.834-39.232-9.834v3c17.959 0 29.933 3.423 37.394 9.206 7.386 5.724 10.576 13.941 10.576 24.144h3z" fill="#fff"/></svg>