<svg width="16" height="16" fill="none" xmlns="http://www.w3.org/2000/svg"><path fill-rule="evenodd" clip-rule="evenodd" d="M7.238 5.559c.345-.466.469-.956.078-1.39C6.44 2.944 5.85 2.186 5.48 1.82c-.703-.694-1.86-.6-2.468 0-.327.322-.438.433-.774.774-1.87 1.871-.73 5.827 2.303 8.863 3.032 3.034 6.987 4.176 8.862 2.3.31-.299.572-.561.779-.78.597-.63.687-1.736-.004-2.454-.354-.368-1.078-.93-2.356-1.844-.391-.35-.856-.274-1.281.005-.205.135-.354.27-.635.552l-.511.511c-.067.067-.981-.39-1.868-1.278C6.64 7.58 6.183 6.666 6.25 6.6l.51-.511c.09-.09.133-.133.187-.19a3.45 3.45 0 00.29-.34zm3.1 5.13l.51-.511c.155-.155.255-.25.337-.316 1.12.804 1.768 1.31 2.033 1.585.16.165.134.466-.004.613-.191.202-.44.45-.745.745-1.212 1.212-4.405.291-6.986-2.292-2.58-2.584-3.502-5.778-2.299-6.981.335-.34.44-.446.763-.763.12-.12.45-.146.597-.001.285.281.813.958 1.59 2.04-.04.05-.09.106-.152.17a8.838 8.838 0 01-.164.167l-.51.511c-.87.869-.13 2.347 1.277 3.755 1.405 1.406 2.884 2.147 3.752 1.278z" fill="#008DD2"/></svg>