<svg height="640" viewBox="0 0 480 480" width="640" xmlns="http://www.w3.org/2000/svg"><path d="M432 240c0 106.04-85.96 192-192 192S48 346.04 48 240 133.96 48 240 48s192 85.96 192 192zm0 0" fill="#cfd2fc"/><path d="M240 480C107.453 480 0 372.547 0 240S107.453 0 240 0s240 107.453 240 240c-.148 132.484-107.516 239.852-240 240zm0-464C116.29 16 16 116.29 16 240s100.29 224 224 224 224-100.29 224-224c-.14-123.652-100.348-223.86-224-224zm0 0" fill="#8690fa"/><path d="M352 240c0 61.855-50.145 112-112 112s-112-50.145-112-112 50.145-112 112-112 112 50.145 112 112zm0 0" fill="#5153ff"/></svg>