<svg height="512pt" viewBox="0 0 512 512" width="512pt" xmlns="http://www.w3.org/2000/svg"><linearGradient id="a" gradientTransform="matrix(1 0 0 -1 0 -14446)" gradientUnits="userSpaceOnUse" x1="0" x2="512" y1="-14702" y2="-14702"><stop offset="0" stop-color="#00f38d"/><stop offset="1" stop-color="#009eff"/></linearGradient><path d="M512 256c0 141.387-114.613 256-256 256S0 397.387 0 256 114.613 0 256 0s256 114.613 256 256zm0 0" fill="url(#a)"/><g fill="#fff"><path d="M256 56C145.719 56 56 145.543 56 255.61v.78C56 366.458 145.719 456 256 456s200-89.543 200-199.61v-.78C456 145.542 366.281 56 256 56zm170 200.39C426 349.915 349.738 426 256 426S86 349.914 86 256.39v-.78C86 162.085 162.262 86 256 86s170 76.086 170 169.61zm0 0"/><path d="M256 157.906c-53.656 0-97.309 43.653-97.309 97.313 0 53.652 43.653 97.308 97.309 97.308s97.309-43.656 97.309-97.312-43.653-97.309-97.309-97.309zm0 164.617c-37.113 0-67.309-30.195-67.309-67.308 0-37.113 30.196-67.309 67.309-67.309s67.309 30.196 67.309 67.309c0 37.117-30.196 67.308-67.309 67.308zm0 0"/></g></svg>