<svg width="56" height="56" fill="none" xmlns="http://www.w3.org/2000/svg"><path fill-rule="evenodd" clip-rule="evenodd" d="M17.355 19.576c-.862 0-1.57.708-1.57 1.57v14.776c0 .862.708 1.57 1.57 1.57h22.733c.862 0 1.57-.708 1.57-1.57V21.146c0-.862-.708-1.57-1.57-1.57H17.355zm-2.977 1.57a2.983 2.983 0 012.977-2.977h22.733a2.983 2.983 0 012.977 2.977v14.776a2.983 2.983 0 01-2.977 2.977H17.355a2.983 2.983 0 01-2.977-2.977V21.146z" fill="#003C5F"/><path fill-rule="evenodd" clip-rule="evenodd" d="M17.355 19.576c-.862 0-1.57.708-1.57 1.57v.682a5.409 5.409 0 005.435 5.434h2.693a.703.703 0 110 1.407H21.22a6.815 6.815 0 01-6.842-6.841v-.682a2.983 2.983 0 012.977-2.977h22.733a2.983 2.983 0 012.977 2.977v.682a6.815 6.815 0 01-6.841 6.841h-2.775a.703.703 0 010-1.407h2.775a5.409 5.409 0 005.434-5.434v-.682c0-.862-.708-1.57-1.57-1.57H17.355zm14.492-2.213c-.693-.987-1.807-1.593-3.118-1.578h-.008a3.801 3.801 0 00-3.144 1.638.704.704 0 01-1.152-.807 5.208 5.208 0 014.292-2.237c1.78-.02 3.325.815 4.281 2.176a.703.703 0 11-1.151.808z" fill="#003C5F"/><path fill-rule="evenodd" clip-rule="evenodd" d="M28.722 22.839a2.192 2.192 0 100 4.385 2.192 2.192 0 000-4.385zm-3.658 2.192a3.658 3.658 0 117.316 0 3.658 3.658 0 01-7.316 0z" fill="#003C5F"/><path fill-rule="evenodd" clip-rule="evenodd" d="M28.722 28.69a2.61 2.61 0 100 5.22 2.61 2.61 0 000-5.22zm-4.076 2.61a4.076 4.076 0 118.151 0 4.076 4.076 0 01-8.151 0z" fill="#003C5F"/><path fill-rule="evenodd" clip-rule="evenodd" d="M28 54c14.36 0 26-11.64 26-26S42.36 2 28 2 2 13.64 2 28s11.64 26 26 26zm0 2c15.464 0 28-12.536 28-28S43.464 0 28 0 0 12.536 0 28s12.536 28 28 28z" fill="#008DD2"/></svg>