<svg width="56" height="56" fill="none" xmlns="http://www.w3.org/2000/svg"><path fill-rule="evenodd" clip-rule="evenodd" d="M17.405 14.325c0-.388.315-.703.704-.703H33.57c.187 0 .365.074.497.206l5.609 5.608c.132.132.206.31.206.497v4.837a.703.703 0 01-1.407 0v-4.546l-5.196-5.195H18.812v27.778h20.366a.703.703 0 110 1.407h-21.07a.703.703 0 01-.703-.703V14.325z" fill="#003C5F"/><path d="M32.87 14.325a.701.701 0 111.402 0H32.87zm0 5.608v-5.608h1.401v5.608H32.87zm1.401 0a.702.702 0 01-.7.704.703.703 0 01-.702-.704h1.402z" fill="#003C5F"/><path fill-rule="evenodd" clip-rule="evenodd" d="M32.867 19.933c0-.389.315-.703.703-.703h5.608a.703.703 0 110 1.406H33.57a.703.703 0 01-.703-.703zm-.116 8.861v5.93c0 1.14.772 2.35 1.96 3.425 1.087.984 2.403 1.746 3.41 2.128 1.006-.382 2.322-1.144 3.408-2.128 1.189-1.076 1.96-2.285 1.96-3.425v-5.93c-1.8-.814-3.586-1.196-5.365-1.186h-.008c-1.778-.01-3.565.371-5.365 1.186zm-.703-.447l-.308-.633c2.113-1.028 4.242-1.525 6.38-1.513 2.139-.012 4.268.485 6.38 1.513a.703.703 0 01.397.633v6.377c0 1.743-1.139 3.305-2.424 4.468-1.304 1.181-2.905 2.086-4.128 2.498a.704.704 0 01-.45 0c-1.222-.412-2.823-1.317-4.128-2.498-1.284-1.163-2.423-2.725-2.423-4.468v-6.377h.704z" fill="#003C5F"/><path fill-rule="evenodd" clip-rule="evenodd" d="M41.642 31.181a.703.703 0 010 .995l-3.204 3.204a.703.703 0 01-.995 0L35.8 33.738a.703.703 0 01.995-.995l1.144 1.145 2.707-2.707a.703.703 0 01.995 0z" fill="#003C5F"/><path d="M22.216 20.464c.47 0 .87-.166 1.2-.497a.346.346 0 00.105-.254.343.343 0 00-.104-.252.343.343 0 00-.252-.104c-.1 0-.185.035-.254.104a.947.947 0 01-.695.289.946.946 0 01-.694-.289.947.947 0 01-.288-.694.95.95 0 01.288-.697.947.947 0 01.694-.288.95.95 0 01.695.288c.07.071.154.107.254.107a.34.34 0 00.252-.107.343.343 0 00.104-.252.343.343 0 00-.104-.252 1.632 1.632 0 00-1.2-.499c-.47 0-.87.167-1.201.5a1.63 1.63 0 00-.497 1.2c0 .469.165.87.497 1.2.331.332.731.498 1.2.498v-.001zm2.654-3.29a.36.36 0 00-.39-.08.359.359 0 00-.22.331v2.68c0 .1.034.185.103.255.07.07.155.104.255.104a.344.344 0 00.251-.104.346.346 0 00.105-.255v-1.818l.73.73c.07.07.154.105.252.105.1 0 .184-.035.254-.104l.73-.73v1.817c0 .1.035.185.105.255.07.07.154.104.252.104a.344.344 0 00.252-.104.343.343 0 00.107-.255v-2.68a.35.35 0 00-.061-.2.356.356 0 00-.55-.052l-1.09 1.088-1.087-1.088h.002zm5.99 1.145a.517.517 0 01-.16.38.516.516 0 01-.379.156h-.982v-1.073h.982c.148 0 .275.053.38.159.105.104.158.23.158.379zm-.686 1.25l.79.79c.07.07.153.105.251.105a.35.35 0 00.254-.104.346.346 0 00.105-.255.343.343 0 00-.105-.252l-.479-.478c.18-.114.32-.262.423-.445.107-.19.16-.393.16-.61 0-.346-.122-.64-.367-.886a1.206 1.206 0 00-.885-.368h-1.339c-.1 0-.184.036-.254.107a.343.343 0 00-.104.252v2.68c0 .1.035.185.104.254.07.07.154.104.254.104a.343.343 0 00.252-.104.346.346 0 00.104-.254v-.536h.835zM26.5 25.023c-.311 0-.564-.316-.564-.707 0-.39.252-.707.563-.707v1.414zm7.7 0h-7.7v-1.414h7.7v1.414zm0-1.414c.31 0 .562.317.562.707 0 .39-.252.707-.563.707v-1.414zm-12.787 1.412a.705.705 0 010-1.41v1.41zm2.028 0h-2.028v-1.41h2.028v1.41zm0-1.41a.705.705 0 010 1.41v-1.41z" fill="#003C5F"/><path fill-rule="evenodd" clip-rule="evenodd" d="M25.796 27.56c0-.389.315-.704.704-.704h2.652a.703.703 0 010 1.407H26.5a.703.703 0 01-.704-.703z" fill="#003C5F"/><path d="M21.412 28.263a.704.704 0 010-1.407v1.407zm2.028 0h-2.028v-1.407h2.028v1.407zm0-1.407a.704.704 0 010 1.408v-1.407z" fill="#003C5F"/><path fill-rule="evenodd" clip-rule="evenodd" d="M25.796 30.803c0-.388.315-.703.704-.703h2.735a.703.703 0 110 1.407H26.5a.703.703 0 01-.704-.704z" fill="#003C5F"/><path d="M21.412 31.506a.704.704 0 010-1.407v1.407zm2.028 0h-2.028V30.1h2.028v1.406zm0-1.406a.704.704 0 010 1.407V30.1zm-2.028 7.889a.702.702 0 01-.703-.7c0-.385.315-.698.703-.698v1.397zm7.976 0h-7.976V36.59h7.976v1.398zm0-1.398c.389 0 .704.313.704.7a.702.702 0 01-.704.698v-1.397z" fill="#003C5F"/><path fill-rule="evenodd" clip-rule="evenodd" d="M25.796 34.047c0-.389.315-.704.704-.704h2.735a.703.703 0 110 1.407H26.5a.703.703 0 01-.704-.703z" fill="#003C5F"/><path d="M21.412 34.75a.704.704 0 010-1.407v1.407zm2.028 0h-2.028v-1.407h2.028v1.407zm0-1.407a.704.704 0 010 1.407v-1.406z" fill="#003C5F"/><path fill-rule="evenodd" clip-rule="evenodd" d="M28 54c14.36 0 26-11.64 26-26S42.36 2 28 2 2 13.64 2 28s11.64 26 26 26zm0 2c15.464 0 28-12.536 28-28S43.464 0 28 0 0 12.536 0 28s12.536 28 28 28z" fill="#008DD2"/></svg>