<svg width="56" height="56" fill="none" xmlns="http://www.w3.org/2000/svg"><path fill-rule="evenodd" clip-rule="evenodd" d="M28.804 15.786c-3.65-.022-7.307.755-10.977 2.397l-.012.006a.863.863 0 00-.516.81v11.808c0 2.599 1.737 5.208 4.177 7.417 2.337 2.116 5.187 3.742 7.333 4.51 2.145-.768 4.996-2.394 7.333-4.51 2.439-2.209 4.177-4.818 4.177-7.417V18.998a.863.863 0 00-.528-.815c-3.67-1.643-7.328-2.42-10.978-2.398h-.009zm.005-1.407c-3.856-.022-7.706.8-11.541 2.514a2.27 2.27 0 00-1.376 2.106v11.807c0 3.203 2.104 6.165 4.64 8.46 2.554 2.314 5.69 4.083 8.052 4.878.146.05.303.05.45 0 2.36-.795 5.497-2.564 8.052-4.877 2.535-2.296 4.64-5.258 4.64-8.46V18.998a2.27 2.27 0 00-1.36-2.1m0 0c-3.842-1.718-7.696-2.543-11.557-2.52l11.556 2.52z" fill="#003C5F"/><path d="M26.028 19.566a.705.705 0 011.41.011l-1.41-.01zm-.005.605l.005-.605 1.41.011-.004.604-1.411-.01zm1.41.01a.705.705 0 01-1.41-.01l1.41.01zm-1.411 3.562a.705.705 0 011.411 0h-1.411zm.004 6.518l-.004-6.518 1.41-.001.005 6.518-1.41.001zm1.411 0a.705.705 0 01-1.411 0l1.41-.001h.001zm-1.41 2.39v-2.39h1.41v2.39h-1.41zm1.41 0a.705.705 0 01-1.411 0h1.411zm-1.41 3.512a.705.705 0 011.41 0h-1.41zm0 .483v-.483h1.41v.483h-1.41zm1.41 0a.705.705 0 01-1.411 0h1.411z" fill="#003C5F"/><path fill-rule="evenodd" clip-rule="evenodd" d="M25.831 22.684a2.403 2.403 0 00-2.394 2.394c0 .982.603 1.836 1.462 2.203a.703.703 0 01-.552 1.294 3.812 3.812 0 01-2.317-3.497 3.81 3.81 0 013.801-3.801h3.091a.703.703 0 110 1.407h-3.09zm2.011 5.49c0-.388.315-.703.704-.703h.773a.703.703 0 010 1.407h-.773a.703.703 0 01-.704-.703zm4.566-.017a.703.703 0 01.93-.353 3.81 3.81 0 012.249 3.468 3.81 3.81 0 01-3.801 3.8h-2.671a.703.703 0 110-1.406h2.67a2.403 2.403 0 002.395-2.394c0-.966-.582-1.808-1.419-2.185a.703.703 0 01-.353-.93z" fill="#003C5F"/><path fill-rule="evenodd" clip-rule="evenodd" d="M27.468 21.98c0-.389.315-.704.704-.704h3.255a4.27 4.27 0 013.571 1.94.703.703 0 11-1.177.77 2.864 2.864 0 00-2.394-1.303h-3.255a.703.703 0 01-.704-.703zm-4.977 10.18a.703.703 0 01.974.203 2.864 2.864 0 002.395 1.303h3.255a.703.703 0 110 1.406H25.86a4.27 4.27 0 01-3.572-1.94.703.703 0 01.203-.973z" fill="#003C5F"/><path d="M30.403 19.566a.705.705 0 011.41.011l-1.41-.01zm-.005.605l.005-.605 1.41.011-.004.604-1.411-.01zm1.41.01a.705.705 0 01-1.41-.01l1.41.01zm-1.411 3.562a.705.705 0 011.411 0h-1.411zm.004 6.518l-.004-6.518 1.41-.001.005 6.518-1.41.001zm1.411 0a.705.705 0 01-1.411 0l1.41-.001h.001zm-1.41 2.39v-2.39h1.41v2.39h-1.41zm1.41 0a.705.705 0 01-1.411 0h1.411zm-1.41 3.512a.705.705 0 011.41 0h-1.41zm0 .483v-.483h1.41v.483h-1.41zm1.41 0a.705.705 0 01-1.411 0h1.411z" fill="#003C5F"/><path fill-rule="evenodd" clip-rule="evenodd" d="M28 54c14.36 0 26-11.64 26-26S42.36 2 28 2 2 13.64 2 28s11.64 26 26 26zm0 2c15.464 0 28-12.536 28-28S43.464 0 28 0 0 12.536 0 28s12.536 28 28 28z" fill="#008DD2"/></svg>