<svg width="56" height="56" fill="none" xmlns="http://www.w3.org/2000/svg"><path fill-rule="evenodd" clip-rule="evenodd" d="M12.865 21.163a3.767 3.767 0 013.758-3.758h23.001c.89 0 1.712.314 2.356.835a.703.703 0 01-.884 1.094 2.332 2.332 0 00-1.472-.522H16.623a2.36 2.36 0 00-2.351 2.35v13.97a2.36 2.36 0 002.35 2.351h23.002c.624 0 1.194-.246 1.618-.65a.703.703 0 11.97 1.018 3.744 3.744 0 01-2.588 1.039H16.623a3.767 3.767 0 01-3.758-3.758v-13.97z" fill="#003C5F"/><path d="M22.688 22.85v-1.405l.182.005.18.014.177.022.174.032.172.04.168.048.165.056.161.064.158.072.152.079.148.086.144.092.138.1.134.106.128.112.123.118.116.124.111.13.105.133.098.14.092.145.085.149.078.153.07.158.064.162.056.165.047.17.04.171.03.175.023.178.013.18.005.182h-1.407l-.002-.112-.009-.11-.013-.108-.019-.107-.024-.104-.029-.102-.034-.1-.038-.098-.042-.096-.048-.093-.051-.09-.056-.088-.06-.084-.063-.082-.067-.078-.07-.076-.075-.07-.078-.068-.08-.064-.084-.06-.086-.056-.09-.052-.091-.047-.094-.043-.096-.039-.099-.034-.1-.029-.103-.023-.105-.02-.106-.013-.108-.008-.11-.003zm-2.13 2.156H19.15l.005-.182.014-.18.022-.178.03-.175.04-.172.048-.17.055-.165.064-.162.07-.157.078-.154.085-.149.092-.144.098-.14.105-.134.11-.13.118-.123.122-.118.129-.112.133-.106.139-.099.143-.093.148-.086.153-.08.157-.07.162-.065.164-.056.169-.048.172-.04.174-.032.178-.023.18-.014.181-.004v1.404l-.11.004-.108.008-.106.013-.105.02-.102.023-.1.03-.1.033-.096.038-.094.043-.092.048-.09.051-.085.057-.084.06-.081.064-.077.067-.075.071-.07.076-.068.078-.063.082-.06.084-.055.088-.052.09-.047.093-.043.096-.038.098-.034.1-.029.102-.024.104-.019.107-.013.108-.008.11-.003.113v-.002zm2.13 2.157v1.404l-.181-.004-.18-.014-.178-.023-.174-.032-.172-.04-.169-.048-.165-.056-.161-.064-.157-.072-.152-.079-.148-.086-.144-.093-.139-.1-.133-.105-.129-.112-.122-.118-.117-.123-.11-.13-.106-.134-.098-.14-.092-.145-.085-.149-.078-.153-.07-.158-.064-.162-.055-.165-.048-.169-.04-.172-.03-.175-.022-.177-.014-.18-.005-.183h1.407l.003.112.008.11.013.109.02.106.023.104.03.102.033.1.038.099.043.095.047.093.052.09.055.088.06.085.063.081.068.078.07.076.075.07.077.068.081.064.084.06.086.057.09.051.091.048.094.043.097.038.098.034.101.03.102.023.105.019.106.013.108.008.11.004v-.001zm2.131-2.157h1.407l-.005.182-.013.18-.022.178-.031.175-.04.172-.047.17-.056.164-.063.162-.07.158-.079.153-.085.15-.092.144-.098.14-.105.134-.11.13-.117.123-.123.118-.128.112-.134.106-.138.1-.144.092-.148.087-.152.079-.157.071-.162.064-.165.056-.168.049-.172.04-.174.031-.177.023-.18.014-.182.005v-1.405l.11-.003.108-.008.107-.014.105-.019.102-.023.1-.03.1-.033.096-.039.093-.043.092-.047.09-.052.086-.056.084-.06.08-.064.077-.067.075-.071.07-.076.068-.078.063-.081.06-.085.055-.087.052-.09.047-.094.043-.095.038-.098.034-.1.029-.103.024-.104.018-.106.014-.109.008-.11.003-.112zm5.081-.547a.703.703 0 010-1.407v1.406zm3.993 0H29.9v-1.407h3.993v1.407zm0-1.407a.703.703 0 010 1.407v-1.407zM29.9 28.71a.703.703 0 010-1.407v1.406zm3.895 0H29.9v-1.407h3.895v1.406zm0-1.407a.703.703 0 010 1.407v-1.407zm-5.637 6.845a.704.704 0 01-1.407 0h1.407zm0-1.29v1.29h-1.406v-1.29h1.406zm-3.77-2.364v-1.407l.192.005.192.014.188.024.186.034.182.042.18.051.175.06.171.068.167.075.162.084.158.091.153.098.148.105.142.112.137.119.13.124.125.131.119.137.112.142.105.148.098.153.091.158.084.162.076.168.068.171.06.176.05.179.043.182.033.186.024.188.015.191.004.193h-1.406l-.003-.121-.01-.12-.015-.118-.02-.116-.027-.113-.032-.112-.037-.109-.042-.107-.048-.104-.053-.102-.057-.1-.062-.095-.065-.093-.071-.09-.075-.086-.079-.083-.082-.079-.087-.075-.09-.07-.092-.067-.096-.061-.099-.058-.102-.052-.105-.048-.107-.042-.109-.037-.111-.032-.114-.026-.115-.021-.118-.015-.12-.01-.121-.003zm-3.401-1.407h3.4v1.407h-3.4v-1.407zm-2.364 3.771h-1.407l.005-.193.014-.191.024-.189.033-.185.043-.183.05-.179.06-.175.069-.172.076-.166.083-.163.09-.158.1-.153.105-.148.112-.141.118-.137.125-.131.13-.125.138-.118.141-.112.148-.105.154-.099.157-.09.163-.084.167-.076.171-.068.175-.06.18-.05.182-.043.186-.033.188-.024.19-.015.194-.004v1.406l-.121.003-.12.01-.118.015-.115.02-.114.027-.111.032-.11.037-.106.042-.105.048-.102.052-.1.058-.095.061-.093.066-.09.071-.086.075-.082.079-.08.082-.074.087-.07.09-.067.092-.061.096-.057.099-.053.102-.048.105-.042.107-.037.109-.032.111-.026.114-.021.115-.015.118-.01.12-.003.121zm-1.407 1.29v-1.29h1.407v1.29h-1.407zm1.407 0a.704.704 0 01-1.407 0h1.406z" fill="#003C5F"/><path fill-rule="evenodd" clip-rule="evenodd" d="M37.29 22.977v5.93c0 1.14.772 2.35 1.96 3.426 1.087.983 2.402 1.746 3.41 2.127 1.006-.381 2.322-1.144 3.408-2.127 1.189-1.076 1.96-2.285 1.96-3.426v-5.93c-1.8-.814-3.587-1.196-5.365-1.185h-.008c-1.778-.01-3.565.371-5.365 1.185zm-.703-.447l-.308-.632c2.113-1.029 4.242-1.525 6.38-1.513 2.139-.012 4.268.485 6.38 1.513a.703.703 0 01.396.632v6.377c0 1.744-1.138 3.306-2.423 4.469-1.304 1.18-2.906 2.086-4.128 2.498a.704.704 0 01-.45 0c-1.222-.412-2.823-1.317-4.128-2.498-1.284-1.163-2.423-2.725-2.423-4.469V22.53h.704z" fill="#003C5F"/><path fill-rule="evenodd" clip-rule="evenodd" d="M46.18 25.365a.703.703 0 010 .994l-3.205 3.204a.703.703 0 01-.995 0l-1.641-1.642a.703.703 0 01.995-.994l1.144 1.144 2.706-2.706a.703.703 0 01.995 0z" fill="#003C5F"/><path fill-rule="evenodd" clip-rule="evenodd" d="M28 54c14.36 0 26-11.64 26-26S42.36 2 28 2 2 13.64 2 28s11.64 26 26 26zm0 2c15.464 0 28-12.536 28-28S43.464 0 28 0 0 12.536 0 28s12.536 28 28 28z" fill="#008DD2"/></svg>