<svg width="56" height="56" fill="none" xmlns="http://www.w3.org/2000/svg"><path d="M24.802 27.132a.626.626 0 010-1.254v1.254zm7.758 0h-7.758v-1.254h7.758v1.254zm0-1.254a.626.626 0 010 1.254v-1.254z" fill="#003C5F"/><path d="M25.177 26.948a.627.627 0 01-.886-.886l.886.886zm1.555-1.554l-1.555 1.555-.886-.887 1.554-1.554.887.886zm-.887-.886a.627.627 0 01.887.886l-.887-.886zm6.647 3.672a.626.626 0 010 1.254v-1.253zm-7.758 0h7.758v1.254h-7.758v-1.253zm0 1.254a.626.626 0 010-1.253v1.253z" fill="#003C5F"/><path d="M32.117 28.364a.627.627 0 01.886.887l-.886-.887zm-1.554 1.555l1.554-1.555.886.887-1.554 1.554-.886-.886zm.886.886a.627.627 0 01-.886-.886l.886.886zM18.666 20.397V18.92l.239.006.236.018.233.03.23.042.225.053.221.063.217.074.212.084.206.094.2.104.196.113.188.121.182.131.176.14.168.146.162.155.153.163.146.17.138.177.13.183.12.19.111.196.103.202.093.208.083.212.073.218.063.222.052.226.04.23.03.235.018.236.007.24h-1.48l-.003-.166-.013-.163-.02-.161-.028-.158-.035-.155-.043-.152-.05-.15-.057-.145-.063-.142-.07-.138-.077-.134-.082-.13-.09-.126-.093-.121-.1-.116-.105-.112-.11-.106-.116-.1-.12-.096-.124-.089-.128-.083-.133-.077-.136-.07-.14-.064-.144-.057-.147-.05-.15-.044-.152-.035-.156-.028-.158-.02-.161-.013-.164-.004h-.003zm-3.17 3.204h-1.48l.007-.24.018-.236.03-.235.041-.23.052-.226.062-.222.073-.218.084-.212.093-.208.102-.202.112-.196.12-.19.13-.183.137-.177.146-.17.154-.162.161-.156.169-.147.175-.139.182-.13.189-.122.195-.114.2-.103.207-.094.212-.085.216-.073.221-.064.226-.052.23-.041.232-.03.237-.019.239-.006v1.477l-.164.004-.161.012-.158.02-.156.029-.153.035-.15.043-.146.05-.144.058-.14.064-.136.07-.133.076-.129.084-.124.089-.12.095-.115.1-.11.106-.105.112-.1.116-.094.121-.089.126-.082.13-.077.134-.07.139-.063.141-.057.146-.05.15-.043.15-.035.156-.028.158-.02.161-.013.164-.004.166h-.003zm3.17 3.205v1.476l-.239-.006-.236-.018-.233-.03-.23-.042-.225-.052-.221-.063-.217-.074-.212-.084-.206-.094-.2-.104-.196-.113-.188-.122-.182-.13-.176-.14-.168-.147-.162-.155-.153-.163-.146-.17-.138-.176-.13-.184-.12-.19-.111-.195-.103-.202-.093-.208-.083-.213-.073-.217-.063-.222-.052-.227-.04-.23-.03-.234-.018-.237-.007-.24h1.48l.003.166.013.164.02.16.028.159.036.155.042.152.05.149.057.146.063.141.07.139.077.134.082.13.09.125.093.122.1.116.105.111.11.106.116.101.12.095.124.09.129.083.132.076.136.07.14.064.144.058.147.05.15.043.152.035.156.028.158.02.161.013.164.004h.003zm3.17-3.205h1.48l-.007.24-.018.237-.03.234-.04.23-.053.227-.062.222-.073.217-.084.213-.092.207-.103.203-.112.195-.12.19-.13.184-.137.177-.146.17-.154.162-.161.155-.169.147-.175.14-.182.13-.189.122-.195.113-.2.104-.207.094-.212.084-.216.074-.221.063-.226.052-.23.042-.232.03-.237.018-.238.007v-1.477l.163-.004.161-.013.158-.02.156-.028.153-.036.15-.043.146-.05.144-.057.14-.064.136-.07.133-.077.129-.083.124-.09.12-.094.115-.101.11-.106.106-.112.1-.116.093-.12.089-.127.082-.13.077-.134.07-.138.063-.142.057-.146.05-.149.043-.151.035-.156.028-.157.02-.162.013-.163.004-.166h.003zm4.145 12.609a.74.74 0 01-1.479 0h1.48zm0-1.779v1.78h-1.479v-1.78h1.48zm-4.97-3.49v-1.48l.255.007.251.02.249.03.245.045.24.056.236.067.23.079.226.089.22.1.214.11.208.12.201.129.195.139.188.147.18.156.173.165.164.172.156.18.148.188.139.195.13.202.119.207.11.214.1.22.09.226.078.231.067.236.056.24.044.245.031.248.02.252.006.254h-1.479l-.004-.179-.014-.176-.022-.174-.03-.17-.04-.17-.047-.165-.055-.161-.063-.158-.07-.154-.078-.15-.084-.147-.092-.142-.097-.137-.104-.133-.11-.127-.117-.122-.122-.116-.126-.11-.133-.104-.137-.097-.142-.092-.146-.084-.15-.078-.155-.07-.158-.063-.161-.055-.165-.047-.168-.039-.17-.03-.174-.023-.177-.014-.18-.004.001.001zm-4.69-1.48h4.69v1.48h-4.69v-1.48zm-3.49 4.97h-1.48l.007-.254.02-.252.031-.248.044-.245.056-.24.067-.236.08-.23.088-.226.1-.22.11-.215.12-.208.13-.201.139-.195.147-.188.156-.18.165-.173.173-.164.18-.157.188-.147.194-.139.202-.129.208-.12.215-.11.22-.1.225-.09.231-.078.236-.068.24-.055.244-.045.25-.031.25-.02.255-.006v1.479l-.18.004-.176.014-.173.022-.171.03-.169.04-.164.047-.162.055-.158.063-.155.07-.15.078-.147.084-.141.091-.137.098-.133.104-.127.11-.122.116-.115.122-.11.127-.105.132-.097.137-.092.142-.084.147-.077.15-.07.154-.063.158-.055.162-.048.165-.04.169-.03.17-.022.174-.014.176-.004.18zm-1.48 1.78v-1.78h1.48v1.78h-1.48zm1.48 0a.74.74 0 01-1.48 0h1.48zm26.063-15.814V18.92l.239.006.236.018.233.03.23.042.224.053.222.063.216.074.212.084.206.094.201.104.195.113.188.121.183.131.175.14.169.146.16.155.155.163.146.17.137.176.13.184.12.19.112.196.102.202.093.208.083.212.074.218.062.222.052.226.04.23.03.235.019.236.006.24h-1.479l-.004-.166-.013-.163-.02-.161-.028-.158-.035-.155-.043-.152-.05-.15-.057-.145-.063-.142-.07-.138-.077-.134-.082-.13-.089-.126-.094-.121-.1-.116-.105-.112-.11-.106-.116-.1-.12-.096-.124-.089-.129-.083-.133-.077-.136-.07-.14-.064-.143-.057-.147-.05-.15-.043-.153-.035-.156-.028-.158-.02-.16-.013-.164-.004-.002-.001zm-3.17 3.204h-1.48l.007-.24.018-.236.03-.235.04-.23.053-.226.062-.222.073-.218.083-.212.093-.208.103-.202.112-.196.12-.19.13-.183.137-.177.146-.17.154-.162.161-.156.168-.147.176-.139.182-.13.189-.122.194-.114.201-.103.207-.094.211-.085.217-.073.221-.064.226-.052.23-.041.232-.03.236-.019.24-.006v1.477l-.164.004-.161.012-.159.02-.155.029-.153.035-.15.043-.147.05-.143.058-.14.064-.137.07-.132.076-.129.084-.124.089-.12.095-.115.1-.11.106-.105.112-.1.116-.094.121-.09.126-.082.13-.076.134-.07.139-.063.141-.058.146-.05.15-.042.15-.035.156-.028.158-.02.161-.013.164-.004.166h-.003zm3.17 3.205v1.476l-.24-.006-.235-.018-.233-.03-.23-.042-.225-.052-.222-.063-.216-.074-.212-.084-.206-.094-.201-.104-.195-.113-.188-.122-.183-.13-.175-.14-.168-.147-.162-.155-.154-.163-.145-.17-.138-.176-.13-.184-.12-.19-.111-.195-.103-.202-.093-.208-.083-.213-.074-.217-.062-.222-.052-.227-.04-.23-.03-.234-.019-.237-.006-.24h1.48l.003.166.013.164.02.16.028.159.035.155.043.152.05.149.057.146.063.141.07.139.077.134.082.13.089.125.094.122.1.116.105.111.11.106.115.101.12.095.124.09.13.083.132.076.136.07.14.064.144.058.147.05.15.043.152.035.156.028.158.02.161.013.164.004h.003zm3.17-3.205h1.479l-.006.24-.018.237-.03.234-.041.23-.052.227-.062.222-.074.217-.083.213-.093.207-.102.203-.112.195-.12.19-.13.184-.137.177-.146.17-.154.162-.162.155-.168.147-.175.14-.183.13-.188.122-.195.113-.2.104-.207.094-.212.084-.216.074-.222.063-.225.052-.229.042-.233.03-.236.018-.24.007v-1.477l.164-.004.161-.013.158-.02.156-.028.153-.036.15-.043.147-.05.143-.056.14-.064.136-.07.133-.077.129-.083.124-.09.12-.095.115-.1.11-.107.106-.111.1-.116.094-.121.089-.126.082-.13.077-.134.07-.139.063-.141.057-.146.05-.15.043-.15.035-.156.028-.158.02-.161.013-.163.004-.167h.002zm4.145 12.609a.74.74 0 01-1.48 0h1.48zm0-1.779v1.78h-1.48v-1.78h1.48zm-4.97-3.49v-1.48l.254.007.251.02.249.03.245.045.24.056.236.067.23.079.226.089.22.1.214.11.208.12.202.129.194.139.188.147.18.156.173.165.164.172.156.18.148.188.139.195.13.202.12.207.11.214.099.22.09.226.078.231.067.236.056.24.044.245.032.248.019.252.006.254h-1.479l-.004-.179-.014-.176-.022-.174-.03-.17-.04-.17-.047-.165-.055-.161-.063-.158-.07-.154-.078-.15-.084-.147-.092-.142-.097-.137-.104-.133-.11-.127-.117-.122-.122-.116-.126-.11-.133-.104-.137-.097-.142-.092-.146-.084-.15-.078-.155-.07-.158-.063-.161-.055-.165-.047-.168-.039-.17-.03-.174-.023-.177-.014-.179-.004v.001zm-4.69-1.48h4.69v1.48h-4.69v-1.48zm-3.492 4.97h-1.479l.007-.254.02-.252.031-.248.044-.245.056-.24.067-.236.08-.23.088-.226.1-.22.11-.215.12-.208.13-.201.139-.195.147-.188.156-.18.165-.173.173-.164.18-.157.188-.147.194-.139.202-.129.208-.12.215-.11.22-.1.225-.09.231-.078.236-.068.24-.055.244-.045.25-.031.25-.02.255-.006v1.479l-.18.004-.176.014-.173.022-.171.03-.169.04-.164.047-.163.055-.157.063-.155.07-.15.078-.147.084-.141.091-.137.098-.133.104-.127.11-.122.116-.115.122-.11.127-.105.132-.097.137-.092.142-.084.147-.077.15-.07.154-.063.158-.055.162-.048.165-.04.169-.03.17-.022.174-.014.176-.004.18zm-1.479 1.78v-1.78h1.48v1.78h-1.48zm1.48 0a.74.74 0 01-1.48 0h1.48z" fill="#003C5F"/><path fill-rule="evenodd" clip-rule="evenodd" d="M28 54c14.36 0 26-11.64 26-26S42.36 2 28 2 2 13.64 2 28s11.64 26 26 26zm0 2c15.464 0 28-12.536 28-28S43.464 0 28 0 0 12.536 0 28s12.536 28 28 28z" fill="#008DD2"/></svg>